SplineFontDB: 3.0
FontName: Gurajada-Regular
FullName: Gurajada Regular
FamilyName: Gurajada
OS2StyleName: "regular"
Weight: Regular
Copyright: This font is copyright of SiliconAndhra, USA.
Version: 0.3
ItalicAngle: 0
UnderlinePosition: 0
UnderlineWidth: 0
Ascent: 856
Descent: 214
InvalidEm: 1
UFOAscent: 875
UFODescent: -250
LayerCount: 2
Layer: 0 0 "Back" 1
Layer: 1 0 "Fore" 0
PreferredKerning: 1
FSType: 0
OS2Version: 0
OS2_WeightWidthSlopeOnly: 0
OS2_UseTypoMetrics: 0
CreationTime: 1417733286
ModificationTime: 1417733286
PfmFamily: 16
TTFWeight: 400
TTFWidth: 5
LineGap: 0
VLineGap: 0
OS2TypoAscent: 0
OS2TypoAOffset: 1
OS2TypoDescent: 0
OS2TypoDOffset: 1
OS2TypoLinegap: 0
OS2WinAscent: 0
OS2WinAOffset: 1
OS2WinDescent: 0
OS2WinDOffset: 1
HheadAscent: 0
HheadAOffset: 1
HheadDescent: 0
HheadDOffset: 1
OS2CapHeight: 0
OS2XHeight: 0
Lookup: 258 0 0 "'kern' Horizontal Kerning lookup 0" { "'kern' Horizontal Kerning lookup 0 subtable"  } ['kern' ('DFLT' <'dflt' > ) ]
DEI: 91125
KernClass3: 33 29 "'kern' Horizontal Kerning lookup 0 subtable"
 10 "@MMK_L_A" "A Aacute Abreve Abreveacute Abrevedotbelow Abrevegrave Abrevehookabove Abrevetilde Acaron Acircumflex Acircumflexacute Acircumflexdotbelow Acircumflexgrave Acircumflexhookabove Acircumflextilde Adieresis Adotbelow Agrave Ahookabove Amacron Aogonek Aring Aringacute Atilde increment"
 10 "@MMK_L_C" "C Cacute Ccaron Ccedilla Ccircumflex Cdotaccent"
 10 "@MMK_L_E" "E AE AEacute Eacute Ebreve Ecaron Ecircumflex Ecircumflexacute Ecircumflexdotbelow Ecircumflexgrave Ecircumflexhookabove Ecircumflextilde Edieresis Edotaccent Edotbelow Egrave Ehookabove Emacron Eogonek Etilde OE"
 10 "@MMK_L_G" "G Gbreve Gcircumflex Gcommaaccent Gdotaccent Gdieresis Gtilde"
 10 "@MMK_L_K" "K X Kcommaaccent"
 10 "@MMK_L_L" "L Lacute Lcaron Lcommaaccent Lslash"
 10 "@MMK_L_R" "R Racute Rcaron Rcommaaccent"
 10 "@MMK_L_S" "S Sacute Scaron Scedilla Scircumflex Scommaaccent"
 10 "@MMK_L_T" "T Tbar Tcaron uni0162 uni021A"

StartChar: A
Encoding: 1 65 1
GlifName: A_
Width: 450
VWidth: 0
Flags: W
AnchorPoint: "mark0" 226 451 basechar 0
AnchorPoint: "mark1" 0 0 basechar 0
LayerCount: 2
Back
Fore
SplineSet
438 0 m 257
 290 451 l 257
 169 451 l 257
 6 0 l 257
 106 0 l 257
 119 64 l 257
 132 101 l 257
 215 103 l 257
 310 101 l 257
 322 59 l 257
 334 0 l 257
 438 0 l 257
288 174 m 257
 223 173 l 257
 158 174 l 257
 224 362 l 257
 231 362 l 257
 288 174 l 257
EndSplineSet
EndChar

StartChar: AE
Encoding: 2 198 2
GlifName: A_E_
Width: 616
VWidth: 0
Flags: W
AnchorPoint: "mark0" 376 451 basechar 0
AnchorPoint: "mark1" 0 0 basechar 0
LayerCount: 2
Back
Fore
SplineSet
610 71 m 257
 604 78 l 257
 481 74 l 257
 404 74 l 257
 391 178 l 257
 543 212 l 257
 535 279 l 257
 527 284 l 257
 382 249 l 257
 365 376 l 257
 431 376 l 257
 547 372 l 257
 556 443 l 257
 549 451 l 257
 219 451 l 257
 -14 0 l 257
 88 0 l 257
 110 64 l 257
 136 115 l 257
 295 155 l 257
 308 59 l 257
 312 0 l 257
 604 0 l 257
 610 71 l 257
286 226 m 257
 180 200 l 257
 262 362 l 257
 268 362 l 257
 286 226 l 257
EndSplineSet
EndChar

StartChar: Abrevedotbelow
Encoding: 7 7862 7
GlifName: A_brevedotbelow
Width: 450
VWidth: 0
Flags: W
AnchorPoint: "mark0" 226 451 basechar 0
AnchorPoint: "mark1" 0 0 basechar 0
LayerCount: 2
Back
Fore
SplineSet
113 578 m 257
 130 531 169 504 224 504 c 256
 279 504 320 531 339 578 c 257
 316 608 l 257
 301 608 l 257
 288 582 263 569 228 569 c 256
 190 569 164 582 151 608 c 257
 136 608 l 257
 113 578 l 257
438 0 m 257
 290 451 l 257
 169 451 l 257
 6 0 l 257
 106 0 l 257
 119 64 l 257
 132 101 l 257
 215 103 l 257
 310 101 l 257
 322 59 l 257
 334 0 l 257
 438 0 l 257
288 174 m 257
 222 173 l 257
 158 174 l 257
 224 362 l 257
 231 362 l 257
 288 174 l 257
224 -36 m 256
 190 -36 169 -57 169 -88 c 256
 169 -118 187 -136 220 -136 c 256
 253 -136 274 -115 274 -84 c 256
 274 -54 255 -36 224 -36 c 256
  PathStart: -2
EndSplineSet
EndChar

StartChar: Abrevehookabove
Encoding: 9 7858 9
GlifName: A_brevehookabove
Width: 450
VWidth: 0
Flags: W
AnchorPoint: "mark0" 226 451 basechar 0
AnchorPoint: "mark1" 0 0 basechar 0
LayerCount: 2
Back
Fore
SplineSet
160 676 m 257
 176 688 192 694 208 694 c 256
 223 694 229 689 229 678 c 256
 229 664 214 645 190 629 c 257
 222 582 l 257
 259 602 l 257
 241 629 l 257
 272 654 283 668 283 687 c 256
 283 716 256 737 223 737 c 256
 195 737 169 725 144 701 c 257
 160 676 l 257
113 564 m 257
 130 517 170 491 224 491 c 256
 280 491 320 517 339 564 c 257
 316 594 l 257
 301 594 l 257
 288 568 263 555 228 555 c 256
 192 555 163 570 151 594 c 257
 136 594 l 257
 113 564 l 257
438 0 m 257
 290 451 l 257
 169 451 l 257
 6 0 l 257
 106 0 l 257
 119 64 l 257
 132 101 l 257
 215 103 l 257
 310 101 l 257
 322 59 l 257
 334 0 l 257
 438 0 l 257
288 174 m 257
 222 173 l 257
 158 174 l 257
 224 362 l 257
 231 362 l 257
 288 174 l 257
EndSplineSet
EndChar

StartChar: Abrevetilde
Encoding: 10 7860 10
GlifName: A_brevetilde
Width: 450
VWidth: 0
Flags: W
AnchorPoint: "mark0" 226 451 basechar 0
AnchorPoint: "mark1" 0 0 basechar 0
LayerCount: 2
Back
Fore
SplineSet
135 609 m 257
 143 609 l 257
 154 620 172 643 186 643 c 256
 193 643 209 640 235 633 c 256
 262 626 280 622 293 619 c 257
 301 623 l 257
 350 682 l 257
 350 689 l 257
 323 715 l 257
 315 715 l 257
 309 708 286 681 271 681 c 256
 265 681 249 685 223 692 c 256
 193 699 173 703 165 704 c 257
 156 701 l 257
 107 643 l 257
 107 635 l 257
 135 609 l 257
301 589 m 257
 288 565 264 552 230 552 c 256
 193 552 169 565 157 589 c 257
 142 589 l 257
 121 561 l 257
 138 516 175 490 227 490 c 256
 279 490 319 516 336 561 c 257
 314 589 l 257
 301 589 l 257
438 0 m 257
 290 451 l 257
 169 451 l 257
 6 0 l 257
 106 0 l 257
 119 64 l 257
 132 101 l 257
 215 103 l 257
 310 101 l 257
 322 59 l 257
 334 0 l 257
 438 0 l 257
288 174 m 257
 222 173 l 257
 158 174 l 257
 224 362 l 257
 231 362 l 257
 288 174 l 257
EndSplineSet
EndChar

StartChar: Acircumflex
Encoding: 12 194 12
GlifName: A_circumflex
Width: 450
VWidth: 0
Flags: W
AnchorPoint: "mark0" 226 451 basechar 0
AnchorPoint: "mark1" 0 0 basechar 0
LayerCount: 2
Back
Fore
SplineSet
134 510 m 257
 144 510 l 257
 167 522 l 257
 186 531 205 542 226 554 c 257
 247 542 267 531 286 522 c 257
 309 510 l 257
 319 510 l 257
 337 547 l 257
 301 570 267 594 236 619 c 257
 216 619 l 257
 184 592 150 568 115 547 c 257
 134 510 l 257
438 0 m 257
 290 451 l 257
 169 451 l 257
 6 0 l 257
 106 0 l 257
 119 64 l 257
 132 101 l 257
 215 103 l 257
 310 101 l 257
 322 59 l 257
 334 0 l 257
 438 0 l 257
288 174 m 257
 222 173 l 257
 158 174 l 257
 224 362 l 257
 231 362 l 257
 288 174 l 257
EndSplineSet
EndChar

StartChar: Acircumflexdotbelow
Encoding: 14 7852 14
GlifName: A_circumflexdotbelow
Width: 450
VWidth: 0
Flags: W
AnchorPoint: "mark0" 226 451 basechar 0
AnchorPoint: "mark1" 0 0 basechar 0
LayerCount: 2
Back
Fore
SplineSet
133 510 m 257
 143 510 l 257
 166 522 l 257
 185 531 205 542 226 554 c 257
 247 542 266 531 285 522 c 257
 308 510 l 257
 318 510 l 257
 336 547 l 257
 300 570 266 594 235 619 c 257
 215 619 l 257
 183 592 149 568 115 547 c 257
 133 510 l 257
438 0 m 257
 290 451 l 257
 169 451 l 257
 6 0 l 257
 106 0 l 257
 119 64 l 257
 132 101 l 257
 215 103 l 257
 310 101 l 257
 322 59 l 257
 334 0 l 257
 438 0 l 257
288 174 m 257
 222 173 l 257
 158 174 l 257
 224 362 l 257
 231 362 l 257
 288 174 l 257
224 -36 m 256
 190 -36 169 -57 169 -88 c 256
 169 -118 187 -136 220 -136 c 256
 253 -136 274 -115 274 -84 c 256
 274 -54 255 -36 224 -36 c 256
  PathStart: -2
EndSplineSet
EndChar

StartChar: Acircumflexhookabove
Encoding: 16 7848 16
GlifName: A_circumflexhookabove
Width: 450
VWidth: 0
Flags: W
AnchorPoint: "mark0" 226 451 basechar 0
AnchorPoint: "mark1" 0 0 basechar 0
LayerCount: 2
Back
Fore
SplineSet
244 669 m 257
 258 680 273 686 289 686 c 256
 302 686 309 681 309 671 c 256
 309 656 296 640 271 624 c 257
 301 580 l 257
 336 598 l 257
 319 624 l 257
 349 647 360 662 360 680 c 256
 360 707 335 727 302 727 c 256
 274 727 250 715 227 693 c 257
 244 669 l 257
133 496 m 257
 143 496 l 257
 166 508 l 257
 185 517 205 528 226 540 c 257
 247 528 266 517 285 508 c 257
 308 496 l 257
 318 496 l 257
 336 533 l 257
 300 556 266 580 235 605 c 257
 215 605 l 257
 183 578 149 554 115 533 c 257
 133 496 l 257
438 0 m 257
 290 451 l 257
 169 451 l 257
 6 0 l 257
 106 0 l 257
 119 64 l 257
 132 101 l 257
 215 103 l 257
 310 101 l 257
 322 59 l 257
 334 0 l 257
 438 0 l 257
288 174 m 257
 222 173 l 257
 158 174 l 257
 224 362 l 257
 231 362 l 257
 288 174 l 257
EndSplineSet
EndChar

StartChar: Acircumflextilde
Encoding: 17 7850 17
GlifName: A_circumflextilde
Width: 450
VWidth: 0
Flags: W
AnchorPoint: "mark0" 226 451 basechar 0
AnchorPoint: "mark1" 0 0 basechar 0
LayerCount: 2
Back
Fore
SplineSet
135 609 m 257
 143 609 l 257
 154 620 172 643 186 643 c 256
 193 643 209 640 235 633 c 256
 262 626 280 622 293 619 c 257
 301 623 l 257
 350 682 l 257
 350 689 l 257
 323 715 l 257
 315 715 l 257
 309 708 286 681 271 681 c 256
 265 681 249 685 223 692 c 256
 193 699 173 703 165 704 c 257
 156 701 l 257
 107 643 l 257
 107 635 l 257
 135 609 l 257
336 533 m 257
 300 556 266 580 235 605 c 257
 215 605 l 257
 183 578 149 554 115 533 c 257
 133 496 l 257
 143 496 l 257
 166 508 l 257
 185 517 205 528 226 540 c 257
 247 528 266 517 285 508 c 257
 308 496 l 257
 318 496 l 257
 336 533 l 257
438 0 m 257
 290 451 l 257
 169 451 l 257
 6 0 l 257
 106 0 l 257
 119 64 l 257
 132 101 l 257
 215 103 l 257
 310 101 l 257
 322 59 l 257
 334 0 l 257
 438 0 l 257
288 174 m 257
 222 173 l 257
 158 174 l 257
 224 362 l 257
 231 362 l 257
 288 174 l 257
EndSplineSet
EndChar

StartChar: Adieresis
Encoding: 18 196 18
GlifName: A_dieresis
Width: 450
VWidth: 0
Flags: W
AnchorPoint: "mark0" 226 451 basechar 0
AnchorPoint: "mark1" 0 0 basechar 0
LayerCount: 2
Back
Fore
SplineSet
160 512 m 256
 190 512 209 530 209 560 c 256
 209 587 193 603 163 603 c 256
 133 603 114 585 114 556 c 256
 114 528 130 512 160 512 c 256
  PathStart: -2
290 512 m 256
 321 512 340 530 340 560 c 256
 340 587 323 603 294 603 c 256
 263 603 244 585 244 556 c 256
 244 528 261 512 290 512 c 256
  PathStart: -2
438 0 m 257
 290 451 l 257
 169 451 l 257
 6 0 l 257
 106 0 l 257
 119 64 l 257
 132 101 l 257
 215 103 l 257
 310 101 l 257
 322 59 l 257
 334 0 l 257
 438 0 l 257
288 174 m 257
 222 173 l 257
 158 174 l 257
 224 362 l 257
 231 362 l 257
 288 174 l 257
EndSplineSet
EndChar

StartChar: Adotbelow
Encoding: 19 7840 19
GlifName: A_dotbelow
Width: 450
VWidth: 0
Flags: W
AnchorPoint: "mark0" 226 451 basechar 0
AnchorPoint: "mark1" 0 0 basechar 0
LayerCount: 2
Back
Fore
SplineSet
438 0 m 257
 290 451 l 257
 169 451 l 257
 6 0 l 257
 106 0 l 257
 119 64 l 257
 132 101 l 257
 215 103 l 257
 310 101 l 257
 322 59 l 257
 334 0 l 257
 438 0 l 257
288 174 m 257
 222 173 l 257
 158 174 l 257
 224 362 l 257
 231 362 l 257
 288 174 l 257
224 -36 m 256
 190 -36 169 -57 169 -88 c 256
 169 -118 187 -136 220 -136 c 256
 253 -136 274 -115 274 -84 c 256
 274 -54 255 -36 224 -36 c 256
  PathStart: -2
EndSplineSet
EndChar

StartChar: Agrave
Encoding: 20 192 20
GlifName: A_grave
Width: 450
VWidth: 0
Flags: W
AnchorPoint: "mark0" 226 451 basechar 0
AnchorPoint: "mark1" 0 0 basechar 0
LayerCount: 2
Back
Fore
SplineSet
136 557 m 257
 181 540 235 522 297 503 c 257
 307 505 l 257
 323 544 l 257
 262 573 211 598 167 623 c 257
 158 621 l 257
 133 566 l 257
 136 557 l 257
438 0 m 257
 290 451 l 257
 169 451 l 257
 6 0 l 257
 106 0 l 257
 119 64 l 257
 132 101 l 257
 215 103 l 257
 310 101 l 257
 322 59 l 257
 334 0 l 257
 438 0 l 257
288 174 m 257
 222 173 l 257
 158 174 l 257
 224 362 l 257
 231 362 l 257
 288 174 l 257
EndSplineSet
EndChar

StartChar: Aogonek
Encoding: 23 260 23
GlifName: A_ogonek
Width: 450
VWidth: 0
Flags: W
AnchorPoint: "mark0" 226 451 basechar 0
AnchorPoint: "mark1" 0 0 basechar 0
LayerCount: 2
Back
Fore
SplineSet
466 -103 m 257
 457 -65 l 257
 451 -65 l 257
 434 -78 417 -85 400 -85 c 256
 383 -85 374 -78 374 -62 c 256
 374 -48 385 -27 406 0 c 257
 438 0 l 257
 290 451 l 257
 169 451 l 257
 6 0 l 257
 106 0 l 257
 119 64 l 257
 132 101 l 257
 215 103 l 257
 310 101 l 257
 322 59 l 257
 334 0 l 257
 357 0 l 257
 329 -33 319 -53 319 -76 c 256
 319 -113 345 -138 386 -138 c 256
 411 -138 438 -126 466 -103 c 257
  PathStart: -2
288 174 m 257
 222 173 l 257
 158 174 l 257
 224 362 l 257
 231 362 l 257
 288 174 l 257
EndSplineSet
EndChar

StartChar: Aringacute
Encoding: 25 506 25
GlifName: A_ringacute
Width: 450
VWidth: 0
Flags: W
LayerCount: 2
Back
Fore
SplineSet
162 558 m 257
 171 554 l 257
 229 563 284 573 339 585 c 257
 343 593 l 257
 328 651 l 257
 319 654 l 257
 266 635 211 616 152 598 c 257
 162 558 l 257
438 0 m 257
 287 435 l 257
 297 447 302 461 302 480 c 256
 302 520 277 544 232 544 c 256
 184 544 158 519 158 477 c 256
 158 460 163 445 171 435 c 257
 6 0 l 257
 106 0 l 257
 119 62 l 257
 132 99 l 257
 215 101 l 257
 310 99 l 257
 322 57 l 257
 334 0 l 257
 438 0 l 257
229 504 m 256
 250 504 261 495 261 477 c 256
 261 459 250 450 230 450 c 256
 210 450 199 459 199 478 c 256
 199 496 209 504 229 504 c 256
  PathStart: -2
287 171 m 257
 222 169 l 257
 158 171 l 257
 224 353 l 257
 231 353 l 257
 287 171 l 257
EndSplineSet
EndChar

StartChar: B
Encoding: 27 66 27
GlifName: B_
Width: 434
VWidth: 0
Flags: W
LayerCount: 2
Back
Fore
SplineSet
313 234 m 257
 361 253 387 290 387 339 c 256
 387 412 329 451 230 451 c 258
 58 451 l 257
 64 134 l 257
 58 0 l 257
 103 -2 148 -4 190 -4 c 256
 337 -4 410 40 410 127 c 256
 410 184 378 220 313 234 c 257
  PathStart: -2
195 383 m 258
 260 383 283 367 283 326 c 256
 283 290 264 267 226 258 c 257
 156 260 l 257
 158 383 l 257
 195 383 l 258
208 64 m 256
 190 64 173 65 156 67 c 257
 154 143 l 257
 154 192 l 257
 238 194 l 257
 283 186 307 165 307 132 c 256
 307 88 271 64 208 64 c 256
  PathStart: -2
EndSplineSet
EndChar

StartChar: BaAA
Encoding: 28 -1 28
GlifName: B_aA_A_
Width: 988
VWidth: 0
Flags: W
LayerCount: 2
Back
Fore
SplineSet
566 361 m 257
 644 366 702 370 740 370 c 256
 828 370 886 330 886 268 c 257
 865 291 835 304 801 304 c 256
 761 304 693 233 693 189 c 256
 693 135 773 66 831 66 c 256
 893 66 971 167 971 243 c 256
 971 311 857 425 789 425 c 258
 503 425 l 258
 438 425 387 440 350 468 c 257
 303 370 l 257
 323 359 353 353 393 353 c 256
 408 353 427 353 448 354 c 257
 484 318 504 262 504 219 c 256
 504 145 456 61 406 61 c 256
 388 61 359 85 359 104 c 256
 359 113 375 127 395 140 c 257
 321 206 l 257
 308 206 281 183 261 146 c 256
 239 105 209 79 183 79 c 256
 156 79 134 103 134 134 c 256
 134 162 154 193 189 219 c 256
 238 255 268 288 268 304 c 256
 268 348 198 425 151 425 c 256
 98 425 30 384 30 353 c 256
 30 333 47 305 79 279 c 257
 109 304 l 257
 103 306 98 310 98 321 c 256
 98 341 133 359 151 359 c 256
 164 359 176 347 176 334 c 256
 176 322 155 294 121 274 c 256
 78 249 55 209 55 170 c 256
 55 104 148 0 213 0 c 256
 245 0 283 23 321 61 c 257
 359 22 411 0 461 0 c 256
 533 0 608 105 608 200 c 256
 608 249 585 299 540 350 c 257
 532 361 l 257
 566 361 l 257
795 140 m 256
 781 140 771 149 771 158 c 256
 771 188 814 231 844 231 c 256
 853 231 863 222 863 206 c 256
 863 194 855 180 839 164 c 256
 823 148 808 140 795 140 c 256
  PathStart: -2
EndSplineSet
EndChar

StartChar: BaAU
Encoding: 29 -1 29
GlifName: B_aA_U_
Width: 958
VWidth: 0
Flags: W
LayerCount: 2
Back
Fore
SplineSet
594 438 m 256
 594 462 574 490 545 510 c 257
 592 519 647 523 710 523 c 256
 787 523 856 481 856 425 c 257
 835 450 808 461 783 461 c 256
 726 461 661 411 661 359 c 256
 661 305 741 231 801 231 c 256
 870 231 941 307 941 383 c 256
 941 483 821 583 710 583 c 258
 443 583 l 258
 382 583 327 597 278 625 c 257
 211 529 l 257
 229 515 265 510 358 510 c 258
 460 510 l 258
 485 510 503 493 503 474 c 256
 503 447 481 425 454 425 c 258
 383 425 l 257
 362 423 339 395 339 376 c 257
 406 376 l 258
 451 376 504 284 504 219 c 256
 504 145 456 61 406 61 c 256
 388 61 359 85 359 104 c 256
 359 113 375 127 395 140 c 257
 321 206 l 257
 308 206 281 183 261 146 c 256
 239 105 209 79 183 79 c 256
 156 79 134 103 134 134 c 256
 134 162 154 193 189 219 c 256
 238 255 268 288 268 304 c 256
 268 348 198 425 151 425 c 256
 98 425 30 384 30 353 c 256
 30 333 47 305 79 279 c 257
 109 304 l 257
 103 306 98 310 98 321 c 256
 98 341 133 359 151 359 c 256
 164 359 176 347 176 334 c 256
 176 322 155 294 121 274 c 256
 78 249 55 209 55 170 c 256
 55 104 148 0 213 0 c 256
 245 0 283 23 321 61 c 257
 359 22 411 0 461 0 c 256
 533 0 608 105 608 200 c 256
 608 256 576 321 512 378 c 257
 561 386 594 408 594 438 c 256
  PathStart: -2
759 298 m 256
 748 298 740 305 740 316 c 256
 740 346 784 389 814 389 c 256
 825 389 831 379 831 370 c 256
 831 355 823 340 806 323 c 256
 789 306 774 298 759 298 c 256
  PathStart: -2
EndSplineSet
EndChar

StartChar: BaE
Encoding: 30 -1 30
GlifName: B_aE_
Width: 625
VWidth: 0
Flags: W
LayerCount: 2
Back
Fore
SplineSet
571 449 m 257
 592 461 608 482 608 504 c 256
 608 548 528 626 479 626 c 256
 442 626 319 601 284 601 c 256
 239 601 200 616 175 644 c 257
 78 571 l 257
 114 544 161 529 218 529 c 256
 258 529 406 559 449 559 c 256
 480 559 504 536 504 510 c 256
 504 484 470 451 425 425 c 256
 424 424 424 424 423 424 c 257
 417 425 411 425 406 425 c 258
 383 425 l 257
 353 389 l 257
 383 384 l 257
 406 376 l 257
 451 376 504 284 504 219 c 256
 504 145 456 61 406 61 c 256
 388 61 359 85 359 104 c 256
 359 113 375 127 395 140 c 257
 321 206 l 257
 308 206 281 183 261 146 c 256
 239 105 209 79 183 79 c 256
 156 79 134 103 134 134 c 256
 134 162 154 193 189 219 c 256
 238 255 268 288 268 304 c 256
 268 348 198 425 151 425 c 256
 98 425 30 384 30 353 c 256
 30 333 47 305 79 279 c 257
 109 304 l 257
 103 306 98 310 98 321 c 256
 98 341 133 359 151 359 c 256
 164 359 176 347 176 334 c 256
 176 322 155 294 121 274 c 256
 78 249 55 209 55 170 c 256
 55 104 148 0 213 0 c 256
 245 0 283 23 321 61 c 257
 359 22 411 0 461 0 c 256
 533 0 608 105 608 200 c 256
 608 264 558 351 479 403 c 257
 571 449 l 257
 571 449 l 257
EndSplineSet
EndChar

StartChar: BaEE
Encoding: 31 -1 31
GlifName: B_aE_E_
Width: 723
VWidth: 0
Flags: W
LayerCount: 2
Back
Fore
SplineSet
479 626 m 256
 442 626 319 601 284 601 c 256
 239 601 200 616 175 644 c 257
 78 571 l 257
 114 544 161 529 218 529 c 256
 258 529 406 559 449 559 c 256
 480 559 504 536 504 510 c 256
 504 484 470 451 425 425 c 256
 424 424 424 424 423 424 c 257
 417 425 411 425 406 425 c 258
 383 425 l 257
 353 389 l 257
 383 384 l 257
 406 376 l 257
 451 376 504 284 504 219 c 256
 504 145 456 61 406 61 c 256
 388 61 359 85 359 104 c 256
 359 113 375 127 395 140 c 257
 321 206 l 257
 308 206 281 183 261 146 c 256
 239 105 209 79 183 79 c 256
 156 79 134 103 134 134 c 256
 134 162 154 193 189 219 c 256
 238 255 268 288 268 304 c 256
 268 348 198 425 151 425 c 256
 98 425 30 384 30 353 c 256
 30 333 47 305 79 279 c 257
 109 304 l 257
 103 306 98 310 98 321 c 256
 98 341 133 359 151 359 c 256
 164 359 176 347 176 334 c 256
 176 322 155 294 121 274 c 256
 78 249 55 209 55 170 c 256
 55 104 148 0 213 0 c 256
 245 0 283 23 321 61 c 257
 359 22 411 0 461 0 c 256
 533 0 608 105 608 200 c 256
 608 264 558 351 479 403 c 257
 571 449 l 258
 593 460 608 482 608 504 c 256
 608 525 595 549 570 575 c 256
 570 576 570 576 570 577 c 256
 570 580 568 582 565 584 c 257
 560 595 l 257
 559 600 559 607 559 614 c 256
 559 646 601 686 638 686 c 256
 652 686 668 677 668 663 c 256
 668 643 655 623 638 614 c 257
 672 594 694 575 704 559 c 257
 731 582 746 603 746 620 c 256
 746 674 661 759 608 759 c 256
 545 759 486 717 486 656 c 256
 486 644 487 634 488 625 c 257
 485 626 482 626 479 626 c 256
  PathStart: -2
EndSplineSet
EndChar

StartChar: BaHalanth
Encoding: 32 -1 32
GlifName: B_aH_alanth
Width: 695
VWidth: 0
Flags: W
LayerCount: 2
Back
Fore
SplineSet
383 425 m 257
 364 425 345 438 345 455 c 256
 345 496 464 499 491 516 c 257
 425 589 l 257
 417 584 401 574 376 571 c 258
 334 565 l 257
 322 565 309 575 309 589 c 256
 309 611 382 644 419 644 c 256
 455 644 560 589 595 589 c 256
 630 589 665 606 698 631 c 257
 613 710 l 257
 593 690 567 680 534 680 c 256
 499 680 386 716 351 716 c 256
 284 716 194 656 194 608 c 256
 194 591 212 573 273 529 c 257
 250 516 218 481 218 468 c 256
 218 426 312 376 383 376 c 258
 406 376 l 258
 451 376 504 284 504 219 c 256
 504 145 456 61 406 61 c 256
 388 61 359 85 359 104 c 256
 359 113 375 127 395 140 c 257
 321 206 l 257
 308 206 281 183 261 146 c 256
 239 105 209 79 183 79 c 256
 156 79 134 103 134 134 c 256
 134 162 154 193 189 219 c 256
 238 255 268 288 268 304 c 256
 268 348 198 425 151 425 c 256
 98 425 30 384 30 353 c 256
 30 333 47 305 79 279 c 257
 109 304 l 257
 103 306 98 310 98 321 c 256
 98 341 133 359 151 359 c 256
 164 359 176 347 176 334 c 256
 176 322 155 294 121 274 c 256
 78 249 55 209 55 170 c 256
 55 104 148 0 213 0 c 256
 245 0 283 23 321 61 c 257
 359 22 411 0 461 0 c 256
 533 0 608 105 608 200 c 256
 608 294 496 425 406 425 c 258
 383 425 l 257
 383 425 l 257
EndSplineSet
EndChar

StartChar: BaI
Encoding: 33 -1 33
GlifName: B_aI_
Width: 691
VWidth: 0
Flags: W
LayerCount: 2
Back
Fore
SplineSet
383 321 m 256
 383 352 424 383 461 383 c 256
 473 383 480 373 480 364 c 256
 480 336 436 304 408 304 c 256
 395 304 383 311 383 321 c 256
  PathStart: -2
334 61 m 257
 363 17 412 -6 468 -6 c 256
 559 -6 674 124 674 219 c 256
 674 316 541 449 444 449 c 256
 369 449 304 406 304 353 c 256
 304 307 385 249 444 249 c 256
 491 249 536 282 565 334 c 257
 579 319 589 295 589 261 c 256
 589 175 488 61 413 61 c 256
 393 61 374 76 359 104 c 257
 368 119 380 131 395 140 c 257
 323 206 l 257
 295 206 268 179 249 140 c 256
 230 103 205 79 183 79 c 256
 156 79 134 101 134 128 c 256
 134 151 159 183 200 213 c 256
 243 244 274 280 274 304 c 256
 274 358 193 431 140 431 c 256
 94 431 30 386 30 346 c 256
 30 325 51 299 79 279 c 257
 115 304 l 257
 106 313 l 257
 105 316 104 319 104 321 c 256
 104 339 133 359 153 359 c 256
 166 359 176 346 176 334 c 256
 176 321 160 300 121 268 c 256
 79 233 55 194 55 170 c 256
 55 101 153 0 219 0 c 256
 260 0 300 23 334 61 c 257
  PathStart: -2
EndSplineSet
EndChar

StartChar: BaII
Encoding: 34 -1 34
GlifName: B_aI_I_
Width: 691
VWidth: 0
Flags: W
LayerCount: 2
Back
Fore
SplineSet
383 321 m 256
 383 352 424 383 461 383 c 256
 473 383 480 373 480 364 c 256
 480 336 436 304 408 304 c 256
 395 304 383 311 383 321 c 256
  PathStart: -2
334 61 m 257
 363 17 412 -6 468 -6 c 256
 559 -6 674 124 674 219 c 256
 674 310 605 398 504 444 c 257
 500 454 l 258
 499 458 498 460 498 461 c 256
 498 483 545 529 571 529 c 256
 582 529 601 516 601 504 c 256
 601 490 585 473 565 461 c 257
 631 406 l 257
 657 422 674 449 674 480 c 256
 674 530 594 601 540 601 c 256
 494 601 425 536 425 491 c 256
 425 477 432 463 444 449 c 257
 369 449 304 406 304 353 c 256
 304 307 385 249 444 249 c 256
 491 249 536 282 565 334 c 257
 579 319 589 295 589 261 c 256
 589 175 488 61 413 61 c 256
 393 61 374 76 359 104 c 257
 368 119 380 131 395 140 c 257
 323 206 l 257
 295 206 268 179 249 140 c 256
 230 103 205 79 183 79 c 256
 156 79 134 101 134 128 c 256
 134 151 159 183 200 213 c 256
 243 244 274 280 274 304 c 256
 274 358 193 431 140 431 c 256
 94 431 30 386 30 346 c 256
 30 325 51 299 79 279 c 257
 115 304 l 257
 106 313 l 257
 105 316 104 319 104 321 c 256
 104 339 133 359 153 359 c 256
 166 359 176 346 176 334 c 256
 176 321 160 300 121 268 c 256
 79 233 55 194 55 170 c 256
 55 101 153 0 219 0 c 256
 260 0 300 23 334 61 c 257
  PathStart: -2
EndSplineSet
EndChar

StartChar: BaO
Encoding: 35 -1 35
GlifName: B_aO_
Width: 995
VWidth: 0
Flags: W
LayerCount: 2
Back
Fore
SplineSet
394 425 m 257
 374 425 358 438 358 455 c 256
 358 476 396 498 430 498 c 256
 488 498 538 481 564 455 c 257
 546 419 l 257
 562 393 598 368 643 353 c 257
 678 434 728 486 770 486 c 256
 822 486 893 426 893 383 c 257
 876 410 847 425 814 425 c 256
 753 425 691 363 691 304 c 256
 691 250 779 183 844 183 c 256
 903 183 978 283 978 359 c 256
 978 448 821 565 704 565 c 256
 665 565 622 535 589 491 c 257
 543 535 487 559 430 559 c 256
 353 559 273 504 273 455 c 256
 273 411 307 376 351 376 c 258
 406 376 l 258
 451 376 504 284 504 219 c 256
 504 145 456 61 406 61 c 256
 388 61 359 85 359 104 c 256
 359 113 375 127 395 140 c 257
 321 206 l 257
 308 206 281 183 261 146 c 256
 239 105 209 79 183 79 c 256
 156 79 134 103 134 134 c 256
 134 162 154 193 189 219 c 256
 238 255 268 288 268 304 c 256
 268 348 198 425 151 425 c 256
 98 425 30 384 30 353 c 256
 30 333 47 305 79 279 c 257
 109 304 l 257
 103 306 98 310 98 321 c 256
 98 341 133 359 151 359 c 256
 164 359 176 347 176 334 c 256
 176 322 155 294 121 274 c 256
 78 249 55 209 55 170 c 256
 55 104 148 0 213 0 c 256
 245 0 283 23 321 61 c 257
 359 22 411 0 461 0 c 256
 533 0 608 105 608 200 c 256
 608 289 498 425 413 425 c 258
 394 425 l 257
795 255 m 256
 783 255 771 267 771 279 c 256
 771 307 815 346 844 346 c 256
 854 346 861 337 861 328 c 256
 861 312 854 296 839 279 c 256
 824 263 809 255 795 255 c 256
  PathStart: -2
EndSplineSet
EndChar

StartChar: BaOO
Encoding: 36 -1 36
GlifName: B_aO_O_
Width: 1015
VWidth: 0
Flags: W
LayerCount: 2
Back
Fore
SplineSet
394 425 m 257
 371 425 351 437 351 449 c 256
 351 471 386 498 424 498 c 256
 482 498 532 481 558 455 c 257
 540 419 l 257
 554 393 592 368 636 353 c 257
 673 434 721 486 764 486 c 256
 817 486 893 427 893 383 c 257
 876 410 847 425 814 425 c 256
 753 425 691 363 691 304 c 256
 691 250 779 183 844 183 c 256
 903 183 978 283 978 359 c 256
 978 389 937 441 861 504 c 257
 853 515 l 258
 850 518 849 521 849 523 c 256
 849 561 896 614 928 614 c 256
 937 614 953 599 953 589 c 256
 953 569 943 547 928 534 c 257
 1001 480 l 257
 1026 501 1038 524 1038 546 c 256
 1038 595 948 680 891 680 c 256
 835 680 776 624 776 571 c 256
 776 560 780 548 789 534 c 257
 752 551 719 559 691 559 c 256
 652 559 613 533 583 491 c 257
 537 535 476 559 413 559 c 256
 345 559 266 507 266 455 c 256
 266 422 312 376 345 376 c 258
 406 376 l 258
 451 376 504 284 504 219 c 256
 504 145 456 61 406 61 c 256
 388 61 359 85 359 104 c 256
 359 113 375 127 395 140 c 257
 321 206 l 257
 308 206 281 183 261 146 c 256
 239 105 209 79 183 79 c 256
 156 79 134 103 134 134 c 256
 134 162 154 193 189 219 c 256
 238 255 268 288 268 304 c 256
 268 348 198 425 151 425 c 256
 98 425 30 384 30 353 c 256
 30 333 47 305 79 279 c 257
 109 304 l 257
 103 306 98 310 98 321 c 256
 98 341 133 359 151 359 c 256
 164 359 176 347 176 334 c 256
 176 322 155 294 121 274 c 256
 78 249 55 209 55 170 c 256
 55 104 148 0 213 0 c 256
 245 0 283 23 321 61 c 257
 359 22 411 0 461 0 c 256
 533 0 608 105 608 200 c 256
 608 294 496 425 406 425 c 258
 394 425 l 257
795 255 m 256
 783 255 771 267 771 279 c 256
 771 307 815 346 844 346 c 256
 854 346 861 337 861 328 c 256
 861 312 854 296 839 279 c 256
 824 263 809 255 795 255 c 256
  PathStart: -2
EndSplineSet
EndChar

StartChar: BaOttu
Encoding: 37 -1 37
GlifName: B_aO_ttu
Width: 171
VWidth: 0
Flags: W
LayerCount: 2
Back
Fore
SplineSet
-67 -319 m 257
 -17 -353 30 -374 70 -374 c 256
 138 -374 194 -315 194 -250 c 256
 194 -218 175 -170 139 -106 c 256
 101 -40 84 1 84 23 c 256
 84 49 102 79 132 105 c 257
 63 146 l 257
 32 119 15 95 15 78 c 256
 15 46 31 0 63 -53 c 256
 100 -116 118 -168 118 -209 c 256
 118 -269 81 -319 36 -319 c 256
 8 -319 -18 -310 -40 -292 c 257
 -19 -278 l 257
 -74 -237 l 257
 -86 -242 -97 -249 -105 -260 c 256
 -125 -287 -123 -333 -148 -333 c 256
 -169 -333 -189 -317 -189 -292 c 256
 -189 -278 -171 -252 -136 -223 c 256
 -97 -191 -88 -179 -88 -168 c 256
 -88 -118 -173 -58 -231 -58 c 256
 -270 -58 -306 -95 -306 -127 c 256
 -306 -142 -282 -161 -224 -189 c 257
 -196 -168 l 257
 -209 -159 -217 -148 -217 -141 c 256
 -217 -125 -202 -113 -189 -113 c 256
 -169 -113 -148 -132 -148 -148 c 256
 -148 -159 -162 -175 -184 -189 c 257
 -248 -242 -272 -273 -272 -292 c 256
 -272 -335 -183 -388 -122 -388 c 256
 -102 -388 -80 -358 -67 -319 c 257
  PathStart: -2
EndSplineSet
EndChar

StartChar: BaU
Encoding: 38 -1 38
GlifName: B_aU_
Width: 962
VWidth: 0
Flags: W
LayerCount: 2
Back
Fore
SplineSet
769 0 m 256
 854 0 945 97 945 194 c 256
 945 214 937 236 921 259 c 256
 892 299 818 338 818 370 c 256
 818 379 827 392 836 401 c 257
 745 444 l 257
 719 430 703 405 703 383 c 256
 703 366 731 338 781 310 c 256
 826 284 854 247 854 219 c 256
 854 149 790 73 726 73 c 256
 683 73 640 99 604 150 c 257
 607 165 608 179 608 194 c 256
 608 215 598 238 581 261 c 256
 555 295 480 340 480 376 c 256
 480 388 484 399 491 406 c 257
 457 412 427 423 401 438 c 257
 379 424 364 404 364 383 c 256
 364 364 394 337 431 316 c 256
 476 290 504 253 504 219 c 256
 504 145 456 61 406 61 c 256
 388 61 359 85 359 104 c 256
 359 113 375 127 395 140 c 257
 321 206 l 257
 308 206 281 183 261 146 c 256
 239 105 209 79 183 79 c 256
 156 79 134 103 134 134 c 256
 134 162 154 193 189 219 c 256
 238 255 268 288 268 304 c 256
 268 348 198 425 151 425 c 256
 98 425 30 384 30 353 c 256
 30 333 47 305 79 279 c 257
 109 304 l 257
 103 306 98 310 98 321 c 256
 98 341 133 359 151 359 c 256
 164 359 176 347 176 334 c 256
 176 322 155 294 121 274 c 256
 78 249 55 209 55 170 c 256
 55 104 148 0 213 0 c 256
 245 0 283 23 321 61 c 257
 359 22 411 0 461 0 c 256
 506 0 541 29 580 88 c 257
 622 33 695 0 769 0 c 256
  PathStart: -2
EndSplineSet
EndChar

StartChar: BaUU
Encoding: 39 -1 39
GlifName: B_aU_U_
Width: 1290
VWidth: 0
Flags: W
LayerCount: 2
Back
Fore
SplineSet
763 0 m 256
 856 0 951 102 951 200 c 256
 951 266 855 298 824 353 c 257
 1043 370 l 258
 1047 370 1052 370 1056 370 c 256
 1135 370 1188 324 1188 268 c 257
 1168 290 1136 304 1103 304 c 256
 1061 304 994 231 994 189 c 256
 994 136 1075 66 1134 66 c 256
 1195 66 1273 168 1273 243 c 256
 1273 311 1159 425 1091 425 c 258
 926 425 l 258
 842 425 775 439 726 468 c 257
 660 370 l 257
 680 359 704 353 733 353 c 257
 778 315 l 258
 828 273 854 246 854 231 c 256
 854 165 783 73 726 73 c 256
 679 73 631 98 602 142 c 257
 606 159 608 176 608 194 c 256
 608 215 598 238 581 261 c 256
 555 295 480 340 480 376 c 256
 480 388 484 399 491 406 c 257
 457 412 427 423 401 438 c 257
 379 424 364 404 364 383 c 256
 364 364 394 337 431 316 c 256
 476 290 504 253 504 219 c 256
 504 145 456 61 406 61 c 256
 388 61 359 85 359 104 c 256
 359 113 375 127 395 140 c 257
 321 206 l 257
 308 206 281 183 261 146 c 256
 239 105 209 79 183 79 c 256
 156 79 134 103 134 134 c 256
 134 162 154 193 189 219 c 256
 238 255 268 288 268 304 c 256
 268 348 198 425 151 425 c 256
 98 425 30 384 30 353 c 256
 30 333 47 305 79 279 c 257
 109 304 l 257
 103 306 98 310 98 321 c 256
 98 341 133 359 151 359 c 256
 164 359 176 347 176 334 c 256
 176 322 155 294 121 274 c 256
 78 249 55 209 55 170 c 256
 55 104 148 0 213 0 c 256
 245 0 283 23 321 61 c 257
 359 22 411 0 461 0 c 256
 506 0 541 29 580 88 c 257
 618 35 690 0 763 0 c 256
  PathStart: -2
1096 140 m 256
 1082 140 1073 148 1073 158 c 256
 1073 187 1115 231 1145 231 c 256
 1155 231 1164 221 1164 206 c 256
 1164 194 1156 180 1140 164 c 256
 1124 148 1109 140 1096 140 c 256
  PathStart: -2
EndSplineSet
EndChar

StartChar: BhaAA
Encoding: 40 -1 40
GlifName: B_haA_A_
Width: 988
VWidth: 0
Flags: W
LayerCount: 2
Back
Fore
SplineSet
566 361 m 257
 644 366 702 370 740 370 c 256
 828 370 886 330 886 268 c 257
 865 291 835 304 801 304 c 256
 761 304 693 233 693 189 c 256
 693 135 773 66 831 66 c 256
 893 66 971 167 971 243 c 256
 971 311 857 425 789 425 c 258
 503 425 l 258
 438 425 387 440 350 468 c 257
 303 370 l 257
 323 359 353 353 393 353 c 256
 408 353 427 353 448 354 c 257
 484 318 504 262 504 219 c 256
 504 145 456 61 406 61 c 256
 388 61 359 85 359 104 c 256
 359 113 375 127 395 140 c 257
 321 206 l 257
 308 206 281 183 261 146 c 256
 239 105 209 79 183 79 c 256
 156 79 134 103 134 134 c 256
 134 162 154 193 189 219 c 256
 238 255 268 288 268 304 c 256
 268 348 198 425 151 425 c 256
 98 425 30 384 30 353 c 256
 30 333 47 305 79 279 c 257
 109 304 l 257
 103 306 98 310 98 321 c 256
 98 341 133 359 151 359 c 256
 164 359 176 347 176 334 c 256
 176 322 155 294 121 274 c 256
 78 249 55 209 55 170 c 256
 55 104 148 0 213 0 c 256
 245 0 283 23 321 61 c 257
 359 22 411 0 461 0 c 256
 533 0 608 105 608 200 c 256
 608 249 585 299 540 350 c 257
 532 361 l 257
 566 361 l 257
316 -189 m 257
 395 -97 l 257
 354 -70 328 -44 328 -25 c 256
 328 -19 334 -11 334 -6 c 256
 334 1 325 5 321 5 c 257
 267 -41 236 -76 236 -97 c 256
 236 -107 243 -120 258 -137 c 256
 272 -153 291 -170 316 -189 c 257
  PathStart: -2
795 140 m 256
 781 140 771 149 771 158 c 256
 771 188 814 231 844 231 c 256
 853 231 863 222 863 206 c 256
 863 194 855 180 839 164 c 256
 823 148 808 140 795 140 c 256
  PathStart: -2
EndSplineSet
EndChar

StartChar: BhaAU
Encoding: 41 -1 41
GlifName: B_haA_U_
Width: 958
VWidth: 0
Flags: W
LayerCount: 2
Back
Fore
SplineSet
317 -193 m 257
 396 -101 l 257
 355 -74 329 -48 329 -29 c 256
 329 -23 335 -15 335 -10 c 256
 335 -3 328 1 322 1 c 257
 268 -45 237 -80 237 -101 c 256
 237 -111 244 -125 258 -142 c 257
 273 -157 292 -174 317 -193 c 257
  PathStart: -2
594 438 m 256
 594 462 574 490 545 510 c 257
 592 519 647 523 710 523 c 256
 787 523 856 481 856 425 c 257
 835 450 808 461 783 461 c 256
 726 461 661 411 661 359 c 256
 661 305 741 231 801 231 c 256
 870 231 941 307 941 383 c 256
 941 483 821 583 710 583 c 258
 443 583 l 258
 382 583 327 597 278 625 c 257
 211 529 l 257
 229 515 265 510 358 510 c 258
 460 510 l 258
 485 510 503 493 503 474 c 256
 503 447 481 425 454 425 c 258
 383 425 l 257
 362 423 339 395 339 376 c 257
 406 376 l 258
 451 376 504 284 504 219 c 256
 504 145 456 61 406 61 c 256
 388 61 359 85 359 104 c 256
 359 113 375 127 395 140 c 257
 321 206 l 257
 308 206 281 183 261 146 c 256
 239 105 209 79 183 79 c 256
 156 79 134 103 134 134 c 256
 134 162 154 193 189 219 c 256
 238 255 268 288 268 304 c 256
 268 348 198 425 151 425 c 256
 98 425 30 384 30 353 c 256
 30 333 47 305 79 279 c 257
 109 304 l 257
 103 306 98 310 98 321 c 256
 98 341 133 359 151 359 c 256
 164 359 176 347 176 334 c 256
 176 322 155 294 121 274 c 256
 78 249 55 209 55 170 c 256
 55 104 148 0 213 0 c 256
 245 0 283 23 321 61 c 257
 359 22 411 0 461 0 c 256
 533 0 608 105 608 200 c 256
 608 256 576 321 512 378 c 257
 561 386 594 408 594 438 c 256
  PathStart: -2
759 298 m 256
 748 298 740 305 740 316 c 256
 740 346 784 389 814 389 c 256
 825 389 831 379 831 370 c 256
 831 355 823 340 806 323 c 256
 789 306 774 298 759 298 c 256
  PathStart: -2
EndSplineSet
EndChar

StartChar: BhaE
Encoding: 42 -1 42
GlifName: B_haE_
Width: 625
VWidth: 0
Flags: W
LayerCount: 2
Back
Fore
SplineSet
317 -193 m 257
 396 -101 l 257
 355 -74 329 -48 329 -29 c 256
 329 -23 335 -15 335 -10 c 256
 335 -3 328 1 322 1 c 257
 268 -45 237 -80 237 -101 c 256
 237 -111 244 -125 258 -142 c 257
 273 -157 292 -174 317 -193 c 257
  PathStart: -2
571 449 m 257
 592 461 608 482 608 504 c 256
 608 548 528 626 479 626 c 256
 442 626 319 601 284 601 c 256
 239 601 200 616 175 644 c 257
 78 571 l 257
 114 544 161 529 218 529 c 256
 258 529 406 559 449 559 c 256
 480 559 504 536 504 510 c 256
 504 484 470 451 425 425 c 256
 424 424 424 424 423 424 c 257
 417 425 411 425 406 425 c 258
 383 425 l 257
 353 389 l 257
 383 384 l 257
 406 376 l 257
 451 376 504 284 504 219 c 256
 504 145 456 61 406 61 c 256
 388 61 359 85 359 104 c 256
 359 113 375 127 395 140 c 257
 321 206 l 257
 308 206 281 183 261 146 c 256
 239 105 209 79 183 79 c 256
 156 79 134 103 134 134 c 256
 134 162 154 193 189 219 c 256
 238 255 268 288 268 304 c 256
 268 348 198 425 151 425 c 256
 98 425 30 384 30 353 c 256
 30 333 47 305 79 279 c 257
 109 304 l 257
 103 306 98 310 98 321 c 256
 98 341 133 359 151 359 c 256
 164 359 176 347 176 334 c 256
 176 322 155 294 121 274 c 256
 78 249 55 209 55 170 c 256
 55 104 148 0 213 0 c 256
 245 0 283 23 321 61 c 257
 359 22 411 0 461 0 c 256
 533 0 608 105 608 200 c 256
 608 264 558 351 479 403 c 257
 571 449 l 257
EndSplineSet
EndChar

StartChar: BhaEE
Encoding: 43 -1 43
GlifName: B_haE_E_
Width: 723
VWidth: 0
Flags: W
LayerCount: 2
Back
Fore
SplineSet
317 -193 m 257
 396 -101 l 257
 355 -74 329 -48 329 -29 c 256
 329 -23 335 -15 335 -10 c 256
 335 -3 328 1 322 1 c 257
 268 -45 237 -80 237 -101 c 256
 237 -111 244 -125 258 -142 c 257
 273 -157 292 -174 317 -193 c 257
  PathStart: -2
479 626 m 256
 442 626 319 601 284 601 c 256
 239 601 200 616 175 644 c 257
 78 571 l 257
 114 544 161 529 218 529 c 256
 258 529 406 559 449 559 c 256
 480 559 504 536 504 510 c 256
 504 484 470 451 425 425 c 256
 424 424 424 424 423 424 c 257
 417 425 411 425 406 425 c 258
 383 425 l 257
 353 389 l 257
 383 384 l 257
 406 376 l 257
 451 376 504 284 504 219 c 256
 504 145 456 61 406 61 c 256
 388 61 359 85 359 104 c 256
 359 113 375 127 395 140 c 257
 321 206 l 257
 308 206 281 183 261 146 c 256
 239 105 209 79 183 79 c 256
 156 79 134 103 134 134 c 256
 134 162 154 193 189 219 c 256
 238 255 268 288 268 304 c 256
 268 348 198 425 151 425 c 256
 98 425 30 384 30 353 c 256
 30 333 47 305 79 279 c 257
 109 304 l 257
 103 306 98 310 98 321 c 256
 98 341 133 359 151 359 c 256
 164 359 176 347 176 334 c 256
 176 322 155 294 121 274 c 256
 78 249 55 209 55 170 c 256
 55 104 148 0 213 0 c 256
 245 0 283 23 321 61 c 257
 359 22 411 0 461 0 c 256
 533 0 608 105 608 200 c 256
 608 264 558 351 479 403 c 257
 571 449 l 258
 593 460 608 482 608 504 c 256
 608 525 595 549 570 575 c 256
 570 576 570 576 570 577 c 256
 570 580 568 582 565 584 c 257
 560 595 l 257
 559 600 559 607 559 614 c 256
 559 646 601 686 638 686 c 256
 652 686 668 677 668 663 c 256
 668 643 655 623 638 614 c 257
 672 594 694 575 704 559 c 257
 731 582 746 603 746 620 c 256
 746 674 661 759 608 759 c 256
 545 759 486 717 486 656 c 256
 486 644 487 634 488 625 c 257
 485 626 482 626 479 626 c 256
  PathStart: -2
EndSplineSet
EndChar

StartChar: BhaHalanth
Encoding: 44 -1 44
GlifName: B_haH_alanth
Width: 695
VWidth: 0
Flags: W
LayerCount: 2
Back
Fore
SplineSet
383 425 m 257
 364 425 345 438 345 455 c 256
 345 496 464 499 491 516 c 257
 425 589 l 257
 417 584 401 574 376 571 c 258
 334 565 l 257
 322 565 309 575 309 589 c 256
 309 611 382 644 419 644 c 256
 455 644 560 589 595 589 c 256
 630 589 665 606 698 631 c 257
 613 710 l 257
 593 690 567 680 534 680 c 256
 499 680 386 716 351 716 c 256
 284 716 194 656 194 608 c 256
 194 591 212 573 273 529 c 257
 250 516 218 481 218 468 c 256
 218 426 312 376 383 376 c 258
 406 376 l 258
 451 376 504 284 504 219 c 256
 504 145 456 61 406 61 c 256
 388 61 359 85 359 104 c 256
 359 113 375 127 395 140 c 257
 321 206 l 257
 308 206 281 183 261 146 c 256
 239 105 209 79 183 79 c 256
 156 79 134 103 134 134 c 256
 134 162 154 193 189 219 c 256
 238 255 268 288 268 304 c 256
 268 348 198 425 151 425 c 256
 98 425 30 384 30 353 c 256
 30 333 47 305 79 279 c 257
 109 304 l 257
 103 306 98 310 98 321 c 256
 98 341 133 359 151 359 c 256
 164 359 176 347 176 334 c 256
 176 322 155 294 121 274 c 256
 78 249 55 209 55 170 c 256
 55 104 148 0 213 0 c 256
 245 0 283 23 321 61 c 257
 359 22 411 0 461 0 c 256
 533 0 608 105 608 200 c 256
 608 294 496 425 406 425 c 258
 383 425 l 257
316 -189 m 257
 395 -97 l 257
 354 -70 328 -44 328 -25 c 256
 328 -19 334 -11 334 -6 c 256
 334 1 325 5 321 5 c 257
 267 -41 236 -76 236 -97 c 256
 236 -107 243 -120 258 -137 c 256
 272 -153 291 -170 316 -189 c 257
  PathStart: -2
EndSplineSet
EndChar

StartChar: BhaI
Encoding: 45 -1 45
GlifName: B_haI_
Width: 691
VWidth: 0
Flags: W
LayerCount: 2
Back
Fore
SplineSet
395 -97 m 257
 354 -70 328 -44 328 -25 c 256
 328 -20 334 -12 334 -6 c 256
 334 -1 328 5 323 5 c 257
 267 -41 238 -76 238 -97 c 256
 238 -119 269 -153 316 -189 c 257
 395 -97 l 257
383 321 m 256
 383 352 424 383 461 383 c 256
 473 383 480 373 480 364 c 256
 480 336 436 304 408 304 c 256
 395 304 383 311 383 321 c 256
  PathStart: -2
334 61 m 257
 363 17 412 -6 468 -6 c 256
 559 -6 674 124 674 219 c 256
 674 316 541 449 444 449 c 256
 369 449 304 406 304 353 c 256
 304 307 385 249 444 249 c 256
 491 249 536 282 565 334 c 257
 579 319 589 295 589 261 c 256
 589 175 488 61 413 61 c 256
 393 61 374 76 359 104 c 257
 368 119 380 131 395 140 c 257
 323 206 l 257
 295 206 268 179 249 140 c 256
 230 103 205 79 183 79 c 256
 156 79 134 101 134 128 c 256
 134 151 159 183 200 213 c 256
 243 244 274 280 274 304 c 256
 274 358 193 431 140 431 c 256
 94 431 30 386 30 346 c 256
 30 325 51 299 79 279 c 257
 115 304 l 257
 106 313 l 257
 105 316 104 319 104 321 c 256
 104 339 133 359 153 359 c 256
 166 359 176 346 176 334 c 256
 176 321 160 300 121 268 c 256
 79 233 55 194 55 170 c 256
 55 101 153 0 219 0 c 256
 260 0 300 23 334 61 c 257
  PathStart: -2
EndSplineSet
EndChar

StartChar: BhaII
Encoding: 46 -1 46
GlifName: B_haI_I_
Width: 691
VWidth: 0
Flags: W
LayerCount: 2
Back
Fore
SplineSet
395 -97 m 257
 354 -70 328 -44 328 -25 c 256
 328 -20 334 -12 334 -6 c 256
 334 -1 328 5 323 5 c 257
 267 -41 238 -76 238 -97 c 256
 238 -119 269 -153 316 -189 c 257
 395 -97 l 257
383 321 m 256
 383 352 424 383 461 383 c 256
 473 383 480 373 480 364 c 256
 480 336 436 304 408 304 c 256
 395 304 383 311 383 321 c 256
  PathStart: -2
334 61 m 257
 363 17 412 -6 468 -6 c 256
 559 -6 674 124 674 219 c 256
 674 310 605 398 504 444 c 257
 500 454 l 258
 499 458 498 460 498 461 c 256
 498 483 545 529 571 529 c 256
 582 529 601 516 601 504 c 256
 601 490 585 473 565 461 c 257
 631 406 l 257
 657 422 674 449 674 480 c 256
 674 530 594 601 540 601 c 256
 494 601 425 536 425 491 c 256
 425 477 432 463 444 449 c 257
 369 449 304 406 304 353 c 256
 304 307 385 249 444 249 c 256
 491 249 536 282 565 334 c 257
 579 319 589 295 589 261 c 256
 589 175 488 61 413 61 c 256
 393 61 374 76 359 104 c 257
 368 119 380 131 395 140 c 257
 323 206 l 257
 295 206 268 179 249 140 c 256
 230 103 205 79 183 79 c 256
 156 79 134 101 134 128 c 256
 134 151 159 183 200 213 c 256
 243 244 274 280 274 304 c 256
 274 358 193 431 140 431 c 256
 94 431 30 386 30 346 c 256
 30 325 51 299 79 279 c 257
 115 304 l 257
 106 313 l 257
 105 316 104 319 104 321 c 256
 104 339 133 359 153 359 c 256
 166 359 176 346 176 334 c 256
 176 321 160 300 121 268 c 256
 79 233 55 194 55 170 c 256
 55 101 153 0 219 0 c 256
 260 0 300 23 334 61 c 257
  PathStart: -2
EndSplineSet
EndChar

StartChar: BhaO
Encoding: 47 -1 47
GlifName: B_haO_
Width: 995
VWidth: 0
Flags: W
LayerCount: 2
Back
Fore
SplineSet
317 -193 m 257
 396 -101 l 257
 355 -74 329 -48 329 -29 c 256
 329 -23 335 -15 335 -10 c 256
 335 -3 328 1 322 1 c 257
 268 -45 237 -80 237 -101 c 256
 237 -111 244 -125 258 -142 c 257
 273 -157 292 -174 317 -193 c 257
  PathStart: -2
394 425 m 257
 374 425 358 438 358 455 c 256
 358 476 396 498 430 498 c 256
 488 498 538 481 564 455 c 257
 546 419 l 257
 562 393 598 368 643 353 c 257
 678 434 728 486 770 486 c 256
 822 486 893 426 893 383 c 257
 876 410 847 425 814 425 c 256
 753 425 691 363 691 304 c 256
 691 250 779 183 844 183 c 256
 903 183 978 283 978 359 c 256
 978 448 821 565 704 565 c 256
 665 565 622 535 589 491 c 257
 543 535 487 559 430 559 c 256
 353 559 273 504 273 455 c 256
 273 411 307 376 351 376 c 258
 406 376 l 258
 451 376 504 284 504 219 c 256
 504 145 456 61 406 61 c 256
 388 61 359 85 359 104 c 256
 359 113 375 127 395 140 c 257
 321 206 l 257
 308 206 281 183 261 146 c 256
 239 105 209 79 183 79 c 256
 156 79 134 103 134 134 c 256
 134 162 154 193 189 219 c 256
 238 255 268 288 268 304 c 256
 268 348 198 425 151 425 c 256
 98 425 30 384 30 353 c 256
 30 333 47 305 79 279 c 257
 109 304 l 257
 103 306 98 310 98 321 c 256
 98 341 133 359 151 359 c 256
 164 359 176 347 176 334 c 256
 176 322 155 294 121 274 c 256
 78 249 55 209 55 170 c 256
 55 104 148 0 213 0 c 256
 245 0 283 23 321 61 c 257
 359 22 411 0 461 0 c 256
 533 0 608 105 608 200 c 256
 608 289 498 425 413 425 c 258
 394 425 l 257
795 255 m 256
 783 255 771 267 771 279 c 256
 771 307 815 346 844 346 c 256
 854 346 861 337 861 328 c 256
 861 312 854 296 839 279 c 256
 824 263 809 255 795 255 c 256
  PathStart: -2
EndSplineSet
EndChar

StartChar: BhaOO
Encoding: 48 -1 48
GlifName: B_haO_O_
Width: 1015
VWidth: 0
Flags: W
LayerCount: 2
Back
Fore
SplineSet
317 -193 m 257
 396 -101 l 257
 355 -74 329 -48 329 -29 c 256
 329 -23 335 -15 335 -10 c 256
 335 -3 328 1 322 1 c 257
 268 -45 237 -80 237 -101 c 256
 237 -111 244 -125 258 -142 c 257
 273 -157 292 -174 317 -193 c 257
  PathStart: -2
394 425 m 257
 371 425 351 437 351 449 c 256
 351 471 386 498 424 498 c 256
 482 498 532 481 558 455 c 257
 540 419 l 257
 554 393 592 368 636 353 c 257
 673 434 721 486 764 486 c 256
 817 486 893 427 893 383 c 257
 876 410 847 425 814 425 c 256
 753 425 691 363 691 304 c 256
 691 250 779 183 844 183 c 256
 903 183 978 283 978 359 c 256
 978 389 937 441 861 504 c 257
 853 515 l 258
 850 518 849 521 849 523 c 256
 849 561 896 614 928 614 c 256
 937 614 953 599 953 589 c 256
 953 569 943 547 928 534 c 257
 1001 480 l 257
 1026 501 1038 524 1038 546 c 256
 1038 595 948 680 891 680 c 256
 835 680 776 624 776 571 c 256
 776 560 780 548 789 534 c 257
 752 551 719 559 691 559 c 256
 652 559 613 533 583 491 c 257
 537 535 476 559 413 559 c 256
 345 559 266 507 266 455 c 256
 266 422 312 376 345 376 c 258
 406 376 l 258
 451 376 504 284 504 219 c 256
 504 145 456 61 406 61 c 256
 388 61 359 85 359 104 c 256
 359 113 375 127 395 140 c 257
 321 206 l 257
 308 206 281 183 261 146 c 256
 239 105 209 79 183 79 c 256
 156 79 134 103 134 134 c 256
 134 162 154 193 189 219 c 256
 238 255 268 288 268 304 c 256
 268 348 198 425 151 425 c 256
 98 425 30 384 30 353 c 256
 30 333 47 305 79 279 c 257
 109 304 l 257
 103 306 98 310 98 321 c 256
 98 341 133 359 151 359 c 256
 164 359 176 347 176 334 c 256
 176 322 155 294 121 274 c 256
 78 249 55 209 55 170 c 256
 55 104 148 0 213 0 c 256
 245 0 283 23 321 61 c 257
 359 22 411 0 461 0 c 256
 533 0 608 105 608 200 c 256
 608 294 496 425 406 425 c 258
 394 425 l 257
795 255 m 256
 783 255 771 267 771 279 c 256
 771 307 815 346 844 346 c 256
 854 346 861 337 861 328 c 256
 861 312 854 296 839 279 c 256
 824 263 809 255 795 255 c 256
  PathStart: -2
EndSplineSet
EndChar

StartChar: BhaOttu
Encoding: 49 -1 49
GlifName: B_haO_ttu
Width: 171
VWidth: 0
Flags: W
LayerCount: 2
Back
Fore
SplineSet
8 -469 m 257
 -3 -467 -12 -456 -12 -448 c 257
 -5 -400 l 257
 -5 -374 -32 -351 -67 -345 c 257
 -67 -364 -88 -417 -88 -436 c 256
 -88 -462 -66 -483 -40 -483 c 256
 -28 -483 -12 -478 8 -469 c 257
  PathStart: -2
-67 -319 m 257
 -17 -353 30 -374 70 -374 c 256
 138 -374 194 -315 194 -250 c 256
 194 -218 175 -170 139 -106 c 256
 101 -40 84 1 84 23 c 256
 84 49 102 79 132 105 c 257
 63 146 l 257
 32 119 15 95 15 78 c 256
 15 46 31 0 63 -53 c 256
 100 -116 118 -168 118 -209 c 256
 118 -269 81 -319 36 -319 c 256
 8 -319 -18 -310 -40 -292 c 257
 -19 -278 l 257
 -74 -237 l 257
 -86 -242 -97 -249 -105 -260 c 256
 -125 -287 -123 -333 -148 -333 c 256
 -169 -333 -189 -317 -189 -292 c 256
 -189 -278 -171 -252 -136 -223 c 256
 -97 -191 -88 -179 -88 -168 c 256
 -88 -118 -173 -58 -231 -58 c 256
 -270 -58 -306 -95 -306 -127 c 256
 -306 -142 -282 -161 -224 -189 c 257
 -196 -168 l 257
 -209 -159 -217 -148 -217 -141 c 256
 -217 -125 -202 -113 -189 -113 c 256
 -169 -113 -148 -132 -148 -148 c 256
 -148 -159 -162 -175 -184 -189 c 257
 -248 -242 -272 -273 -272 -292 c 256
 -272 -335 -183 -388 -122 -388 c 256
 -102 -388 -80 -358 -67 -319 c 257
  PathStart: -2
EndSplineSet
EndChar

StartChar: BhaU
Encoding: 50 -1 50
GlifName: B_haU_
Width: 967
VWidth: 0
Flags: W
LayerCount: 2
Back
Fore
SplineSet
609 197 m 256
 609 279 519 403 432 420 c 257
 460 438 l 258
 498 462 546 477 599 486 c 256
 676 499 732 522 757 558 c 257
 636 637 l 257
 604 583 548 545 484 534 c 256
 379 516 296 472 252 413 c 257
 374 358 l 257
 377 363 380 369 384 374 c 257
 408 374 l 258
 451 374 505 284 505 216 c 256
 505 142 456 58 408 58 c 256
 388 58 360 82 360 101 c 256
 360 110 376 124 396 137 c 257
 322 203 l 257
 308 203 283 180 262 143 c 256
 239 103 209 75 183 75 c 256
 157 75 134 100 134 131 c 256
 134 159 154 190 189 216 c 256
 239 253 268 282 268 301 c 256
 268 346 198 423 152 423 c 256
 102 423 30 385 30 350 c 256
 30 330 47 302 79 276 c 257
 109 301 l 257
 103 303 98 306 98 319 c 256
 98 337 130 356 152 356 c 256
 165 356 177 344 177 331 c 256
 177 317 155 295 122 271 c 257
 79 249 55 206 55 167 c 256
 55 100 148 -4 213 -4 c 256
 245 -4 284 20 322 58 c 257
 360 20 412 -4 463 -4 c 256
 507 -4 549 28 583 91 c 257
 623 33 699 0 774 0 c 256
 859 0 950 97 950 194 c 256
 950 214 942 236 926 259 c 256
 897 299 823 338 823 370 c 256
 823 379 832 392 841 401 c 257
 750 444 l 257
 724 430 708 405 708 383 c 256
 708 366 736 338 786 310 c 256
 831 284 859 247 859 219 c 256
 859 149 795 73 731 73 c 256
 686 73 642 102 605 155 c 257
 608 169 609 183 609 197 c 256
  PathStart: -2
317 -193 m 257
 396 -101 l 257
 355 -74 329 -48 329 -29 c 256
 329 -23 335 -15 335 -10 c 256
 335 -3 328 1 322 1 c 257
 268 -45 237 -80 237 -101 c 256
 237 -111 244 -125 258 -142 c 257
 273 -157 292 -174 317 -193 c 257
  PathStart: -2
EndSplineSet
EndChar

StartChar: BhaUU
Encoding: 51 -1 51
GlifName: B_haU_U_
Width: 1295
VWidth: 0
Flags: W
LayerCount: 2
Back
Fore
SplineSet
609 197 m 256
 609 279 519 403 432 420 c 257
 460 438 l 258
 498 462 546 477 599 486 c 256
 676 499 732 522 757 558 c 257
 636 637 l 257
 604 583 548 545 484 534 c 256
 379 516 296 472 252 413 c 257
 374 358 l 257
 377 363 380 369 384 374 c 257
 408 374 l 258
 451 374 505 284 505 216 c 256
 505 142 456 58 408 58 c 256
 388 58 360 82 360 101 c 256
 360 110 376 124 396 137 c 257
 322 203 l 257
 308 203 283 180 262 143 c 256
 239 103 209 75 183 75 c 256
 157 75 134 100 134 131 c 256
 134 159 154 190 189 216 c 256
 239 253 268 282 268 301 c 256
 268 346 198 423 152 423 c 256
 102 423 30 385 30 350 c 256
 30 330 47 302 79 276 c 257
 109 301 l 257
 103 303 98 306 98 319 c 256
 98 337 130 356 152 356 c 256
 165 356 177 344 177 331 c 256
 177 317 155 295 122 271 c 257
 79 249 55 206 55 167 c 256
 55 100 148 -4 213 -4 c 256
 245 -4 284 20 322 58 c 257
 360 20 412 -4 463 -4 c 256
 507 -4 549 28 583 91 c 257
 622 35 694 0 768 0 c 256
 861 0 956 102 956 200 c 256
 956 266 860 298 829 353 c 257
 1048 370 l 258
 1052 370 1057 370 1061 370 c 256
 1140 370 1193 324 1193 268 c 257
 1173 290 1141 304 1108 304 c 256
 1066 304 999 231 999 189 c 256
 999 136 1080 66 1139 66 c 256
 1200 66 1278 168 1278 243 c 256
 1278 311 1164 425 1096 425 c 258
 931 425 l 258
 847 425 780 439 731 468 c 257
 665 370 l 257
 685 359 709 353 738 353 c 257
 783 315 l 258
 833 273 859 246 859 231 c 256
 859 165 788 73 731 73 c 256
 683 73 632 101 603 146 c 257
 607 163 609 180 609 197 c 256
  PathStart: -2
317 -193 m 257
 396 -101 l 257
 355 -74 329 -48 329 -29 c 256
 329 -23 335 -15 335 -10 c 256
 335 -3 328 1 322 1 c 257
 268 -45 237 -80 237 -101 c 256
 237 -111 244 -125 258 -142 c 257
 273 -157 292 -174 317 -193 c 257
  PathStart: -2
1101 140 m 256
 1087 140 1078 148 1078 158 c 256
 1078 187 1120 231 1150 231 c 256
 1160 231 1169 221 1169 206 c 256
 1169 194 1161 180 1145 164 c 256
 1129 148 1114 140 1101 140 c 256
  PathStart: -2
EndSplineSet
EndChar

StartChar: C
Encoding: 52 67 52
GlifName: C_
Width: 388
VWidth: 0
Flags: W
AnchorPoint: "mark0" 236 451 basechar 0
AnchorPoint: "mark1" 235 0 basechar 0
LayerCount: 2
Back
Fore
SplineSet
379 429 m 257
 341 447 299 456 252 456 c 256
 105 456 21 370 21 221 c 256
 21 75 98 -6 242 -6 c 256
 284 -6 324 2 362 18 c 257
 370 99 l 257
 361 104 l 257
 328 83 290 73 250 73 c 256
 169 73 128 126 128 232 c 256
 128 329 168 378 247 378 c 256
 286 378 321 367 352 346 c 257
 361 350 l 257
 379 429 l 257
EndSplineSet
EndChar

StartChar: C.ss01
Encoding: 53 -1 53
GlifName: C_.ss01
Width: 340
VWidth: 0
Flags: W
AnchorPoint: "mark0" 201 346 basechar 0
AnchorPoint: "mark1" 200 7 basechar 0
LayerCount: 2
Back
Fore
SplineSet
212 283 m 256
 244 283 272 275 295 259 c 257
 304 262 l 257
 316 319 l 257
 415 319 l 257
 415 353 l 257
 -75 353 l 257
 -75 319 l 257
 96 319 l 257
 52 289 29 241 29 174 c 256
 29 110 49 63 89 34 c 257
 -75 34 l 257
 -75 0 l 257
 415 0 l 257
 415 34 l 257
 305 34 l 257
 311 88 l 257
 303 92 l 257
 275 78 247 71 217 71 c 256
 155 71 124 108 124 183 c 256
 124 252 153 283 212 283 c 256
  PathStart: -2
EndSplineSet
EndChar

StartChar: CaAA
Encoding: 55 -1 55
GlifName: C_aA_A_
Width: 1082
VWidth: 0
Flags: W
LayerCount: 2
Back
Fore
SplineSet
597 364 m 257
 703 371 784 375 840 375 c 256
 926 375 980 335 980 273 c 257
 959 296 930 309 902 309 c 256
 858 309 785 237 785 194 c 256
 785 144 865 71 925 71 c 256
 987 71 1065 172 1065 248 c 256
 1065 316 951 430 883 430 c 258
 367 430 l 258
 308 430 254 444 205 473 c 257
 145 375 l 257
 180 355 219 345 260 345 c 256
 317 345 398 349 504 357 c 257
 574 318 613 263 613 219 c 256
 613 150 561 73 510 73 c 256
 487 73 467 86 461 104 c 257
 466 117 479 132 498 140 c 257
 425 206 l 257
 371 206 349 73 285 73 c 256
 262 73 249 87 249 104 c 256
 249 138 284 179 340 213 c 257
 291 268 l 257
 273 255 253 249 230 249 c 256
 200 249 103 279 73 279 c 256
 44 279 19 266 0 243 c 257
 60 183 l 257
 79 198 99 206 115 206 c 256
 127 206 157 194 170 194 c 258
 194 194 l 257
 165 167 145 134 145 109 c 256
 145 58 250 0 340 0 c 256
 365 0 395 21 425 55 c 257
 466 22 516 0 564 0 c 256
 635 0 723 122 723 206 c 256
 723 249 689 297 619 348 c 258
 597 364 l 257
900 140 m 256
 886 140 876 149 876 158 c 256
 876 188 919 231 949 231 c 256
 959 231 966 219 966 206 c 256
 966 194 958 180 943 164 c 256
 927 148 913 140 900 140 c 256
  PathStart: -2
EndSplineSet
EndChar

StartChar: CaAU
Encoding: 56 -1 56
GlifName: C_aA_U_
Width: 1067
VWidth: 0
Flags: W
LayerCount: 2
Back
Fore
SplineSet
643 438 m 256
 643 462 623 490 594 510 c 257
 641 519 717 523 820 523 c 256
 896 523 965 480 965 425 c 257
 946 448 918 461 893 461 c 256
 836 461 771 411 771 359 c 256
 771 305 851 231 911 231 c 256
 978 231 1050 308 1050 383 c 256
 1050 483 930 583 820 583 c 258
 443 583 l 258
 382 583 327 597 278 625 c 257
 211 529 l 257
 229 515 265 510 358 510 c 258
 509 510 l 258
 530 510 551 496 551 474 c 256
 551 447 530 425 503 425 c 258
 339 425 l 258
 317 425 290 398 290 376 c 257
 431 376 l 258
 509 376 613 287 613 219 c 256
 613 150 561 73 510 73 c 256
 487 73 467 86 461 104 c 257
 466 117 479 132 498 140 c 257
 425 206 l 257
 371 206 349 73 285 73 c 256
 262 73 249 87 249 104 c 256
 249 138 284 179 340 213 c 257
 291 268 l 257
 273 255 253 249 230 249 c 256
 200 249 103 279 73 279 c 256
 44 279 19 266 0 243 c 257
 60 183 l 257
 79 198 99 206 115 206 c 256
 127 206 157 194 170 194 c 258
 194 194 l 257
 165 167 145 134 145 109 c 256
 145 58 250 0 340 0 c 256
 365 0 395 21 425 55 c 257
 466 22 516 0 564 0 c 256
 635 0 723 122 723 206 c 256
 723 255 671 320 572 380 c 257
 617 389 643 414 643 438 c 256
  PathStart: -2
869 298 m 256
 858 298 850 305 850 316 c 256
 850 346 893 389 923 389 c 256
 933 389 941 380 941 370 c 256
 941 355 933 340 916 323 c 256
 899 306 884 298 869 298 c 256
  PathStart: -2
EndSplineSet
EndChar

StartChar: CaE
Encoding: 57 -1 57
GlifName: C_aE_
Width: 740
VWidth: 0
Flags: W
LayerCount: 2
Back
Fore
SplineSet
681 504 m 256
 681 548 599 614 554 614 c 256
 516 614 389 589 351 589 c 256
 317 589 283 605 255 631 c 257
 151 565 l 257
 186 535 227 516 260 516 c 256
 308 516 470 546 518 546 c 256
 541 546 554 523 554 498 c 256
 554 458 510 425 455 425 c 258
 299 425 l 258
 286 425 275 413 275 401 c 256
 275 389 286 376 299 376 c 258
 431 376 l 258
 509 376 613 287 613 219 c 256
 613 150 561 73 510 73 c 256
 487 73 467 86 461 104 c 257
 466 117 479 132 498 140 c 257
 425 206 l 257
 371 206 349 73 285 73 c 256
 262 73 249 87 249 104 c 256
 249 138 284 179 340 213 c 257
 291 268 l 257
 273 255 253 249 230 249 c 256
 200 249 103 279 73 279 c 256
 44 279 19 266 0 243 c 257
 60 183 l 257
 79 198 99 206 115 206 c 256
 127 206 157 194 170 194 c 258
 194 194 l 257
 165 167 145 134 145 109 c 256
 145 58 250 0 340 0 c 256
 365 0 395 21 425 55 c 257
 466 22 516 0 564 0 c 256
 635 0 723 122 723 206 c 256
 723 258 667 324 560 386 c 257
 638 410 681 454 681 504 c 256
  PathStart: -2
EndSplineSet
EndChar

StartChar: CaEE
Encoding: 58 -1 58
GlifName: C_aE_E_
Width: 742
VWidth: 0
Flags: W
LayerCount: 2
Back
Fore
SplineSet
675 504 m 256
 675 527 653 556 614 583 c 257
 608 608 l 257
 608 636 658 686 686 686 c 256
 698 686 718 675 718 661 c 256
 718 647 706 631 686 619 c 257
 754 565 l 257
 774 578 790 599 790 625 c 256
 790 684 707 765 656 765 c 256
 610 765 535 705 535 656 c 256
 535 646 539 632 548 614 c 257
 514 614 399 589 364 589 c 256
 330 589 296 605 268 631 c 257
 164 565 l 257
 202 532 241 516 273 516 c 256
 317 516 466 546 511 546 c 256
 533 546 548 524 548 498 c 256
 548 458 489 425 420 425 c 258
 289 425 l 258
 273 425 264 414 264 398 c 256
 264 388 274 376 286 376 c 258
 431 376 l 258
 509 376 613 287 613 219 c 256
 613 150 561 73 510 73 c 256
 487 73 467 86 461 104 c 257
 466 117 479 132 498 140 c 257
 425 206 l 257
 371 206 349 73 285 73 c 256
 262 73 249 87 249 104 c 256
 249 138 284 179 340 213 c 257
 291 268 l 257
 273 255 253 249 230 249 c 256
 200 249 103 279 73 279 c 256
 44 279 19 266 0 243 c 257
 60 183 l 257
 79 198 99 206 115 206 c 256
 127 206 157 194 170 194 c 258
 194 194 l 257
 165 167 145 134 145 109 c 256
 145 58 250 0 340 0 c 256
 365 0 395 21 425 55 c 257
 466 22 516 0 564 0 c 256
 635 0 723 122 723 206 c 256
 723 255 659 339 547 393 c 257
 631 419 675 459 675 504 c 256
  PathStart: -2
EndSplineSet
EndChar

StartChar: CaHalanth
Encoding: 59 -1 59
GlifName: C_aH_alanth
Width: 770
VWidth: 0
Flags: W
LayerCount: 2
Back
Fore
SplineSet
461 376 m 257
 539 376 643 287 643 219 c 256
 643 150 591 73 540 73 c 256
 517 73 497 86 491 104 c 257
 496 117 509 132 528 140 c 257
 455 206 l 257
 401 206 379 73 315 73 c 256
 292 73 279 87 279 104 c 256
 279 138 314 179 370 213 c 257
 321 268 l 257
 303 255 283 249 260 249 c 256
 230 249 133 279 103 279 c 256
 74 279 49 266 30 243 c 257
 90 183 l 257
 109 198 129 206 145 206 c 256
 157 206 187 194 200 194 c 258
 224 194 l 257
 195 167 175 134 175 109 c 256
 175 58 280 0 370 0 c 256
 395 0 425 21 455 55 c 257
 496 22 546 0 594 0 c 256
 665 0 753 122 753 206 c 256
 753 291 568 425 461 425 c 258
 436 425 l 258
 416 425 399 439 399 455 c 256
 399 497 518 499 545 516 c 257
 479 589 l 257
 471 584 455 574 430 571 c 258
 388 565 l 257
 376 565 363 575 363 589 c 256
 363 612 437 644 473 644 c 256
 509 644 614 589 649 589 c 256
 684 589 717 605 751 631 c 257
 666 710 l 257
 649 691 620 680 588 680 c 256
 553 680 440 716 405 716 c 256
 338 716 248 656 248 608 c 256
 248 591 266 573 326 529 c 257
 306 517 271 481 271 468 c 256
 271 429 360 376 430 376 c 258
 461 376 l 257
 461 376 l 257
EndSplineSet
EndChar

StartChar: CaI
Encoding: 60 -1 60
GlifName: C_aI_
Width: 770
VWidth: 0
Flags: W
LayerCount: 2
Back
Fore
SplineSet
304 364 m 256
 304 391 350 419 376 419 c 256
 386 419 394 411 394 401 c 256
 394 375 356 340 328 340 c 256
 316 340 304 351 304 364 c 256
  PathStart: -2
436 55 m 257
 478 21 527 0 576 0 c 256
 655 0 753 123 753 213 c 256
 753 265 707 324 614 389 c 256
 522 454 439 486 364 486 c 256
 303 486 224 425 224 376 c 256
 224 339 314 279 364 279 c 256
 411 279 485 345 485 395 c 257
 582 361 649 295 649 231 c 256
 649 161 574 66 516 66 c 256
 492 66 468 81 468 104 c 256
 468 113 484 127 504 140 c 257
 443 206 l 257
 381 206 351 73 285 73 c 256
 264 73 249 88 249 109 c 256
 249 139 290 176 351 213 c 257
 298 268 l 257
 281 255 260 249 236 249 c 256
 207 249 119 279 91 279 c 256
 54 279 20 267 0 243 c 257
 66 176 l 257
 80 191 103 200 134 200 c 257
 181 194 l 257
 200 194 l 257
 164 169 139 136 139 109 c 256
 139 61 258 0 346 0 c 256
 371 0 400 19 436 55 c 257
  PathStart: -2
EndSplineSet
EndChar

StartChar: CaII
Encoding: 61 -1 61
GlifName: C_aI_I_
Width: 770
VWidth: 0
Flags: W
LayerCount: 2
Back
Fore
SplineSet
304 364 m 256
 304 391 350 419 376 419 c 256
 386 419 394 411 394 401 c 256
 394 375 356 340 328 340 c 256
 316 340 304 351 304 364 c 256
  PathStart: -2
436 55 m 257
 478 21 527 0 576 0 c 256
 655 0 753 123 753 213 c 256
 753 302 621 411 431 480 c 257
 425 504 l 257
 425 530 477 576 504 576 c 256
 518 576 534 563 534 553 c 256
 534 536 521 519 504 510 c 257
 564 449 l 257
 587 470 601 493 601 516 c 256
 601 564 514 644 461 644 c 256
 413 644 346 585 346 540 c 256
 346 522 357 501 370 486 c 257
 305 486 224 424 224 376 c 256
 224 339 314 279 364 279 c 256
 410 279 479 344 479 389 c 257
 578 361 649 296 649 231 c 256
 649 161 574 66 516 66 c 256
 492 66 468 81 468 104 c 256
 468 113 484 127 504 140 c 257
 443 206 l 257
 381 206 351 73 285 73 c 256
 264 73 249 88 249 109 c 256
 249 139 290 176 351 213 c 257
 298 268 l 257
 281 255 260 249 236 249 c 256
 207 249 119 279 91 279 c 256
 54 279 20 267 0 243 c 257
 66 176 l 257
 80 191 103 200 134 200 c 257
 181 194 l 257
 200 194 l 257
 164 169 139 136 139 109 c 256
 139 61 258 0 346 0 c 256
 371 0 400 19 436 55 c 257
  PathStart: -2
EndSplineSet
EndChar

StartChar: CaNuktaAA
Encoding: 62 -1 62
GlifName: C_aN_uktaA_A_
Width: 1092
VWidth: 0
Flags: W
LayerCount: 2
Back
Fore
SplineSet
454 555 m 256
 535 555 616 614 616 666 c 256
 616 713 529 775 462 775 c 256
 412 775 366 743 366 702 c 256
 366 686 397 663 433 651 c 257
 454 666 l 257
 447 669 440 677 440 687 c 256
 440 709 469 723 499 723 c 256
 522 723 536 713 536 702 c 256
 536 657 466 620 389 620 c 256
 343 620 199 666 153 666 c 256
 98 666 47 647 14 607 c 257
 88 563 l 257
 118 587 160 599 212 599 c 256
 257 599 409 555 454 555 c 256
  PathStart: -2
607 364 m 257
 713 371 794 375 850 375 c 256
 936 375 990 335 990 273 c 257
 969 296 940 309 912 309 c 256
 868 309 795 237 795 194 c 256
 795 144 875 71 935 71 c 256
 997 71 1075 172 1075 248 c 256
 1075 316 961 430 893 430 c 258
 377 430 l 258
 318 430 264 444 215 473 c 257
 155 375 l 257
 190 355 229 345 270 345 c 256
 327 345 408 349 514 357 c 257
 584 318 623 263 623 219 c 256
 623 150 571 73 520 73 c 256
 497 73 477 86 471 104 c 257
 476 117 489 132 508 140 c 257
 435 206 l 257
 381 206 359 73 295 73 c 256
 272 73 259 87 259 104 c 256
 259 138 294 179 350 213 c 257
 301 268 l 257
 283 255 263 249 240 249 c 256
 210 249 113 279 83 279 c 256
 54 279 29 266 10 243 c 257
 70 183 l 257
 89 198 109 206 125 206 c 256
 137 206 167 194 180 194 c 258
 204 194 l 257
 175 167 155 134 155 109 c 256
 155 58 260 0 350 0 c 256
 375 0 405 21 435 55 c 257
 476 22 526 0 574 0 c 256
 645 0 733 122 733 206 c 256
 733 249 699 297 629 348 c 258
 607 364 l 257
910 140 m 256
 896 140 886 149 886 158 c 256
 886 188 929 231 959 231 c 256
 969 231 976 219 976 206 c 256
 976 194 968 180 953 164 c 256
 937 148 923 140 910 140 c 256
  PathStart: -2
EndSplineSet
EndChar

StartChar: CaNuktaAU
Encoding: 63 -1 63
GlifName: C_aN_uktaA_U_
Width: 1067
VWidth: 0
Flags: W
LayerCount: 2
Back
Fore
SplineSet
454 615 m 256
 535 615 616 674 616 726 c 256
 616 773 529 835 462 835 c 256
 412 835 366 803 366 762 c 256
 366 746 397 723 433 711 c 257
 454 726 l 257
 447 729 440 737 440 747 c 256
 440 769 469 783 499 783 c 256
 522 783 536 773 536 762 c 256
 536 717 466 680 389 680 c 256
 343 680 199 726 153 726 c 256
 98 726 47 707 14 667 c 257
 88 623 l 257
 118 647 160 659 212 659 c 256
 257 659 409 615 454 615 c 256
  PathStart: -2
643 438 m 256
 643 462 623 490 594 510 c 257
 641 519 717 523 820 523 c 256
 896 523 965 480 965 425 c 257
 946 448 918 461 893 461 c 256
 836 461 771 411 771 359 c 256
 771 305 851 231 911 231 c 256
 978 231 1050 308 1050 383 c 256
 1050 483 930 583 820 583 c 258
 443 583 l 258
 382 583 327 597 278 625 c 257
 211 529 l 257
 229 515 265 510 358 510 c 258
 509 510 l 258
 530 510 551 496 551 474 c 256
 551 447 530 425 503 425 c 258
 339 425 l 258
 317 425 290 398 290 376 c 257
 431 376 l 258
 509 376 613 287 613 219 c 256
 613 150 561 73 510 73 c 256
 487 73 467 86 461 104 c 257
 466 117 479 132 498 140 c 257
 425 206 l 257
 371 206 349 73 285 73 c 256
 262 73 249 87 249 104 c 256
 249 138 284 179 340 213 c 257
 291 268 l 257
 273 255 253 249 230 249 c 256
 200 249 103 279 73 279 c 256
 44 279 19 266 0 243 c 257
 60 183 l 257
 79 198 99 206 115 206 c 256
 127 206 157 194 170 194 c 258
 194 194 l 257
 165 167 145 134 145 109 c 256
 145 58 250 0 340 0 c 256
 365 0 395 21 425 55 c 257
 466 22 516 0 564 0 c 256
 635 0 723 122 723 206 c 256
 723 255 671 320 572 380 c 257
 617 389 643 414 643 438 c 256
  PathStart: -2
869 298 m 256
 858 298 850 305 850 316 c 256
 850 346 893 389 923 389 c 256
 933 389 941 380 941 370 c 256
 941 355 933 340 916 323 c 256
 899 306 884 298 869 298 c 256
  PathStart: -2
EndSplineSet
EndChar

StartChar: CaNuktaHalanth
Encoding: 64 -1 64
GlifName: C_aN_uktaH_alanth
Width: 751
VWidth: 0
Flags: W
LayerCount: 2
Back
Fore
SplineSet
393 516 m 257
 370 516 359 525 359 543 c 256
 359 560 372 572 394 572 c 258
 532 572 l 258
 546 572 559 588 559 607 c 256
 559 625 546 637 532 637 c 258
 405 637 l 258
 385 637 368 647 368 669 c 256
 368 684 381 695 403 695 c 258
 684 695 l 258
 715 695 732 716 732 748 c 256
 732 778 715 792 684 792 c 258
 393 792 l 258
 333 792 279 741 279 690 c 256
 279 651 298 605 321 599 c 257
 298 583 288 566 288 543 c 256
 288 486 334 455 409 455 c 258
 490 455 l 258
 596 455 672 380 672 285 c 256
 672 194 614 133 538 133 c 256
 434 133 457 238 427 238 c 256
 415 238 409 226 409 209 c 256
 409 166 358 132 299 132 c 256
 233 132 189 165 189 209 c 256
 189 313 329 250 329 322 c 256
 329 341 312 358 282 358 c 258
 80 358 l 258
 43 358 30 343 30 314 c 256
 30 283 43 273 77 273 c 258
 160 273 l 257
 133 246 113 199 113 159 c 256
 113 66 186 0 286 0 c 256
 344 0 386 22 421 68 c 257
 449 25 502 0 553 0 c 256
 653 0 734 96 734 229 c 256
 734 422 647 516 488 516 c 258
 393 516 l 257
488 -106 m 256
 488 -76 466 -39 429 0 c 257
 421 15 l 257
 370 -41 353 -72 353 -108 c 256
 353 -149 381 -170 421 -170 c 256
 442 -170 460 -164 471 -152 c 256
 483 -139 488 -124 488 -106 c 256
  PathStart: -2
560 930 m 256
 534 930 524 950 524 968 c 256
 524 992 537 1006 560 1006 c 256
 582 1006 598 990 598 968 c 256
 598 944 583 930 560 930 c 256
  PathStart: -2
542 1060 m 256
 479 1060 439 1028 439 966 c 256
 439 948 449 920 449 918 c 257
 449 918 449 918 449 918 c 257
 118 918 l 258
 73 918 60 908 60 874 c 256
 60 843 77 831 115 831 c 258
 507 831 l 258
 597 831 654 871 660 970 c 257
 641 1033 598 1060 542 1060 c 256
  PathStart: -2
EndSplineSet
EndChar

StartChar: CaNuktaO
Encoding: 65 -1 65
GlifName: C_aN_uktaO_
Width: 1097
VWidth: 0
Flags: W
LayerCount: 2
Back
Fore
SplineSet
454 585 m 256
 535 585 616 644 616 696 c 256
 616 743 529 805 462 805 c 256
 412 805 366 773 366 732 c 256
 366 716 397 693 433 681 c 257
 454 696 l 257
 447 699 440 707 440 717 c 256
 440 739 469 753 499 753 c 256
 522 753 536 743 536 732 c 256
 536 687 466 650 389 650 c 256
 343 650 199 696 153 696 c 256
 98 696 47 677 14 637 c 257
 88 593 l 257
 118 617 160 629 212 629 c 256
 257 629 409 585 454 585 c 256
  PathStart: -2
381 425 m 257
 360 425 345 433 345 444 c 256
 345 469 419 498 485 498 c 258
 551 498 l 258
 588 498 623 481 649 455 c 257
 630 419 l 257
 644 393 679 370 728 353 c 257
 763 434 813 486 855 486 c 256
 914 486 995 427 995 383 c 257
 980 411 948 425 916 425 c 256
 855 425 795 363 795 304 c 256
 795 251 881 183 946 183 c 256
 1005 183 1080 283 1080 359 c 256
 1080 452 910 565 788 565 c 256
 749 565 706 535 673 491 c 257
 627 534 579 559 539 559 c 258
 443 559 l 258
 330 559 211 502 211 449 c 256
 211 409 262 376 320 376 c 258
 431 376 l 258
 509 376 613 287 613 219 c 256
 613 150 561 73 510 73 c 256
 487 73 467 86 461 104 c 257
 466 117 479 132 498 140 c 257
 425 206 l 257
 371 206 349 73 285 73 c 256
 262 73 249 87 249 104 c 256
 249 138 284 179 340 213 c 257
 291 268 l 257
 273 255 253 249 230 249 c 256
 200 249 103 279 73 279 c 256
 44 279 19 266 0 243 c 257
 60 183 l 257
 79 198 99 206 115 206 c 256
 127 206 157 194 170 194 c 258
 194 194 l 257
 165 167 145 134 145 109 c 256
 145 58 250 0 340 0 c 256
 365 0 395 21 425 55 c 257
 466 22 516 0 564 0 c 256
 635 0 723 122 723 206 c 256
 723 288 543 425 436 425 c 258
 381 425 l 257
899 255 m 256
 887 255 874 265 874 279 c 256
 874 307 918 346 946 346 c 256
 956 346 965 338 965 328 c 256
 965 312 958 296 943 279 c 256
 928 263 913 255 899 255 c 256
  PathStart: -2
EndSplineSet
EndChar

StartChar: CaNuktaOO
Encoding: 66 -1 66
GlifName: C_aN_uktaO_O_
Width: 1096
VWidth: 0
Flags: W
LayerCount: 2
Back
Fore
SplineSet
454 585 m 256
 535 585 616 644 616 696 c 256
 616 743 529 805 462 805 c 256
 412 805 366 773 366 732 c 256
 366 716 397 693 433 681 c 257
 454 696 l 257
 447 699 440 707 440 717 c 256
 440 739 469 753 499 753 c 256
 522 753 536 743 536 732 c 256
 536 687 466 650 389 650 c 256
 343 650 199 696 153 696 c 256
 98 696 47 677 14 637 c 257
 88 593 l 257
 118 617 160 629 212 629 c 256
 257 629 409 585 454 585 c 256
  PathStart: -2
388 425 m 257
 365 425 345 437 345 449 c 256
 345 473 407 498 466 498 c 258
 545 498 l 258
 582 498 617 481 643 455 c 257
 624 419 l 257
 638 393 674 370 721 353 c 257
 758 434 806 486 849 486 c 256
 908 486 989 425 989 383 c 257
 975 408 944 425 910 425 c 256
 849 425 789 365 789 304 c 256
 789 249 877 183 941 183 c 256
 1000 183 1074 284 1074 359 c 256
 1074 386 1046 422 946 504 c 257
 938 515 l 258
 935 518 934 521 934 523 c 256
 934 561 981 614 1013 614 c 256
 1022 614 1038 599 1038 589 c 256
 1038 569 1028 547 1013 534 c 257
 1085 480 l 257
 1107 498 1123 523 1123 546 c 256
 1123 595 1033 680 976 680 c 256
 920 680 861 624 861 571 c 256
 861 560 865 547 873 534 c 257
 835 551 803 559 776 559 c 256
 737 559 695 531 666 491 c 257
 622 534 573 559 533 559 c 258
 443 559 l 258
 330 559 211 502 211 449 c 256
 211 418 272 376 320 376 c 258
 431 376 l 258
 509 376 613 287 613 219 c 256
 613 150 561 73 510 73 c 256
 487 73 467 86 461 104 c 257
 466 117 479 132 498 140 c 257
 425 206 l 257
 371 206 349 73 285 73 c 256
 262 73 249 87 249 104 c 256
 249 138 284 179 340 213 c 257
 291 268 l 257
 273 255 253 249 230 249 c 256
 200 249 103 279 73 279 c 256
 44 279 19 266 0 243 c 257
 60 183 l 257
 79 198 99 206 115 206 c 256
 127 206 157 194 170 194 c 258
 194 194 l 257
 165 167 145 134 145 109 c 256
 145 58 250 0 340 0 c 256
 365 0 395 21 425 55 c 257
 466 22 516 0 564 0 c 256
 635 0 723 122 723 206 c 256
 723 288 543 425 436 425 c 258
 388 425 l 257
893 255 m 256
 881 255 868 265 868 279 c 256
 868 307 912 346 941 346 c 256
 952 346 959 337 959 328 c 256
 959 312 951 296 936 279 c 256
 921 263 907 255 893 255 c 256
  PathStart: -2
EndSplineSet
EndChar

StartChar: CaNuktaU
Encoding: 67 -1 67
GlifName: C_aN_uktaU_
Width: 1082
VWidth: 0
Flags: W
LayerCount: 2
Back
Fore
SplineSet
454 565 m 256
 535 565 616 624 616 676 c 256
 616 723 529 785 462 785 c 256
 412 785 366 753 366 712 c 256
 366 696 397 673 433 661 c 257
 454 676 l 257
 447 679 440 687 440 697 c 256
 440 719 469 733 499 733 c 256
 522 733 536 723 536 712 c 256
 536 667 466 630 389 630 c 256
 343 630 199 676 153 676 c 256
 98 676 47 657 14 617 c 257
 88 573 l 257
 118 597 160 609 212 609 c 256
 257 609 409 565 454 565 c 256
  PathStart: -2
724 207 m 256
 724 283 563 410 457 425 c 257
 502 455 557 478 624 490 c 256
 703 504 760 531 782 563 c 257
 660 642 l 257
 630 588 576 551 509 539 c 256
 404 521 321 477 277 417 c 257
 399 362 l 257
 408 377 l 257
 432 377 l 258
 513 377 614 288 614 219 c 256
 614 150 562 73 511 73 c 256
 488 73 468 86 462 104 c 257
 467 117 480 132 499 140 c 257
 426 207 l 257
 379 207 349 73 286 73 c 256
 265 73 249 85 249 104 c 256
 249 138 283 179 341 213 c 257
 292 268 l 257
 273 255 253 249 231 249 c 256
 199 249 103 279 73 279 c 256
 45 279 19 268 0 243 c 257
 60 183 l 257
 79 197 98 207 115 207 c 256
 127 207 158 194 170 194 c 258
 194 194 l 257
 165 167 145 134 145 109 c 256
 145 57 252 0 341 0 c 256
 366 0 396 21 426 55 c 257
 467 22 517 0 565 0 c 256
 600 0 637 21 670 69 c 258
 692 101 l 257
 731 38 808 0 889 0 c 256
 974 0 1065 97 1065 193 c 256
 1065 214 1058 235 1041 258 c 256
 1014 294 938 335 938 369 c 256
 938 377 946 389 957 400 c 257
 866 442 l 257
 840 428 823 404 823 381 c 256
 823 364 852 337 902 309 c 256
 945 284 974 246 974 218 c 256
 974 147 909 72 847 72 c 256
 800 72 752 104 718 161 c 257
 722 176 724 192 724 207 c 256
  PathStart: -2
EndSplineSet
EndChar

StartChar: CaNuktaUU
Encoding: 68 -1 68
GlifName: C_aN_uktaU_U_
Width: 1405
VWidth: 0
Flags: W
LayerCount: 2
Back
Fore
SplineSet
454 565 m 256
 535 565 616 624 616 676 c 256
 616 723 529 785 462 785 c 256
 412 785 366 753 366 712 c 256
 366 696 397 673 433 661 c 257
 454 676 l 257
 447 679 440 687 440 697 c 256
 440 719 469 733 499 733 c 256
 522 733 536 723 536 712 c 256
 536 667 466 630 389 630 c 256
 343 630 199 676 153 676 c 256
 98 676 47 657 14 617 c 257
 88 573 l 257
 118 597 160 609 212 609 c 256
 257 609 409 565 454 565 c 256
  PathStart: -2
724 207 m 256
 724 283 563 410 457 425 c 257
 502 455 557 478 624 490 c 256
 703 504 760 531 782 563 c 257
 660 642 l 257
 630 588 576 551 509 539 c 256
 404 521 321 477 277 417 c 257
 399 362 l 257
 408 377 l 257
 432 377 l 258
 513 377 614 288 614 219 c 256
 614 150 562 73 511 73 c 256
 488 73 468 86 462 104 c 257
 467 117 480 132 499 140 c 257
 426 207 l 257
 379 207 349 73 286 73 c 256
 265 73 249 85 249 104 c 256
 249 138 283 179 341 213 c 257
 292 268 l 257
 273 255 253 249 231 249 c 256
 199 249 103 279 73 279 c 256
 45 279 19 268 0 243 c 257
 60 183 l 257
 79 197 98 207 115 207 c 256
 127 207 158 194 170 194 c 258
 194 194 l 257
 165 167 145 134 145 109 c 256
 145 57 252 0 341 0 c 256
 366 0 396 21 426 55 c 257
 467 22 517 0 565 0 c 256
 607 0 646 32 689 96 c 257
 727 37 802 0 877 0 c 256
 971 0 1066 101 1066 200 c 256
 1066 266 970 298 939 353 c 257
 1158 370 l 258
 1162 370 1167 370 1171 370 c 256
 1250 370 1303 324 1303 268 c 257
 1281 291 1251 304 1218 304 c 256
 1176 304 1109 231 1109 189 c 256
 1109 136 1190 66 1249 66 c 256
 1311 66 1388 167 1388 243 c 256
 1388 310 1273 426 1207 426 c 258
 1041 426 l 258
 957 426 890 440 841 468 c 257
 775 370 l 257
 795 359 819 353 847 353 c 257
 892 315 l 258
 942 273 969 247 969 232 c 256
 969 165 899 73 841 73 c 256
 792 73 743 99 713 146 c 257
 720 167 724 187 724 207 c 256
  PathStart: -2
1212 140 m 256
 1199 140 1188 147 1188 158 c 256
 1188 187 1230 232 1260 232 c 256
 1270 232 1279 221 1279 207 c 256
 1279 194 1271 180 1255 164 c 256
 1240 148 1225 140 1212 140 c 256
  PathStart: -2
EndSplineSet
EndChar

StartChar: CaO
Encoding: 69 -1 69
GlifName: C_aO_
Width: 1097
VWidth: 0
Flags: W
LayerCount: 2
Back
Fore
SplineSet
381 425 m 257
 360 425 345 433 345 444 c 256
 345 469 419 498 485 498 c 258
 551 498 l 258
 588 498 623 481 649 455 c 257
 630 419 l 257
 644 393 679 370 728 353 c 257
 763 434 813 486 855 486 c 256
 914 486 995 427 995 383 c 257
 980 411 948 425 916 425 c 256
 855 425 795 363 795 304 c 256
 795 251 881 183 946 183 c 256
 1005 183 1080 283 1080 359 c 256
 1080 452 910 565 788 565 c 256
 749 565 706 535 673 491 c 257
 627 534 579 559 539 559 c 258
 443 559 l 258
 330 559 211 502 211 449 c 256
 211 409 262 376 320 376 c 258
 431 376 l 258
 509 376 613 287 613 219 c 256
 613 150 561 73 510 73 c 256
 487 73 467 86 461 104 c 257
 466 117 479 132 498 140 c 257
 425 206 l 257
 371 206 349 73 285 73 c 256
 262 73 249 87 249 104 c 256
 249 138 284 179 340 213 c 257
 291 268 l 257
 273 255 253 249 230 249 c 256
 200 249 103 279 73 279 c 256
 44 279 19 266 0 243 c 257
 60 183 l 257
 79 198 99 206 115 206 c 256
 127 206 157 194 170 194 c 258
 194 194 l 257
 165 167 145 134 145 109 c 256
 145 58 250 0 340 0 c 256
 365 0 395 21 425 55 c 257
 466 22 516 0 564 0 c 256
 635 0 723 122 723 206 c 256
 723 288 543 425 436 425 c 258
 381 425 l 257
899 255 m 256
 887 255 874 265 874 279 c 256
 874 307 918 346 946 346 c 256
 956 346 965 338 965 328 c 256
 965 312 958 296 943 279 c 256
 928 263 913 255 899 255 c 256
  PathStart: -2
EndSplineSet
EndChar

StartChar: CaOO
Encoding: 70 -1 70
GlifName: C_aO_O_
Width: 1096
VWidth: 0
Flags: W
LayerCount: 2
Back
Fore
SplineSet
388 425 m 257
 365 425 345 437 345 449 c 256
 345 473 407 498 466 498 c 258
 545 498 l 258
 582 498 617 481 643 455 c 257
 624 419 l 257
 638 393 674 370 721 353 c 257
 758 434 806 486 849 486 c 256
 908 486 989 425 989 383 c 257
 975 408 944 425 910 425 c 256
 849 425 789 365 789 304 c 256
 789 249 877 183 941 183 c 256
 1000 183 1074 284 1074 359 c 256
 1074 386 1046 422 946 504 c 257
 938 515 l 258
 935 518 934 521 934 523 c 256
 934 561 981 614 1013 614 c 256
 1022 614 1038 599 1038 589 c 256
 1038 569 1028 547 1013 534 c 257
 1085 480 l 257
 1107 498 1123 523 1123 546 c 256
 1123 595 1033 680 976 680 c 256
 920 680 861 624 861 571 c 256
 861 560 865 547 873 534 c 257
 835 551 803 559 776 559 c 256
 737 559 695 531 666 491 c 257
 622 534 573 559 533 559 c 258
 443 559 l 258
 330 559 211 502 211 449 c 256
 211 418 272 376 320 376 c 258
 431 376 l 258
 509 376 613 287 613 219 c 256
 613 150 561 73 510 73 c 256
 487 73 467 86 461 104 c 257
 466 117 479 132 498 140 c 257
 425 206 l 257
 371 206 349 73 285 73 c 256
 262 73 249 87 249 104 c 256
 249 138 284 179 340 213 c 257
 291 268 l 257
 273 255 253 249 230 249 c 256
 200 249 103 279 73 279 c 256
 44 279 19 266 0 243 c 257
 60 183 l 257
 79 198 99 206 115 206 c 256
 127 206 157 194 170 194 c 258
 194 194 l 257
 165 167 145 134 145 109 c 256
 145 58 250 0 340 0 c 256
 365 0 395 21 425 55 c 257
 466 22 516 0 564 0 c 256
 635 0 723 122 723 206 c 256
 723 288 543 425 436 425 c 258
 388 425 l 257
893 255 m 256
 881 255 868 265 868 279 c 256
 868 307 912 346 941 346 c 256
 952 346 959 337 959 328 c 256
 959 312 951 296 936 279 c 256
 921 263 907 255 893 255 c 256
  PathStart: -2
EndSplineSet
EndChar

StartChar: CaOttu
Encoding: 71 -1 71
GlifName: C_aO_ttu
Width: 220
VWidth: 0
Flags: W
LayerCount: 2
Back
Fore
SplineSet
-79 -223 m 257
 -42 -262 5 -285 59 -285 c 256
 136 -285 203 -227 203 -154 c 256
 203 -119 190 -70 165 -7 c 256
 140 57 127 106 127 141 c 256
 127 155 137 175 155 189 c 257
 93 244 l 257
 66 221 52 196 52 175 c 256
 52 141 63 93 86 30 c 256
 109 -32 120 -80 120 -114 c 256
 120 -180 73 -238 17 -238 c 256
 -10 -238 -53 -200 -85 -142 c 257
 -154 -238 l 257
 -184 -238 -209 -220 -209 -197 c 256
 -209 -169 -169 -137 -113 -121 c 257
 -154 -87 l 257
 -163 -96 -186 -101 -216 -101 c 256
 -238 -101 -309 -73 -331 -73 c 256
 -357 -73 -377 -81 -393 -101 c 257
 -345 -154 l 257
 -330 -133 -304 -121 -276 -121 c 256
 -262 -121 -251 -123 -242 -128 c 257
 -275 -146 -297 -171 -297 -190 c 256
 -297 -228 -218 -278 -154 -278 c 258
 -120 -278 l 257
 -79 -223 l 257
 -79 -223 l 257
EndSplineSet
EndChar

StartChar: CaU
Encoding: 72 -1 72
GlifName: C_aU_
Width: 1082
VWidth: 0
Flags: W
LayerCount: 2
Back
Fore
SplineSet
724 207 m 256
 724 283 563 410 457 425 c 257
 502 455 557 478 624 490 c 256
 703 504 760 531 782 563 c 257
 660 642 l 257
 630 588 576 551 509 539 c 256
 404 521 321 477 277 417 c 257
 399 362 l 257
 408 377 l 257
 432 377 l 258
 513 377 614 288 614 219 c 256
 614 150 562 73 511 73 c 256
 488 73 468 86 462 104 c 257
 467 117 480 132 499 140 c 257
 426 207 l 257
 379 207 349 73 286 73 c 256
 265 73 249 85 249 104 c 256
 249 138 283 179 341 213 c 257
 292 268 l 257
 273 255 253 249 231 249 c 256
 199 249 103 279 73 279 c 256
 45 279 19 268 0 243 c 257
 60 183 l 257
 79 197 98 207 115 207 c 256
 127 207 158 194 170 194 c 258
 194 194 l 257
 165 167 145 134 145 109 c 256
 145 57 252 0 341 0 c 256
 366 0 396 21 426 55 c 257
 467 22 517 0 565 0 c 256
 600 0 637 21 670 69 c 258
 692 101 l 257
 731 38 808 0 889 0 c 256
 974 0 1065 97 1065 193 c 256
 1065 214 1058 235 1041 258 c 256
 1014 294 938 335 938 369 c 256
 938 377 946 389 957 400 c 257
 866 442 l 257
 840 428 823 404 823 381 c 256
 823 364 852 337 902 309 c 256
 945 284 974 246 974 218 c 256
 974 147 909 72 847 72 c 256
 800 72 752 104 718 161 c 257
 722 176 724 192 724 207 c 256
  PathStart: -2
EndSplineSet
EndChar

StartChar: CaUU
Encoding: 73 -1 73
GlifName: C_aU_U_
Width: 1405
VWidth: 0
Flags: W
LayerCount: 2
Back
Fore
SplineSet
724 207 m 256
 724 283 563 410 457 425 c 257
 502 455 557 478 624 490 c 256
 703 504 760 531 782 563 c 257
 660 642 l 257
 630 588 576 551 509 539 c 256
 404 521 321 477 277 417 c 257
 399 362 l 257
 408 377 l 257
 432 377 l 258
 513 377 614 288 614 219 c 256
 614 150 562 73 511 73 c 256
 488 73 468 86 462 104 c 257
 467 117 480 132 499 140 c 257
 426 207 l 257
 379 207 349 73 286 73 c 256
 265 73 249 85 249 104 c 256
 249 138 283 179 341 213 c 257
 292 268 l 257
 273 255 253 249 231 249 c 256
 199 249 103 279 73 279 c 256
 45 279 19 268 0 243 c 257
 60 183 l 257
 79 197 98 207 115 207 c 256
 127 207 158 194 170 194 c 258
 194 194 l 257
 165 167 145 134 145 109 c 256
 145 57 252 0 341 0 c 256
 366 0 396 21 426 55 c 257
 467 22 517 0 565 0 c 256
 607 0 646 32 689 96 c 257
 727 37 802 0 877 0 c 256
 971 0 1066 101 1066 200 c 256
 1066 266 970 298 939 353 c 257
 1158 370 l 258
 1162 370 1167 370 1171 370 c 256
 1250 370 1303 324 1303 268 c 257
 1281 291 1251 304 1218 304 c 256
 1176 304 1109 231 1109 189 c 256
 1109 136 1190 66 1249 66 c 256
 1311 66 1388 167 1388 243 c 256
 1388 310 1273 426 1207 426 c 258
 1041 426 l 258
 957 426 890 440 841 468 c 257
 775 370 l 257
 795 359 819 353 847 353 c 257
 892 315 l 258
 942 273 969 247 969 232 c 256
 969 165 899 73 841 73 c 256
 792 73 743 99 713 146 c 257
 720 167 724 187 724 207 c 256
  PathStart: -2
1212 140 m 256
 1199 140 1188 147 1188 158 c 256
 1188 187 1230 232 1260 232 c 256
 1270 232 1279 221 1279 207 c 256
 1279 194 1271 180 1255 164 c 256
 1240 148 1225 140 1212 140 c 256
  PathStart: -2
EndSplineSet
EndChar

StartChar: Ccedilla
Encoding: 76 199 76
GlifName: C_cedilla
Width: 388
VWidth: 0
Flags: W
AnchorPoint: "mark0" 236 451 basechar 0
AnchorPoint: "mark1" 235 0 basechar 0
LayerCount: 2
Back
Fore
SplineSet
361 104 m 257
 327 83 290 73 250 73 c 256
 169 73 127 126 127 232 c 256
 127 329 167 378 247 378 c 256
 286 378 321 367 352 346 c 257
 360 350 l 257
 379 429 l 257
 341 447 298 456 251 456 c 256
 105 456 21 370 21 221 c 256
 21 86 86 7 210 -5 c 257
 198 -53 l 257
 235 -72 l 258
 243 -76 247 -81 247 -86 c 256
 247 -96 241 -101 229 -101 c 256
 215 -101 200 -94 185 -80 c 257
 181 -82 l 257
 174 -121 l 257
 193 -134 213 -141 235 -141 c 256
 277 -141 306 -119 306 -88 c 256
 306 -71 295 -57 275 -47 c 258
 250 -34 l 257
 257 -6 l 257
 294 -4 328 4 362 18 c 257
 370 99 l 257
 361 104 l 257
EndSplineSet
EndChar

StartChar: Ccircumflex
Encoding: 77 264 77
GlifName: C_circumflex
Width: 388
VWidth: 0
Flags: W
AnchorPoint: "mark0" 236 451 basechar 0
AnchorPoint: "mark1" 235 0 basechar 0
LayerCount: 2
Back
Fore
SplineSet
226 619 m 257
 194 592 160 568 126 547 c 257
 145 510 l 257
 154 510 l 257
 178 522 l 257
 196 531 216 542 237 554 c 257
 258 542 277 531 296 522 c 257
 319 510 l 257
 329 510 l 257
 347 547 l 257
 311 570 277 594 247 619 c 257
 226 619 l 257
379 429 m 257
 341 447 298 456 251 456 c 256
 105 456 21 370 21 221 c 256
 21 75 98 -6 242 -6 c 256
 284 -6 324 2 362 18 c 257
 370 99 l 257
 361 104 l 257
 327 83 290 73 250 73 c 256
 169 73 127 126 127 232 c 256
 127 329 167 378 247 378 c 256
 286 378 321 367 352 346 c 257
 360 350 l 257
 379 429 l 257
EndSplineSet
EndChar

StartChar: Cdotaccent
Encoding: 78 266 78
GlifName: C_dotaccent
Width: 388
VWidth: 0
Flags: W
AnchorPoint: "mark0" 236 451 basechar 0
AnchorPoint: "mark1" 235 0 basechar 0
LayerCount: 2
Back
Fore
SplineSet
239 610 m 256
 205 610 184 590 184 559 c 256
 184 528 202 511 235 511 c 256
 268 511 289 531 289 563 c 256
 289 593 270 610 239 610 c 256
  PathStart: -2
379 429 m 257
 341 447 298 456 251 456 c 256
 105 456 21 370 21 221 c 256
 21 75 98 -6 242 -6 c 256
 284 -6 324 2 362 18 c 257
 370 99 l 257
 361 104 l 257
 327 83 290 73 250 73 c 256
 169 73 127 126 127 232 c 256
 127 329 167 378 247 378 c 256
 286 378 321 367 352 346 c 257
 360 350 l 257
 379 429 l 257
EndSplineSet
EndChar

StartChar: ChaAA
Encoding: 79 -1 79
GlifName: C_haA_A_
Width: 1092
VWidth: 0
Flags: W
LayerCount: 2
Back
Fore
SplineSet
451 -189 m 257
 530 -97 l 257
 489 -70 463 -44 463 -25 c 256
 463 -20 469 -12 469 -6 c 256
 469 1 460 5 456 5 c 257
 402 -41 371 -76 371 -97 c 256
 371 -107 378 -120 393 -137 c 256
 407 -153 426 -170 451 -189 c 257
  PathStart: -2
607 364 m 257
 713 371 794 375 850 375 c 256
 936 375 990 335 990 273 c 257
 969 296 940 309 912 309 c 256
 868 309 795 237 795 194 c 256
 795 144 875 71 935 71 c 256
 997 71 1075 172 1075 248 c 256
 1075 316 961 430 893 430 c 258
 377 430 l 258
 318 430 264 444 215 473 c 257
 155 375 l 257
 190 355 229 345 270 345 c 256
 327 345 408 349 514 357 c 257
 584 318 623 263 623 219 c 256
 623 150 571 73 520 73 c 256
 497 73 477 86 471 104 c 257
 476 117 489 132 508 140 c 257
 435 206 l 257
 381 206 359 73 295 73 c 256
 272 73 259 87 259 104 c 256
 259 138 294 179 350 213 c 257
 301 268 l 257
 283 255 263 249 240 249 c 256
 210 249 113 279 83 279 c 256
 54 279 29 266 10 243 c 257
 70 183 l 257
 89 198 109 206 125 206 c 256
 137 206 167 194 180 194 c 258
 204 194 l 257
 175 167 155 134 155 109 c 256
 155 58 260 0 350 0 c 256
 375 0 405 21 435 55 c 257
 476 22 526 0 574 0 c 256
 645 0 733 122 733 206 c 256
 733 249 699 297 629 348 c 258
 607 364 l 257
910 140 m 256
 896 140 886 149 886 158 c 256
 886 188 929 231 959 231 c 256
 969 231 976 219 976 206 c 256
 976 194 968 180 953 164 c 256
 937 148 923 140 910 140 c 256
  PathStart: -2
EndSplineSet
EndChar

StartChar: ChaAU
Encoding: 80 -1 80
GlifName: C_haA_U_
Width: 1067
VWidth: 0
Flags: W
LayerCount: 2
Back
Fore
SplineSet
451 -189 m 257
 530 -97 l 257
 489 -70 463 -44 463 -25 c 256
 463 -20 469 -12 469 -6 c 256
 469 1 460 5 456 5 c 257
 402 -41 371 -76 371 -97 c 256
 371 -107 378 -120 393 -137 c 256
 407 -153 426 -170 451 -189 c 257
  PathStart: -2
643 438 m 256
 643 462 623 490 594 510 c 257
 641 519 717 523 820 523 c 256
 896 523 965 480 965 425 c 257
 946 448 918 461 893 461 c 256
 836 461 771 411 771 359 c 256
 771 305 851 231 911 231 c 256
 978 231 1050 308 1050 383 c 256
 1050 483 930 583 820 583 c 258
 443 583 l 258
 382 583 327 597 278 625 c 257
 211 529 l 257
 229 515 265 510 358 510 c 258
 509 510 l 258
 530 510 551 496 551 474 c 256
 551 447 530 425 503 425 c 258
 339 425 l 258
 317 425 290 398 290 376 c 257
 431 376 l 258
 509 376 613 287 613 219 c 256
 613 150 561 73 510 73 c 256
 487 73 467 86 461 104 c 257
 466 117 479 132 498 140 c 257
 425 206 l 257
 371 206 349 73 285 73 c 256
 262 73 249 87 249 104 c 256
 249 138 284 179 340 213 c 257
 291 268 l 257
 273 255 253 249 230 249 c 256
 200 249 103 279 73 279 c 256
 44 279 19 266 0 243 c 257
 60 183 l 257
 79 198 99 206 115 206 c 256
 127 206 157 194 170 194 c 258
 194 194 l 257
 165 167 145 134 145 109 c 256
 145 58 250 0 340 0 c 256
 365 0 395 21 425 55 c 257
 466 22 516 0 564 0 c 256
 635 0 723 122 723 206 c 256
 723 255 671 320 572 380 c 257
 617 389 643 414 643 438 c 256
  PathStart: -2
869 298 m 256
 858 298 850 305 850 316 c 256
 850 346 893 389 923 389 c 256
 933 389 941 380 941 370 c 256
 941 355 933 340 916 323 c 256
 899 306 884 298 869 298 c 256
  PathStart: -2
EndSplineSet
EndChar

StartChar: ChaE
Encoding: 81 -1 81
GlifName: C_haE_
Width: 740
VWidth: 0
Flags: W
LayerCount: 2
Back
Fore
SplineSet
451 -189 m 257
 530 -97 l 257
 489 -70 463 -44 463 -25 c 256
 463 -20 469 -12 469 -6 c 256
 469 1 460 5 456 5 c 257
 402 -41 371 -76 371 -97 c 256
 371 -107 378 -120 393 -137 c 256
 407 -153 426 -170 451 -189 c 257
  PathStart: -2
681 504 m 256
 681 548 599 614 554 614 c 256
 516 614 389 589 351 589 c 256
 317 589 283 605 255 631 c 257
 151 565 l 257
 186 535 227 516 260 516 c 256
 308 516 470 546 518 546 c 256
 541 546 554 523 554 498 c 256
 554 458 510 425 455 425 c 258
 299 425 l 258
 286 425 275 413 275 401 c 256
 275 389 286 376 299 376 c 258
 431 376 l 258
 509 376 613 287 613 219 c 256
 613 150 561 73 510 73 c 256
 487 73 467 86 461 104 c 257
 466 117 479 132 498 140 c 257
 425 206 l 257
 371 206 349 73 285 73 c 256
 262 73 249 87 249 104 c 256
 249 138 284 179 340 213 c 257
 291 268 l 257
 273 255 253 249 230 249 c 256
 200 249 103 279 73 279 c 256
 44 279 19 266 0 243 c 257
 60 183 l 257
 79 198 99 206 115 206 c 256
 127 206 157 194 170 194 c 258
 194 194 l 257
 165 167 145 134 145 109 c 256
 145 58 250 0 340 0 c 256
 365 0 395 21 425 55 c 257
 466 22 516 0 564 0 c 256
 635 0 723 122 723 206 c 256
 723 258 667 324 560 386 c 257
 638 410 681 454 681 504 c 256
  PathStart: -2
EndSplineSet
EndChar

StartChar: ChaEE
Encoding: 82 -1 82
GlifName: C_haE_E_
Width: 742
VWidth: 0
Flags: W
LayerCount: 2
Back
Fore
SplineSet
451 -189 m 257
 530 -97 l 257
 489 -70 463 -44 463 -25 c 256
 463 -20 469 -12 469 -6 c 256
 469 1 460 5 456 5 c 257
 402 -41 371 -76 371 -97 c 256
 371 -107 378 -120 393 -137 c 256
 407 -153 426 -170 451 -189 c 257
  PathStart: -2
675 504 m 256
 675 527 653 556 614 583 c 257
 608 608 l 257
 608 636 658 686 686 686 c 256
 698 686 718 675 718 661 c 256
 718 647 706 631 686 619 c 257
 754 565 l 257
 774 578 790 599 790 625 c 256
 790 684 707 765 656 765 c 256
 610 765 535 705 535 656 c 256
 535 646 539 632 548 614 c 257
 514 614 399 589 364 589 c 256
 330 589 296 605 268 631 c 257
 164 565 l 257
 202 532 241 516 273 516 c 256
 317 516 466 546 511 546 c 256
 533 546 548 524 548 498 c 256
 548 458 489 425 420 425 c 258
 289 425 l 258
 273 425 264 414 264 398 c 256
 264 388 274 376 286 376 c 258
 431 376 l 258
 509 376 613 287 613 219 c 256
 613 150 561 73 510 73 c 256
 487 73 467 86 461 104 c 257
 466 117 479 132 498 140 c 257
 425 206 l 257
 371 206 349 73 285 73 c 256
 262 73 249 87 249 104 c 256
 249 138 284 179 340 213 c 257
 291 268 l 257
 273 255 253 249 230 249 c 256
 200 249 103 279 73 279 c 256
 44 279 19 266 0 243 c 257
 60 183 l 257
 79 198 99 206 115 206 c 256
 127 206 157 194 170 194 c 258
 194 194 l 257
 165 167 145 134 145 109 c 256
 145 58 250 0 340 0 c 256
 365 0 395 21 425 55 c 257
 466 22 516 0 564 0 c 256
 635 0 723 122 723 206 c 256
 723 255 659 339 547 393 c 257
 631 419 675 459 675 504 c 256
  PathStart: -2
EndSplineSet
EndChar

StartChar: ChaHalanth
Encoding: 83 -1 83
GlifName: C_haH_alanth
Width: 770
VWidth: 0
Flags: W
LayerCount: 2
Back
Fore
SplineSet
461 -189 m 257
 540 -97 l 257
 499 -70 473 -44 473 -25 c 256
 473 -20 479 -12 479 -6 c 256
 479 1 470 5 466 5 c 257
 412 -41 381 -76 381 -97 c 256
 381 -107 388 -120 403 -137 c 256
 417 -153 436 -170 461 -189 c 257
  PathStart: -2
461 376 m 257
 539 376 643 287 643 219 c 256
 643 150 591 73 540 73 c 256
 517 73 497 86 491 104 c 257
 496 117 509 132 528 140 c 257
 455 206 l 257
 401 206 379 73 315 73 c 256
 292 73 279 87 279 104 c 256
 279 138 314 179 370 213 c 257
 321 268 l 257
 303 255 283 249 260 249 c 256
 230 249 133 279 103 279 c 256
 74 279 49 266 30 243 c 257
 90 183 l 257
 109 198 129 206 145 206 c 256
 157 206 187 194 200 194 c 258
 224 194 l 257
 195 167 175 134 175 109 c 256
 175 58 280 0 370 0 c 256
 395 0 425 21 455 55 c 257
 496 22 546 0 594 0 c 256
 665 0 753 122 753 206 c 256
 753 291 568 425 461 425 c 258
 436 425 l 258
 416 425 399 439 399 455 c 256
 399 497 518 499 545 516 c 257
 479 589 l 257
 471 584 455 574 430 571 c 258
 388 565 l 257
 376 565 363 575 363 589 c 256
 363 612 437 644 473 644 c 256
 509 644 614 589 649 589 c 256
 684 589 717 605 751 631 c 257
 666 710 l 257
 649 691 620 680 588 680 c 256
 553 680 440 716 405 716 c 256
 338 716 248 656 248 608 c 256
 248 591 266 573 326 529 c 257
 306 517 271 481 271 468 c 256
 271 429 360 376 430 376 c 258
 461 376 l 257
EndSplineSet
EndChar

StartChar: ChaI
Encoding: 84 -1 84
GlifName: C_haI_
Width: 780
VWidth: 0
Flags: W
LayerCount: 2
Back
Fore
SplineSet
451 -189 m 257
 530 -97 l 257
 489 -70 463 -44 463 -25 c 256
 463 -20 469 -12 469 -6 c 256
 469 1 460 5 456 5 c 257
 402 -41 371 -76 371 -97 c 256
 371 -107 378 -120 393 -137 c 256
 407 -153 426 -170 451 -189 c 257
  PathStart: -2
314 364 m 256
 314 391 360 419 386 419 c 256
 396 419 404 411 404 401 c 256
 404 375 366 340 338 340 c 256
 326 340 314 351 314 364 c 256
  PathStart: -2
446 55 m 257
 488 21 537 0 586 0 c 256
 665 0 763 123 763 213 c 256
 763 265 717 324 624 389 c 256
 532 454 449 486 374 486 c 256
 313 486 234 425 234 376 c 256
 234 339 324 279 374 279 c 256
 421 279 495 345 495 395 c 257
 592 361 659 295 659 231 c 256
 659 161 584 66 526 66 c 256
 502 66 478 81 478 104 c 256
 478 113 494 127 514 140 c 257
 453 206 l 257
 391 206 361 73 295 73 c 256
 274 73 259 88 259 109 c 256
 259 139 300 176 361 213 c 257
 308 268 l 257
 291 255 270 249 246 249 c 256
 217 249 129 279 101 279 c 256
 64 279 30 267 10 243 c 257
 76 176 l 257
 90 191 113 200 144 200 c 257
 191 194 l 257
 210 194 l 257
 174 169 149 136 149 109 c 256
 149 61 268 0 356 0 c 256
 381 0 410 19 446 55 c 257
  PathStart: -2
EndSplineSet
EndChar

StartChar: ChaII
Encoding: 85 -1 85
GlifName: C_haI_I_
Width: 780
VWidth: 0
Flags: W
LayerCount: 2
Back
Fore
SplineSet
451 -189 m 257
 530 -97 l 257
 489 -70 463 -44 463 -25 c 256
 463 -20 469 -12 469 -6 c 256
 469 1 460 5 456 5 c 257
 402 -41 371 -76 371 -97 c 256
 371 -107 378 -120 393 -137 c 256
 407 -153 426 -170 451 -189 c 257
  PathStart: -2
314 364 m 256
 314 391 360 419 386 419 c 256
 396 419 404 411 404 401 c 256
 404 375 366 340 338 340 c 256
 326 340 314 351 314 364 c 256
  PathStart: -2
446 55 m 257
 488 21 537 0 586 0 c 256
 665 0 763 123 763 213 c 256
 763 302 631 411 441 480 c 257
 435 504 l 257
 435 530 487 576 514 576 c 256
 528 576 544 563 544 553 c 256
 544 536 531 519 514 510 c 257
 574 449 l 257
 597 470 611 493 611 516 c 256
 611 564 524 644 471 644 c 256
 423 644 356 585 356 540 c 256
 356 522 367 501 380 486 c 257
 315 486 234 424 234 376 c 256
 234 339 324 279 374 279 c 256
 420 279 489 344 489 389 c 257
 588 361 659 296 659 231 c 256
 659 161 584 66 526 66 c 256
 502 66 478 81 478 104 c 256
 478 113 494 127 514 140 c 257
 453 206 l 257
 391 206 361 73 295 73 c 256
 274 73 259 88 259 109 c 256
 259 139 300 176 361 213 c 257
 308 268 l 257
 291 255 270 249 246 249 c 256
 217 249 129 279 101 279 c 256
 64 279 30 267 10 243 c 257
 76 176 l 257
 90 191 113 200 144 200 c 257
 191 194 l 257
 210 194 l 257
 174 169 149 136 149 109 c 256
 149 61 268 0 356 0 c 256
 381 0 410 19 446 55 c 257
  PathStart: -2
EndSplineSet
EndChar

StartChar: ChaO
Encoding: 86 -1 86
GlifName: C_haO_
Width: 1097
VWidth: 0
Flags: W
LayerCount: 2
Back
Fore
SplineSet
451 -189 m 257
 530 -97 l 257
 489 -70 463 -44 463 -25 c 256
 463 -20 469 -12 469 -6 c 256
 469 1 460 5 456 5 c 257
 402 -41 371 -76 371 -97 c 256
 371 -107 378 -120 393 -137 c 256
 407 -153 426 -170 451 -189 c 257
  PathStart: -2
381 425 m 257
 360 425 345 433 345 444 c 256
 345 469 419 498 485 498 c 258
 551 498 l 258
 588 498 623 481 649 455 c 257
 630 419 l 257
 644 393 679 370 728 353 c 257
 763 434 813 486 855 486 c 256
 914 486 995 427 995 383 c 257
 980 411 948 425 916 425 c 256
 855 425 795 363 795 304 c 256
 795 251 881 183 946 183 c 256
 1005 183 1080 283 1080 359 c 256
 1080 452 910 565 788 565 c 256
 749 565 706 535 673 491 c 257
 627 534 579 559 539 559 c 258
 443 559 l 258
 330 559 211 502 211 449 c 256
 211 409 262 376 320 376 c 258
 431 376 l 258
 509 376 613 287 613 219 c 256
 613 150 561 73 510 73 c 256
 487 73 467 86 461 104 c 257
 466 117 479 132 498 140 c 257
 425 206 l 257
 371 206 349 73 285 73 c 256
 262 73 249 87 249 104 c 256
 249 138 284 179 340 213 c 257
 291 268 l 257
 273 255 253 249 230 249 c 256
 200 249 103 279 73 279 c 256
 44 279 19 266 0 243 c 257
 60 183 l 257
 79 198 99 206 115 206 c 256
 127 206 157 194 170 194 c 258
 194 194 l 257
 165 167 145 134 145 109 c 256
 145 58 250 0 340 0 c 256
 365 0 395 21 425 55 c 257
 466 22 516 0 564 0 c 256
 635 0 723 122 723 206 c 256
 723 288 543 425 436 425 c 258
 381 425 l 257
899 255 m 256
 887 255 874 265 874 279 c 256
 874 307 918 346 946 346 c 256
 956 346 965 338 965 328 c 256
 965 312 958 296 943 279 c 256
 928 263 913 255 899 255 c 256
  PathStart: -2
EndSplineSet
EndChar

StartChar: ChaOO
Encoding: 87 -1 87
GlifName: C_haO_O_
Width: 1096
VWidth: 0
Flags: W
LayerCount: 2
Back
Fore
SplineSet
451 -189 m 257
 530 -97 l 257
 489 -70 463 -44 463 -25 c 256
 463 -20 469 -12 469 -6 c 256
 469 1 460 5 456 5 c 257
 402 -41 371 -76 371 -97 c 256
 371 -107 378 -120 393 -137 c 256
 407 -153 426 -170 451 -189 c 257
  PathStart: -2
388 425 m 257
 365 425 345 437 345 449 c 256
 345 473 407 498 466 498 c 258
 545 498 l 258
 582 498 617 481 643 455 c 257
 624 419 l 257
 638 393 674 370 721 353 c 257
 758 434 806 486 849 486 c 256
 908 486 989 425 989 383 c 257
 975 408 944 425 910 425 c 256
 849 425 789 365 789 304 c 256
 789 249 877 183 941 183 c 256
 1000 183 1074 284 1074 359 c 256
 1074 386 1046 422 946 504 c 257
 938 515 l 258
 935 518 934 521 934 523 c 256
 934 561 981 614 1013 614 c 256
 1022 614 1038 599 1038 589 c 256
 1038 569 1028 547 1013 534 c 257
 1085 480 l 257
 1107 498 1123 523 1123 546 c 256
 1123 595 1033 680 976 680 c 256
 920 680 861 624 861 571 c 256
 861 560 865 547 873 534 c 257
 835 551 803 559 776 559 c 256
 737 559 695 531 666 491 c 257
 622 534 573 559 533 559 c 258
 443 559 l 258
 330 559 211 502 211 449 c 256
 211 418 272 376 320 376 c 258
 431 376 l 258
 509 376 613 287 613 219 c 256
 613 150 561 73 510 73 c 256
 487 73 467 86 461 104 c 257
 466 117 479 132 498 140 c 257
 425 206 l 257
 371 206 349 73 285 73 c 256
 262 73 249 87 249 104 c 256
 249 138 284 179 340 213 c 257
 291 268 l 257
 273 255 253 249 230 249 c 256
 200 249 103 279 73 279 c 256
 44 279 19 266 0 243 c 257
 60 183 l 257
 79 198 99 206 115 206 c 256
 127 206 157 194 170 194 c 258
 194 194 l 257
 165 167 145 134 145 109 c 256
 145 58 250 0 340 0 c 256
 365 0 395 21 425 55 c 257
 466 22 516 0 564 0 c 256
 635 0 723 122 723 206 c 256
 723 288 543 425 436 425 c 258
 388 425 l 257
893 255 m 256
 881 255 868 265 868 279 c 256
 868 307 912 346 941 346 c 256
 952 346 959 337 959 328 c 256
 959 312 951 296 936 279 c 256
 921 263 907 255 893 255 c 256
  PathStart: -2
EndSplineSet
EndChar

StartChar: ChaOttu
Encoding: 88 -1 88
GlifName: C_haO_ttu
Width: 220
VWidth: 0
Flags: W
LayerCount: 2
Back
Fore
SplineSet
-37 -394 m 256
 -28 -394 -19 -396 -10 -401 c 257
 -21 -382 -24 -372 -24 -367 c 257
 -17 -312 l 257
 -17 -282 -48 -264 -92 -264 c 257
 -87 -274 l 257
 -86 -280 -85 -284 -85 -285 c 256
 -85 -300 -99 -346 -99 -360 c 256
 -99 -380 -86 -401 -65 -401 c 256
 -61 -401 -41 -394 -37 -394 c 256
  PathStart: -2
-79 -223 m 257
 -42 -262 5 -285 59 -285 c 256
 136 -285 203 -227 203 -154 c 256
 203 -119 190 -70 165 -7 c 256
 140 57 127 106 127 141 c 256
 127 155 137 175 155 189 c 257
 93 244 l 257
 66 221 52 196 52 175 c 256
 52 141 63 93 86 30 c 256
 109 -32 120 -80 120 -114 c 256
 120 -180 73 -238 17 -238 c 256
 -10 -238 -53 -200 -85 -142 c 257
 -154 -238 l 257
 -184 -238 -209 -220 -209 -197 c 256
 -209 -169 -169 -137 -113 -121 c 257
 -154 -87 l 257
 -163 -96 -186 -101 -216 -101 c 256
 -238 -101 -309 -73 -331 -73 c 256
 -357 -73 -377 -81 -393 -101 c 257
 -345 -154 l 257
 -330 -133 -304 -121 -276 -121 c 256
 -262 -121 -251 -123 -242 -128 c 257
 -275 -146 -297 -171 -297 -190 c 256
 -297 -228 -218 -278 -154 -278 c 258
 -120 -278 l 257
 -79 -223 l 257
EndSplineSet
EndChar

StartChar: ChaU
Encoding: 89 -1 89
GlifName: C_haU_
Width: 1082
VWidth: 0
Flags: W
LayerCount: 2
Back
Fore
SplineSet
451 -189 m 257
 530 -97 l 257
 489 -70 463 -44 463 -25 c 256
 463 -20 469 -12 469 -6 c 256
 469 1 460 5 456 5 c 257
 402 -41 371 -76 371 -97 c 256
 371 -107 378 -120 393 -137 c 256
 407 -153 426 -170 451 -189 c 257
  PathStart: -2
724 207 m 256
 724 283 563 410 457 425 c 257
 502 455 557 478 624 490 c 256
 703 504 760 531 782 563 c 257
 660 642 l 257
 630 588 576 551 509 539 c 256
 404 521 321 477 277 417 c 257
 399 362 l 257
 408 377 l 257
 432 377 l 258
 513 377 614 288 614 219 c 256
 614 150 562 73 511 73 c 256
 488 73 468 86 462 104 c 257
 467 117 480 132 499 140 c 257
 426 207 l 257
 379 207 349 73 286 73 c 256
 265 73 249 85 249 104 c 256
 249 138 283 179 341 213 c 257
 292 268 l 257
 273 255 253 249 231 249 c 256
 199 249 103 279 73 279 c 256
 45 279 19 268 0 243 c 257
 60 183 l 257
 79 197 98 207 115 207 c 256
 127 207 158 194 170 194 c 258
 194 194 l 257
 165 167 145 134 145 109 c 256
 145 57 252 0 341 0 c 256
 366 0 396 21 426 55 c 257
 467 22 517 0 565 0 c 256
 600 0 637 21 670 69 c 258
 692 101 l 257
 731 38 808 0 889 0 c 256
 974 0 1065 97 1065 193 c 256
 1065 214 1058 235 1041 258 c 256
 1014 294 938 335 938 369 c 256
 938 377 946 389 957 400 c 257
 866 442 l 257
 840 428 823 404 823 381 c 256
 823 364 852 337 902 309 c 256
 945 284 974 246 974 218 c 256
 974 147 909 72 847 72 c 256
 800 72 752 104 718 161 c 257
 722 176 724 192 724 207 c 256
  PathStart: -2
EndSplineSet
EndChar

StartChar: ChaUU
Encoding: 90 -1 90
GlifName: C_haU_U_
Width: 1405
VWidth: 0
Flags: W
LayerCount: 2
Back
Fore
SplineSet
451 -189 m 257
 530 -97 l 257
 489 -70 463 -44 463 -25 c 256
 463 -20 469 -12 469 -6 c 256
 469 1 460 5 456 5 c 257
 402 -41 371 -76 371 -97 c 256
 371 -107 378 -120 393 -137 c 256
 407 -153 426 -170 451 -189 c 257
  PathStart: -2
724 207 m 256
 724 283 563 410 457 425 c 257
 502 455 557 478 624 490 c 256
 703 504 760 531 782 563 c 257
 660 642 l 257
 630 588 576 551 509 539 c 256
 404 521 321 477 277 417 c 257
 399 362 l 257
 408 377 l 257
 432 377 l 258
 513 377 614 288 614 219 c 256
 614 150 562 73 511 73 c 256
 488 73 468 86 462 104 c 257
 467 117 480 132 499 140 c 257
 426 207 l 257
 379 207 349 73 286 73 c 256
 265 73 249 85 249 104 c 256
 249 138 283 179 341 213 c 257
 292 268 l 257
 273 255 253 249 231 249 c 256
 199 249 103 279 73 279 c 256
 45 279 19 268 0 243 c 257
 60 183 l 257
 79 197 98 207 115 207 c 256
 127 207 158 194 170 194 c 258
 194 194 l 257
 165 167 145 134 145 109 c 256
 145 57 252 0 341 0 c 256
 366 0 396 21 426 55 c 257
 467 22 517 0 565 0 c 256
 607 0 646 32 689 96 c 257
 727 37 802 0 877 0 c 256
 971 0 1066 101 1066 200 c 256
 1066 266 970 298 939 353 c 257
 1158 370 l 258
 1162 370 1167 370 1171 370 c 256
 1250 370 1303 324 1303 268 c 257
 1281 291 1251 304 1218 304 c 256
 1176 304 1109 231 1109 189 c 256
 1109 136 1190 66 1249 66 c 256
 1311 66 1388 167 1388 243 c 256
 1388 310 1273 426 1207 426 c 258
 1041 426 l 258
 957 426 890 440 841 468 c 257
 775 370 l 257
 795 359 819 353 847 353 c 257
 892 315 l 258
 942 273 969 247 969 232 c 256
 969 165 899 73 841 73 c 256
 792 73 743 99 713 146 c 257
 720 167 724 187 724 207 c 256
  PathStart: -2
1212 140 m 256
 1199 140 1188 147 1188 158 c 256
 1188 187 1230 232 1260 232 c 256
 1270 232 1279 221 1279 207 c 256
 1279 194 1271 180 1255 164 c 256
 1240 148 1225 140 1212 140 c 256
  PathStart: -2
EndSplineSet
EndChar

StartChar: D
Encoding: 91 68 91
GlifName: D_
Width: 491
VWidth: 0
Flags: W
AnchorPoint: "mark0" 241 451 basechar 0
AnchorPoint: "mark1" 0 0 basechar 0
LayerCount: 2
Back
Fore
SplineSet
253 454 m 257
 58 451 l 257
 64 134 l 257
 58 0 l 257
 116 -4 172 -5 227 -5 c 256
 383 -5 470 83 470 242 c 256
 470 379 393 454 253 454 c 257
  PathStart: -2
245 69 m 256
 222 69 193 70 158 73 c 257
 156 143 l 257
 160 374 l 257
 190 377 219 378 245 378 c 256
 327 378 364 330 364 220 c 256
 364 119 325 69 245 69 c 256
  PathStart: -2
EndSplineSet
EndChar

StartChar: D.ss01
Encoding: 92 -1 92
GlifName: D_.ss01
Width: 427
VWidth: 0
Flags: W
AnchorPoint: "mark0" 203 347 basechar 0
AnchorPoint: "mark1" 0 0 basechar 0
LayerCount: 2
Back
Fore
SplineSet
502 319 m 257
 502 353 l 257
 -75 353 l 257
 -75 319 l 257
 61 319 l 257
 64 106 l 257
 61 34 l 257
 -75 34 l 257
 -75 0 l 257
 502 0 l 257
 502 34 l 257
 327 34 l 257
 373 66 397 118 397 189 c 256
 397 248 376 292 337 319 c 257
 502 319 l 257
149 71 m 257
 148 115 l 257
 151 279 l 257
 172 281 193 281 214 281 c 256
 276 281 302 250 302 169 c 256
 302 100 273 66 215 66 c 256
 196 66 175 67 149 71 c 257
  PathStart: -2
EndSplineSet
EndChar

StartChar: DDaAA
Encoding: 93 -1 93
GlifName: D_D_aA_A_
Width: 1020
VWidth: 0
Flags: W
LayerCount: 2
Back
Fore
SplineSet
461 321 m 257
 502 321 543 336 569 362 c 257
 658 368 727 371 778 371 c 256
 864 371 918 330 918 269 c 257
 896 293 866 305 839 305 c 256
 795 305 723 234 723 190 c 256
 723 137 803 68 863 68 c 256
 924 68 1003 169 1003 244 c 256
 1003 312 888 426 820 426 c 258
 527 426 l 257
 516 438 l 257
 511 433 506 429 500 426 c 257
 304 426 l 258
 245 426 192 440 143 469 c 257
 83 371 l 257
 92 366 102 361 112 357 c 257
 57 312 30 257 30 194 c 256
 30 111 129 0 206 0 c 256
 239 0 274 21 304 55 c 257
 345 21 399 0 455 0 c 258
 504 0 l 258
 568 0 656 66 656 121 c 256
 656 177 559 255 498 255 c 256
 457 255 414 225 389 183 c 257
 455 121 l 257
 475 155 507 176 534 176 c 256
 547 176 559 164 559 151 c 256
 559 109 496 66 438 66 c 256
 400 66 366 80 340 104 c 257
 354 123 368 132 376 134 c 257
 310 206 l 257
 281 204 253 182 236 146 c 256
 216 105 187 79 164 79 c 256
 140 79 121 112 121 146 c 256
 121 229 193 326 279 343 c 257
 318 345 l 257
 461 321 l 257
826 141 m 256
 812 141 803 149 803 159 c 256
 803 188 845 233 875 233 c 256
 885 233 893 221 893 208 c 256
 893 195 885 181 869 165 c 256
 853 149 839 141 826 141 c 256
  PathStart: -2
EndSplineSet
EndChar

StartChar: DDaAU
Encoding: 94 -1 94
GlifName: D_D_aA_U_
Width: 993
VWidth: 0
Flags: W
LayerCount: 2
Back
Fore
SplineSet
548 402 m 257
 562 413 569 425 569 438 c 256
 569 462 549 490 520 510 c 257
 567 519 643 523 746 523 c 256
 822 523 891 480 891 425 c 257
 870 450 843 461 819 461 c 256
 761 461 698 412 698 359 c 256
 698 302 779 231 838 231 c 256
 905 231 976 307 976 383 c 256
 976 483 856 583 746 583 c 258
 369 583 l 258
 308 583 253 597 204 625 c 257
 138 529 l 257
 155 515 190 510 284 510 c 258
 435 510 l 258
 460 510 478 493 478 474 c 256
 478 447 456 425 429 425 c 258
 265 425 l 258
 259 425 253 423 246 419 c 257
 121 396 30 299 30 194 c 256
 30 111 129 0 206 0 c 256
 239 0 274 21 304 55 c 257
 345 21 399 0 455 0 c 258
 504 0 l 258
 568 0 656 66 656 121 c 256
 656 177 559 255 498 255 c 256
 457 255 414 225 389 183 c 257
 455 121 l 257
 475 155 507 176 534 176 c 256
 547 176 559 164 559 151 c 256
 559 109 496 66 438 66 c 256
 400 66 366 80 340 104 c 257
 354 123 368 132 376 134 c 257
 310 206 l 257
 281 204 253 182 236 146 c 256
 216 105 187 79 164 79 c 256
 140 79 121 112 121 146 c 256
 121 243 214 346 310 346 c 257
 461 321 l 257
 506 321 550 338 576 370 c 257
 548 402 l 257
795 298 m 256
 786 298 776 304 776 316 c 256
 776 346 819 389 849 389 c 256
 858 389 868 382 868 370 c 256
 868 355 860 340 843 323 c 256
 826 306 810 298 795 298 c 256
  PathStart: -2
EndSplineSet
EndChar

StartChar: DDaE
Encoding: 95 -1 95
GlifName: D_D_aE_
Width: 673
VWidth: 0
Flags: W
LayerCount: 2
Back
Fore
SplineSet
541 409 m 257
 585 438 608 464 608 504 c 256
 608 548 525 614 480 614 c 256
 443 614 315 589 278 589 c 256
 244 589 211 605 181 631 c 257
 78 565 l 257
 113 535 152 516 186 516 c 256
 234 516 396 546 444 546 c 256
 467 546 480 523 480 498 c 256
 480 459 437 425 381 425 c 258
 225 425 l 258
 214 425 204 417 202 408 c 257
 96 373 30 284 30 194 c 256
 30 111 129 0 206 0 c 256
 239 0 274 21 304 55 c 257
 345 21 399 0 455 0 c 258
 504 0 l 258
 568 0 656 66 656 121 c 256
 656 177 559 255 498 255 c 256
 457 255 414 225 389 183 c 257
 455 121 l 257
 475 155 507 176 534 176 c 256
 547 176 559 164 559 151 c 256
 559 109 496 66 438 66 c 256
 400 66 366 80 340 104 c 257
 354 123 368 132 376 134 c 257
 310 206 l 257
 281 204 253 182 236 146 c 256
 216 105 187 79 164 79 c 256
 140 79 121 112 121 146 c 256
 121 243 214 346 310 346 c 257
 461 321 l 257
 506 321 550 338 576 370 c 257
 541 409 l 257
 541 409 l 257
EndSplineSet
EndChar

StartChar: DDaEE
Encoding: 96 -1 96
GlifName: D_D_aE_E_
Width: 693
VWidth: 0
Flags: W
LayerCount: 2
Back
Fore
SplineSet
534 418 m 257
 579 442 601 471 601 504 c 256
 601 527 579 556 540 583 c 257
 534 608 l 257
 534 635 584 686 613 686 c 256
 626 686 644 674 644 661 c 256
 644 648 633 631 613 619 c 257
 680 565 l 257
 700 578 716 599 716 625 c 256
 716 684 633 765 583 765 c 256
 534 765 461 702 461 656 c 256
 461 646 465 632 474 614 c 257
 440 614 325 589 290 589 c 256
 256 589 222 605 194 631 c 257
 90 565 l 257
 128 532 167 516 199 516 c 256
 243 516 394 546 438 546 c 256
 461 546 474 523 474 498 c 256
 474 458 415 425 346 425 c 258
 215 425 l 258
 201 425 192 415 190 404 c 257
 89 364 30 280 30 194 c 256
 30 111 129 0 206 0 c 256
 239 0 274 21 304 55 c 257
 345 21 399 0 455 0 c 258
 504 0 l 258
 568 0 656 66 656 121 c 256
 656 177 559 255 498 255 c 256
 457 255 414 225 389 183 c 257
 455 121 l 257
 475 155 507 176 534 176 c 256
 547 176 559 164 559 151 c 256
 559 109 496 66 438 66 c 256
 400 66 366 80 340 104 c 257
 354 123 368 132 376 134 c 257
 310 206 l 257
 281 204 253 182 236 146 c 256
 216 105 187 79 164 79 c 256
 140 79 121 112 121 146 c 256
 121 243 214 346 310 346 c 257
 461 321 l 257
 506 321 550 338 576 370 c 257
 534 418 l 257
 534 418 l 257
EndSplineSet
EndChar

StartChar: DDaHalanth
Encoding: 97 -1 97
GlifName: D_D_aH_alanth
Width: 673
VWidth: 0
Flags: W
LayerCount: 2
Back
Fore
SplineSet
292 425 m 257
 329 472 405 449 437 476 c 257
 370 549 l 257
 360 541 344 534 322 531 c 258
 279 524 l 257
 267 524 254 537 254 549 c 256
 254 571 327 603 364 603 c 256
 400 603 505 549 540 549 c 256
 573 549 608 565 643 592 c 257
 558 671 l 257
 539 650 510 639 479 639 c 256
 444 639 332 677 297 677 c 256
 228 677 139 615 139 567 c 256
 139 546 173 514 218 488 c 257
 188 470 169 454 163 439 c 257
 167 428 176 416 191 404 c 257
 89 365 30 280 30 194 c 256
 30 111 129 0 206 0 c 256
 239 0 274 21 304 55 c 257
 345 21 399 0 455 0 c 258
 504 0 l 258
 568 0 656 66 656 121 c 256
 656 177 559 255 498 255 c 256
 457 255 414 225 389 183 c 257
 455 121 l 257
 475 155 507 176 534 176 c 256
 547 176 559 164 559 151 c 256
 559 109 496 66 438 66 c 256
 400 66 366 80 340 104 c 257
 354 123 368 132 376 134 c 257
 310 206 l 257
 281 204 253 182 236 146 c 256
 216 105 187 79 164 79 c 256
 140 79 121 112 121 146 c 256
 121 243 214 346 310 346 c 257
 461 321 l 257
 506 321 550 338 576 370 c 257
 516 438 l 257
 494 418 459 406 425 406 c 257
 310 425 l 257
 292 425 l 257
 292 425 l 257
EndSplineSet
EndChar

StartChar: DDaI
Encoding: 98 -1 98
GlifName: D_D_aI_
Width: 673
VWidth: 0
Flags: W
LayerCount: 2
Back
Fore
SplineSet
433 413 m 257
 460 436 471 466 471 498 c 256
 471 578 378 686 308 686 c 257
 299 690 l 258
 294 692 290 693 289 693 c 256
 225 693 174 648 174 595 c 256
 174 554 260 491 314 491 c 256
 346 491 381 511 405 540 c 257
 414 529 l 257
 415 525 416 521 416 516 c 256
 416 477 360 444 308 444 c 256
 272 444 243 451 229 461 c 257
 210 431 l 257
 230 416 l 257
 109 386 30 293 30 194 c 256
 30 111 129 0 206 0 c 256
 239 0 274 21 304 55 c 257
 345 21 399 0 455 0 c 258
 504 0 l 258
 568 0 656 66 656 121 c 256
 656 177 559 255 498 255 c 256
 457 255 414 225 389 183 c 257
 455 121 l 257
 475 155 507 176 534 176 c 256
 547 176 559 164 559 151 c 256
 559 109 496 66 438 66 c 256
 400 66 366 80 340 104 c 257
 354 123 368 132 376 134 c 257
 310 206 l 257
 281 204 253 182 236 146 c 256
 216 105 187 79 164 79 c 256
 140 79 121 112 121 146 c 256
 121 243 214 346 310 346 c 257
 461 321 l 257
 506 321 550 338 576 370 c 257
 516 438 l 257
 494 418 459 406 425 406 c 257
 433 413 l 257
265 553 m 256
 256 553 246 559 246 571 c 256
 246 594 289 625 325 625 c 256
 334 625 344 619 344 608 c 256
 344 595 336 582 319 570 c 256
 302 558 284 553 265 553 c 256
  PathStart: -2
EndSplineSet
EndChar

StartChar: DDaII
Encoding: 99 -1 99
GlifName: D_D_aI_I_
Width: 673
VWidth: 0
Flags: W
LayerCount: 2
Back
Fore
SplineSet
433 413 m 257
 460 436 471 466 471 498 c 256
 471 549 436 611 374 661 c 257
 370 673 368 681 368 686 c 256
 368 715 425 765 453 765 c 256
 465 765 478 750 478 741 c 256
 478 724 461 708 441 699 c 257
 514 638 l 257
 536 658 550 680 550 704 c 256
 550 761 473 838 416 838 c 256
 370 838 301 777 301 735 c 256
 301 708 304 692 308 686 c 257
 299 690 l 258
 294 692 290 693 289 693 c 256
 225 693 174 648 174 595 c 256
 174 554 260 491 314 491 c 256
 346 491 381 511 405 540 c 257
 414 529 l 257
 415 525 416 521 416 516 c 256
 416 477 360 444 308 444 c 256
 272 444 243 451 229 461 c 257
 210 431 l 257
 230 416 l 257
 109 386 30 293 30 194 c 256
 30 111 129 0 206 0 c 256
 239 0 274 21 304 55 c 257
 345 21 399 0 455 0 c 258
 504 0 l 258
 568 0 656 66 656 121 c 256
 656 177 559 255 498 255 c 256
 457 255 414 225 389 183 c 257
 455 121 l 257
 475 155 507 176 534 176 c 256
 547 176 559 164 559 151 c 256
 559 109 496 66 438 66 c 256
 400 66 366 80 340 104 c 257
 354 123 368 132 376 134 c 257
 310 206 l 257
 281 204 253 182 236 146 c 256
 216 105 187 79 164 79 c 256
 140 79 121 112 121 146 c 256
 121 243 214 346 310 346 c 257
 461 321 l 257
 506 321 550 338 576 370 c 257
 516 438 l 257
 494 418 459 406 425 406 c 257
 433 413 l 257
265 553 m 256
 256 553 246 559 246 571 c 256
 246 594 289 625 325 625 c 256
 334 625 344 619 344 608 c 256
 344 595 336 582 319 570 c 256
 302 558 284 553 265 553 c 256
  PathStart: -2
EndSplineSet
EndChar

StartChar: DDaO
Encoding: 100 -1 100
GlifName: D_D_aO_
Width: 1025
VWidth: 0
Flags: W
LayerCount: 2
Back
Fore
SplineSet
322 424 m 257
 310 426 l 257
 292 426 l 257
 282 429 l 257
 275 433 272 438 272 443 c 256
 272 469 345 496 412 496 c 258
 478 496 l 258
 515 496 550 480 576 454 c 257
 557 417 l 257
 571 392 606 369 655 351 c 257
 690 431 739 485 783 485 c 256
 842 485 923 425 923 381 c 257
 910 405 877 424 844 424 c 256
 784 424 722 362 722 302 c 256
 722 250 808 181 874 181 c 256
 932 181 1008 282 1008 357 c 256
 1008 450 837 564 715 564 c 256
 676 564 633 534 600 490 c 257
 554 533 506 558 466 558 c 258
 369 558 l 258
 261 558 138 503 138 448 c 256
 138 427 148 410 169 396 c 256
 170 396 170 396 170 395 c 257
 79 349 30 276 30 194 c 256
 30 110 129 0 207 0 c 256
 240 0 274 21 304 55 c 257
 344 22 397 0 456 0 c 258
 505 0 l 258
 569 0 657 66 657 121 c 256
 657 176 561 255 498 255 c 256
 458 255 414 228 389 183 c 257
 456 121 l 257
 476 155 505 177 535 177 c 256
 547 177 560 164 560 152 c 256
 560 108 495 66 438 66 c 256
 400 66 365 80 341 104 c 257
 355 123 369 132 377 134 c 257
 310 207 l 257
 282 205 253 180 237 147 c 256
 217 106 187 79 164 79 c 256
 140 79 121 111 121 147 c 256
 121 241 214 347 310 347 c 257
 462 322 l 257
 508 322 551 339 577 371 c 257
 517 438 l 257
 494 417 461 407 426 407 c 257
 363 417 l 257
 363 424 l 257
 322 424 l 257
826 253 m 256
 814 253 801 264 801 277 c 256
 801 306 846 345 874 345 c 256
 885 345 893 337 893 326 c 256
 893 310 885 294 870 277 c 256
 855 261 841 253 826 253 c 256
  PathStart: -2
EndSplineSet
EndChar

StartChar: DDaOO
Encoding: 101 -1 101
GlifName: D_D_aO_O_
Width: 1037
VWidth: 0
Flags: W
LayerCount: 2
Back
Fore
SplineSet
715 564 m 256
 676 564 633 534 600 490 c 257
 554 533 506 558 466 558 c 258
 369 558 l 258
 261 558 138 503 138 448 c 256
 138 427 148 410 169 396 c 256
 170 396 170 396 170 395 c 257
 79 349 30 276 30 194 c 256
 30 110 129 0 207 0 c 256
 240 0 274 21 304 55 c 257
 344 22 397 0 456 0 c 258
 505 0 l 258
 569 0 657 66 657 121 c 256
 657 176 561 255 498 255 c 256
 458 255 414 228 389 183 c 257
 456 121 l 257
 476 155 505 177 535 177 c 256
 547 177 560 164 560 152 c 256
 560 108 495 66 438 66 c 256
 400 66 365 80 341 104 c 257
 355 123 369 132 377 134 c 257
 310 207 l 257
 282 205 253 180 237 147 c 256
 217 106 187 79 164 79 c 256
 140 79 121 111 121 147 c 256
 121 241 214 347 310 347 c 257
 462 322 l 257
 508 322 551 339 577 371 c 257
 517 438 l 257
 494 417 461 407 426 407 c 257
 363 417 l 257
 363 424 l 257
 322 424 l 257
 310 426 l 257
 292 426 l 257
 282 429 l 257
 275 433 272 438 272 443 c 256
 272 469 345 496 412 496 c 258
 478 496 l 258
 515 496 550 480 576 454 c 257
 557 417 l 257
 571 392 606 369 655 351 c 257
 690 431 739 485 783 485 c 256
 842 485 923 425 923 381 c 257
 910 405 877 424 844 424 c 256
 784 424 722 362 722 302 c 256
 722 250 808 181 874 181 c 256
 932 181 1008 282 1008 357 c 256
 1008 402 975 448 910 495 c 256
 894 506 861 522 861 531 c 256
 861 566 907 622 940 622 c 256
 950 622 965 607 965 597 c 256
 965 576 955 555 940 542 c 257
 1012 488 l 257
 1034 506 1050 531 1050 554 c 256
 1050 603 959 688 904 688 c 256
 847 688 789 632 789 579 c 256
 789 570 791 561 795 552 c 257
 768 560 742 564 715 564 c 256
  PathStart: -2
826 253 m 256
 814 253 801 264 801 277 c 256
 801 306 846 345 874 345 c 256
 885 345 893 337 893 326 c 256
 893 310 885 294 870 277 c 256
 855 261 841 253 826 253 c 256
  PathStart: -2
EndSplineSet
EndChar

StartChar: DDaOttu
Encoding: 102 -1 102
GlifName: D_D_aO_ttu
Width: 39
VWidth: 0
Flags: W
LayerCount: 2
Back
Fore
SplineSet
293 -308 m 257
 368 -345 428 -363 471 -363 c 256
 512 -363 560 -315 560 -274 c 256
 560 -235 498 -178 457 -178 c 256
 415 -178 361 -214 361 -246 c 257
 416 -287 l 257
 416 -263 444 -226 471 -226 c 256
 485 -226 499 -238 499 -253 c 256
 499 -278 458 -308 416 -308 c 256
 361 -308 312 -278 279 -233 c 257
 240 -251 212 -282 198 -322 c 257
 160 -320 136 -287 136 -253 c 256
 136 -187 203 -130 272 -130 c 257
 457 -157 l 257
 493 -157 524 -149 547 -130 c 257
 478 -82 l 257
 464 -96 430 -102 392 -102 c 257
 238 -82 l 257
 147 -82 47 -163 47 -239 c 256
 47 -296 148 -370 212 -370 c 256
 228 -370 244 -368 260 -363 c 257
 270 -334 283 -314 293 -308 c 257
  PathStart: -2
EndSplineSet
EndChar

StartChar: DDaU
Encoding: 103 -1 103
GlifName: D_D_aU_
Width: 1002
VWidth: 0
Flags: W
LayerCount: 2
Back
Fore
SplineSet
317 58 m 257
 361 20 416 0 475 0 c 258
 526 0 l 258
 570 0 617 22 647 58 c 257
 691 19 742 0 794 0 c 256
 876 0 985 115 985 203 c 256
 985 233 952 272 902 325 c 258
 864 365 l 257
 855 378 851 387 851 394 c 256
 851 399 852 404 854 409 c 257
 863 421 l 257
 769 465 l 257
 749 449 736 427 736 407 c 256
 736 393 754 370 787 343 c 256
 841 298 876 255 876 229 c 256
 876 146 809 76 730 76 c 256
 709 76 684 87 667 109 c 257
 671 118 673 127 673 134 c 256
 673 192 578 267 520 267 c 256
 478 267 433 238 406 191 c 257
 475 127 l 257
 497 161 527 185 558 185 c 256
 571 185 584 172 584 159 c 256
 584 112 517 69 457 69 c 256
 418 69 380 84 355 109 c 257
 372 128 383 138 393 140 c 257
 323 216 l 257
 293 214 264 190 246 153 c 256
 226 112 196 83 170 83 c 256
 145 83 126 116 126 153 c 256
 126 259 226 369 323 369 c 256
 356 369 451 337 482 337 c 256
 530 337 576 355 602 388 c 257
 540 459 l 257
 514 437 479 426 444 426 c 257
 323 445 l 257
 306 445 291 443 279 439 c 257
 306 462 353 479 418 490 c 256
 483 501 533 524 551 554 c 257
 437 637 l 257
 414 595 339 554 234 528 c 256
 140 505 66 459 37 407 c 257
 94 356 l 257
 53 321 30 264 30 203 c 256
 30 116 134 0 215 0 c 256
 247 0 285 20 317 58 c 257
  PathStart: -2
EndSplineSet
EndChar

StartChar: DDaUU
Encoding: 104 -1 104
GlifName: D_D_aU_U_
Width: 1317
VWidth: 0
Flags: W
LayerCount: 2
Back
Fore
SplineSet
1095 161 m 256
 1095 192 1140 237 1169 237 c 256
 1179 237 1189 225 1189 211 c 256
 1189 187 1146 144 1119 144 c 256
 1105 144 1095 153 1095 161 c 256
  PathStart: -2
311 56 m 257
 352 21 407 0 466 0 c 258
 516 0 l 258
 559 0 604 20 634 56 c 257
 675 20 727 0 777 0 c 256
 858 0 971 116 971 205 c 256
 971 268 875 299 840 361 c 257
 1063 379 l 258
 1068 379 1074 380 1079 380 c 256
 1157 380 1213 333 1213 274 c 257
 1190 299 1160 311 1126 311 c 256
 1086 311 1014 239 1014 194 c 256
 1014 142 1093 68 1156 68 c 256
 1218 68 1300 171 1300 249 c 256
 1300 316 1184 436 1113 436 c 258
 945 436 l 258
 859 436 791 450 740 479 c 257
 671 379 l 257
 692 367 717 361 746 361 c 257
 816 311 858 259 858 224 c 256
 858 161 777 74 714 74 c 256
 693 74 671 86 653 106 c 257
 657 115 659 124 659 131 c 256
 659 188 568 261 509 261 c 256
 467 261 423 231 398 187 c 257
 466 124 l 257
 486 158 519 181 546 181 c 256
 559 181 572 168 572 155 c 256
 572 110 508 68 448 68 c 256
 409 68 374 82 348 106 c 257
 363 126 376 135 385 137 c 257
 317 211 l 257
 285 208 258 185 241 150 c 256
 221 108 192 81 167 81 c 256
 140 81 124 114 124 150 c 256
 124 251 218 361 317 361 c 256
 349 361 442 329 472 329 c 256
 519 329 564 347 590 379 c 257
 529 449 l 257
 506 428 472 416 435 416 c 257
 317 436 l 257
 300 436 285 434 273 429 c 257
 300 452 345 468 409 479 c 256
 474 490 523 514 540 542 c 257
 429 623 l 257
 406 584 332 541 230 516 c 256
 136 493 66 449 36 399 c 257
 93 349 l 257
 52 314 30 257 30 199 c 256
 30 113 131 0 211 0 c 256
 244 0 281 20 311 56 c 257
  PathStart: -2
EndSplineSet
EndChar

StartChar: DDhaAA
Encoding: 105 -1 105
GlifName: D_D_haA_A_
Width: 1020
VWidth: 0
Flags: W
LayerCount: 2
Back
Fore
SplineSet
310 -189 m 257
 389 -97 l 257
 349 -70 321 -42 321 -25 c 256
 321 -19 328 -12 328 -6 c 256
 328 0 321 5 316 5 c 257
 262 -41 231 -76 231 -97 c 256
 231 -108 238 -122 253 -137 c 257
 266 -153 285 -170 310 -189 c 257
  PathStart: -2
461 321 m 257
 502 321 543 336 569 362 c 257
 658 368 727 371 778 371 c 256
 864 371 918 330 918 269 c 257
 896 293 866 305 839 305 c 256
 795 305 723 234 723 190 c 256
 723 137 803 68 863 68 c 256
 924 68 1003 169 1003 244 c 256
 1003 312 888 426 820 426 c 258
 527 426 l 257
 516 438 l 257
 511 433 506 429 500 426 c 257
 304 426 l 258
 245 426 192 440 143 469 c 257
 83 371 l 257
 92 366 102 361 112 357 c 257
 57 312 30 257 30 194 c 256
 30 111 129 0 206 0 c 256
 239 0 274 21 304 55 c 257
 345 21 399 0 455 0 c 258
 504 0 l 258
 568 0 656 66 656 121 c 256
 656 177 559 255 498 255 c 256
 457 255 414 225 389 183 c 257
 455 121 l 257
 475 155 507 176 534 176 c 256
 547 176 559 164 559 151 c 256
 559 109 496 66 438 66 c 256
 400 66 366 80 340 104 c 257
 354 123 368 132 376 134 c 257
 310 206 l 257
 281 204 253 182 236 146 c 256
 216 105 187 79 164 79 c 256
 140 79 121 112 121 146 c 256
 121 229 193 326 279 343 c 257
 318 345 l 257
 461 321 l 257
826 141 m 256
 812 141 803 149 803 159 c 256
 803 188 845 233 875 233 c 256
 885 233 893 221 893 208 c 256
 893 195 885 181 869 165 c 256
 853 149 839 141 826 141 c 256
  PathStart: -2
EndSplineSet
EndChar

StartChar: DDhaAU
Encoding: 106 -1 106
GlifName: D_D_haA_U_
Width: 993
VWidth: 0
Flags: W
LayerCount: 2
Back
Fore
SplineSet
310 -189 m 257
 389 -97 l 257
 349 -70 321 -42 321 -25 c 256
 321 -19 328 -12 328 -6 c 256
 328 0 321 5 316 5 c 257
 262 -41 231 -76 231 -97 c 256
 231 -108 238 -122 253 -137 c 257
 266 -153 285 -170 310 -189 c 257
  PathStart: -2
548 402 m 257
 562 413 569 425 569 438 c 256
 569 462 549 490 520 510 c 257
 567 519 643 523 746 523 c 256
 822 523 891 480 891 425 c 257
 870 450 843 461 819 461 c 256
 761 461 698 412 698 359 c 256
 698 302 779 231 838 231 c 256
 905 231 976 307 976 383 c 256
 976 483 856 583 746 583 c 258
 369 583 l 258
 308 583 253 597 204 625 c 257
 138 529 l 257
 155 515 190 510 284 510 c 258
 435 510 l 258
 460 510 478 493 478 474 c 256
 478 447 456 425 429 425 c 258
 265 425 l 258
 259 425 253 423 246 419 c 257
 121 396 30 299 30 194 c 256
 30 111 129 0 206 0 c 256
 239 0 274 21 304 55 c 257
 345 21 399 0 455 0 c 258
 504 0 l 258
 568 0 656 66 656 121 c 256
 656 177 559 255 498 255 c 256
 457 255 414 225 389 183 c 257
 455 121 l 257
 475 155 507 176 534 176 c 256
 547 176 559 164 559 151 c 256
 559 109 496 66 438 66 c 256
 400 66 366 80 340 104 c 257
 354 123 368 132 376 134 c 257
 310 206 l 257
 281 204 253 182 236 146 c 256
 216 105 187 79 164 79 c 256
 140 79 121 112 121 146 c 256
 121 243 214 346 310 346 c 257
 461 321 l 257
 506 321 550 338 576 370 c 257
 548 402 l 257
795 298 m 256
 786 298 776 304 776 316 c 256
 776 346 819 389 849 389 c 256
 858 389 868 382 868 370 c 256
 868 355 860 340 843 323 c 256
 826 306 810 298 795 298 c 256
  PathStart: -2
EndSplineSet
EndChar

StartChar: DDhaE
Encoding: 107 -1 107
GlifName: D_D_haE_
Width: 673
VWidth: 0
Flags: W
LayerCount: 2
Back
Fore
SplineSet
310 -189 m 257
 389 -97 l 257
 349 -70 321 -42 321 -25 c 256
 321 -19 328 -12 328 -6 c 256
 328 0 321 5 316 5 c 257
 262 -41 231 -76 231 -97 c 256
 231 -108 238 -122 253 -137 c 257
 266 -153 285 -170 310 -189 c 257
  PathStart: -2
541 409 m 257
 585 438 608 464 608 504 c 256
 608 548 525 614 480 614 c 256
 443 614 315 589 278 589 c 256
 244 589 211 605 181 631 c 257
 78 565 l 257
 113 535 152 516 186 516 c 256
 234 516 396 546 444 546 c 256
 467 546 480 523 480 498 c 256
 480 459 437 425 381 425 c 258
 225 425 l 258
 214 425 204 417 202 408 c 257
 96 373 30 284 30 194 c 256
 30 111 129 0 206 0 c 256
 239 0 274 21 304 55 c 257
 345 21 399 0 455 0 c 258
 504 0 l 258
 568 0 656 66 656 121 c 256
 656 177 559 255 498 255 c 256
 457 255 414 225 389 183 c 257
 455 121 l 257
 475 155 507 176 534 176 c 256
 547 176 559 164 559 151 c 256
 559 109 496 66 438 66 c 256
 400 66 366 80 340 104 c 257
 354 123 368 132 376 134 c 257
 310 206 l 257
 281 204 253 182 236 146 c 256
 216 105 187 79 164 79 c 256
 140 79 121 112 121 146 c 256
 121 243 214 346 310 346 c 257
 461 321 l 257
 506 321 550 338 576 370 c 257
 541 409 l 257
EndSplineSet
EndChar

StartChar: DDhaEE
Encoding: 108 -1 108
GlifName: D_D_haE_E_
Width: 693
VWidth: 0
Flags: W
LayerCount: 2
Back
Fore
SplineSet
310 -189 m 257
 389 -97 l 257
 349 -70 321 -42 321 -25 c 256
 321 -19 328 -12 328 -6 c 256
 328 0 321 5 316 5 c 257
 262 -41 231 -76 231 -97 c 256
 231 -108 238 -122 253 -137 c 257
 266 -153 285 -170 310 -189 c 257
  PathStart: -2
534 418 m 257
 579 442 601 471 601 504 c 256
 601 527 579 556 540 583 c 257
 534 608 l 257
 534 635 584 686 613 686 c 256
 626 686 644 674 644 661 c 256
 644 648 633 631 613 619 c 257
 680 565 l 257
 700 578 716 599 716 625 c 256
 716 684 633 765 583 765 c 256
 534 765 461 702 461 656 c 256
 461 646 465 632 474 614 c 257
 440 614 325 589 290 589 c 256
 256 589 222 605 194 631 c 257
 90 565 l 257
 128 532 167 516 199 516 c 256
 243 516 394 546 438 546 c 256
 461 546 474 523 474 498 c 256
 474 458 415 425 346 425 c 258
 215 425 l 258
 201 425 192 415 190 404 c 257
 89 364 30 280 30 194 c 256
 30 111 129 0 206 0 c 256
 239 0 274 21 304 55 c 257
 345 21 399 0 455 0 c 258
 504 0 l 258
 568 0 656 66 656 121 c 256
 656 177 559 255 498 255 c 256
 457 255 414 225 389 183 c 257
 455 121 l 257
 475 155 507 176 534 176 c 256
 547 176 559 164 559 151 c 256
 559 109 496 66 438 66 c 256
 400 66 366 80 340 104 c 257
 354 123 368 132 376 134 c 257
 310 206 l 257
 281 204 253 182 236 146 c 256
 216 105 187 79 164 79 c 256
 140 79 121 112 121 146 c 256
 121 243 214 346 310 346 c 257
 461 321 l 257
 506 321 550 338 576 370 c 257
 534 418 l 257
EndSplineSet
EndChar

StartChar: DDhaHalanth
Encoding: 109 -1 109
GlifName: D_D_haH_alanth
Width: 673
VWidth: 0
Flags: W
LayerCount: 2
Back
Fore
SplineSet
292 425 m 257
 329 472 405 449 437 476 c 257
 370 549 l 257
 360 541 344 534 322 531 c 258
 279 524 l 257
 267 524 254 537 254 549 c 256
 254 571 327 603 364 603 c 256
 400 603 505 549 540 549 c 256
 573 549 608 565 643 592 c 257
 558 671 l 257
 539 650 510 639 479 639 c 256
 444 639 332 677 297 677 c 256
 228 677 139 615 139 567 c 256
 139 546 173 514 218 488 c 257
 188 470 169 454 163 439 c 257
 167 428 176 416 191 404 c 257
 89 365 30 280 30 194 c 256
 30 111 129 0 206 0 c 256
 239 0 274 21 304 55 c 257
 345 21 399 0 455 0 c 258
 504 0 l 258
 568 0 656 66 656 121 c 256
 656 177 559 255 498 255 c 256
 457 255 414 225 389 183 c 257
 455 121 l 257
 475 155 507 176 534 176 c 256
 547 176 559 164 559 151 c 256
 559 109 496 66 438 66 c 256
 400 66 366 80 340 104 c 257
 354 123 368 132 376 134 c 257
 310 206 l 257
 281 204 253 182 236 146 c 256
 216 105 187 79 164 79 c 256
 140 79 121 112 121 146 c 256
 121 243 214 346 310 346 c 257
 461 321 l 257
 506 321 550 338 576 370 c 257
 516 438 l 257
 494 418 459 406 425 406 c 257
 310 425 l 257
 292 425 l 257
310 -189 m 257
 389 -97 l 257
 349 -70 321 -42 321 -25 c 256
 321 -19 328 -12 328 -6 c 256
 328 0 321 5 316 5 c 257
 262 -41 231 -76 231 -97 c 256
 231 -108 238 -122 253 -137 c 257
 266 -153 285 -170 310 -189 c 257
  PathStart: -2
EndSplineSet
EndChar

StartChar: DDhaI
Encoding: 110 -1 110
GlifName: D_D_haI_
Width: 673
VWidth: 0
Flags: W
LayerCount: 2
Back
Fore
SplineSet
310 -189 m 257
 389 -97 l 257
 349 -70 321 -42 321 -25 c 256
 321 -19 328 -12 328 -6 c 256
 328 0 321 5 316 5 c 257
 262 -41 231 -76 231 -97 c 256
 231 -108 238 -122 253 -137 c 257
 266 -153 285 -170 310 -189 c 257
  PathStart: -2
433 413 m 257
 460 436 471 466 471 498 c 256
 471 578 378 686 308 686 c 257
 299 690 l 258
 294 692 290 693 289 693 c 256
 225 693 174 648 174 595 c 256
 174 554 260 491 314 491 c 256
 346 491 381 511 405 540 c 257
 414 529 l 257
 415 525 416 521 416 516 c 256
 416 477 360 444 308 444 c 256
 272 444 243 451 229 461 c 257
 210 431 l 257
 230 416 l 257
 109 386 30 293 30 194 c 256
 30 111 129 0 206 0 c 256
 239 0 274 21 304 55 c 257
 345 21 399 0 455 0 c 258
 504 0 l 258
 568 0 656 66 656 121 c 256
 656 177 559 255 498 255 c 256
 457 255 414 225 389 183 c 257
 455 121 l 257
 475 155 507 176 534 176 c 256
 547 176 559 164 559 151 c 256
 559 109 496 66 438 66 c 256
 400 66 366 80 340 104 c 257
 354 123 368 132 376 134 c 257
 310 206 l 257
 281 204 253 182 236 146 c 256
 216 105 187 79 164 79 c 256
 140 79 121 112 121 146 c 256
 121 243 214 346 310 346 c 257
 461 321 l 257
 506 321 550 338 576 370 c 257
 516 438 l 257
 494 418 459 406 425 406 c 257
 433 413 l 257
265 553 m 256
 256 553 246 559 246 571 c 256
 246 594 289 625 325 625 c 256
 334 625 344 619 344 608 c 256
 344 595 336 582 319 570 c 256
 302 558 284 553 265 553 c 256
  PathStart: -2
EndSplineSet
EndChar

StartChar: DDhaII
Encoding: 111 -1 111
GlifName: D_D_haI_I_
Width: 673
VWidth: 0
Flags: W
LayerCount: 2
Back
Fore
SplineSet
310 -189 m 257
 389 -97 l 257
 349 -70 321 -42 321 -25 c 256
 321 -19 328 -12 328 -6 c 256
 328 0 321 5 316 5 c 257
 262 -41 231 -76 231 -97 c 256
 231 -108 238 -122 253 -137 c 257
 266 -153 285 -170 310 -189 c 257
  PathStart: -2
433 413 m 257
 460 436 471 466 471 498 c 256
 471 549 436 611 374 661 c 257
 370 673 368 681 368 686 c 256
 368 715 425 765 453 765 c 256
 465 765 478 750 478 741 c 256
 478 724 461 708 441 699 c 257
 514 638 l 257
 536 658 550 680 550 704 c 256
 550 761 473 838 416 838 c 256
 370 838 301 777 301 735 c 256
 301 708 304 692 308 686 c 257
 299 690 l 258
 294 692 290 693 289 693 c 256
 225 693 174 648 174 595 c 256
 174 554 260 491 314 491 c 256
 346 491 381 511 405 540 c 257
 414 529 l 257
 415 525 416 521 416 516 c 256
 416 477 360 444 308 444 c 256
 272 444 243 451 229 461 c 257
 210 431 l 257
 230 416 l 257
 109 386 30 293 30 194 c 256
 30 111 129 0 206 0 c 256
 239 0 274 21 304 55 c 257
 345 21 399 0 455 0 c 258
 504 0 l 258
 568 0 656 66 656 121 c 256
 656 177 559 255 498 255 c 256
 457 255 414 225 389 183 c 257
 455 121 l 257
 475 155 507 176 534 176 c 256
 547 176 559 164 559 151 c 256
 559 109 496 66 438 66 c 256
 400 66 366 80 340 104 c 257
 354 123 368 132 376 134 c 257
 310 206 l 257
 281 204 253 182 236 146 c 256
 216 105 187 79 164 79 c 256
 140 79 121 112 121 146 c 256
 121 243 214 346 310 346 c 257
 461 321 l 257
 506 321 550 338 576 370 c 257
 516 438 l 257
 494 418 459 406 425 406 c 257
 433 413 l 257
265 553 m 256
 256 553 246 559 246 571 c 256
 246 594 289 625 325 625 c 256
 334 625 344 619 344 608 c 256
 344 595 336 582 319 570 c 256
 302 558 284 553 265 553 c 256
  PathStart: -2
EndSplineSet
EndChar

StartChar: DDhaO
Encoding: 112 -1 112
GlifName: D_D_haO_
Width: 1025
VWidth: 0
Flags: W
LayerCount: 2
Back
Fore
SplineSet
310 -189 m 257
 389 -97 l 257
 349 -70 321 -42 321 -25 c 256
 321 -19 328 -12 328 -6 c 256
 328 0 321 5 316 5 c 257
 262 -41 231 -76 231 -97 c 256
 231 -108 238 -122 253 -137 c 257
 266 -153 285 -170 310 -189 c 257
  PathStart: -2
322 424 m 257
 310 426 l 257
 292 426 l 257
 282 429 l 257
 275 433 272 438 272 443 c 256
 272 469 345 496 412 496 c 258
 478 496 l 258
 515 496 550 480 576 454 c 257
 557 417 l 257
 571 392 606 369 655 351 c 257
 690 431 739 485 783 485 c 256
 842 485 923 425 923 381 c 257
 910 405 877 424 844 424 c 256
 784 424 722 362 722 302 c 256
 722 250 808 181 874 181 c 256
 932 181 1008 282 1008 357 c 256
 1008 450 837 564 715 564 c 256
 676 564 633 534 600 490 c 257
 554 533 506 558 466 558 c 258
 369 558 l 258
 261 558 138 503 138 448 c 256
 138 427 148 410 169 396 c 256
 170 396 170 396 170 395 c 257
 79 349 30 276 30 194 c 256
 30 110 129 0 207 0 c 256
 240 0 274 21 304 55 c 257
 344 22 397 0 456 0 c 258
 505 0 l 258
 569 0 657 66 657 121 c 256
 657 176 561 255 498 255 c 256
 458 255 414 228 389 183 c 257
 456 121 l 257
 476 155 505 177 535 177 c 256
 547 177 560 164 560 152 c 256
 560 108 495 66 438 66 c 256
 400 66 365 80 341 104 c 257
 355 123 369 132 377 134 c 257
 310 207 l 257
 282 205 253 180 237 147 c 256
 217 106 187 79 164 79 c 256
 140 79 121 111 121 147 c 256
 121 241 214 347 310 347 c 257
 462 322 l 257
 508 322 551 339 577 371 c 257
 517 438 l 257
 494 417 461 407 426 407 c 257
 363 417 l 257
 363 424 l 257
 322 424 l 257
826 253 m 256
 814 253 801 264 801 277 c 256
 801 306 846 345 874 345 c 256
 885 345 893 337 893 326 c 256
 893 310 885 294 870 277 c 256
 855 261 841 253 826 253 c 256
  PathStart: -2
EndSplineSet
EndChar

StartChar: DDhaOO
Encoding: 113 -1 113
GlifName: D_D_haO_O_
Width: 1037
VWidth: 0
Flags: W
LayerCount: 2
Back
Fore
SplineSet
310 -189 m 257
 389 -97 l 257
 349 -70 321 -42 321 -25 c 256
 321 -19 328 -12 328 -6 c 256
 328 0 321 5 316 5 c 257
 262 -41 231 -76 231 -97 c 256
 231 -108 238 -122 253 -137 c 257
 266 -153 285 -170 310 -189 c 257
  PathStart: -2
715 564 m 256
 676 564 633 534 600 490 c 257
 554 533 506 558 466 558 c 258
 369 558 l 258
 261 558 138 503 138 448 c 256
 138 427 148 410 169 396 c 256
 170 396 170 396 170 395 c 257
 79 349 30 276 30 194 c 256
 30 110 129 0 207 0 c 256
 240 0 274 21 304 55 c 257
 344 22 397 0 456 0 c 258
 505 0 l 258
 569 0 657 66 657 121 c 256
 657 176 561 255 498 255 c 256
 458 255 414 228 389 183 c 257
 456 121 l 257
 476 155 505 177 535 177 c 256
 547 177 560 164 560 152 c 256
 560 108 495 66 438 66 c 256
 400 66 365 80 341 104 c 257
 355 123 369 132 377 134 c 257
 310 207 l 257
 282 205 253 180 237 147 c 256
 217 106 187 79 164 79 c 256
 140 79 121 111 121 147 c 256
 121 241 214 347 310 347 c 257
 462 322 l 257
 508 322 551 339 577 371 c 257
 517 438 l 257
 494 417 461 407 426 407 c 257
 363 417 l 257
 363 424 l 257
 322 424 l 257
 310 426 l 257
 292 426 l 257
 282 429 l 257
 275 433 272 438 272 443 c 256
 272 469 345 496 412 496 c 258
 478 496 l 258
 515 496 550 480 576 454 c 257
 557 417 l 257
 571 392 606 369 655 351 c 257
 690 431 739 485 783 485 c 256
 842 485 923 425 923 381 c 257
 910 405 877 424 844 424 c 256
 784 424 722 362 722 302 c 256
 722 250 808 181 874 181 c 256
 932 181 1008 282 1008 357 c 256
 1008 402 975 448 910 495 c 256
 894 506 861 522 861 531 c 256
 861 566 907 622 940 622 c 256
 950 622 965 607 965 597 c 256
 965 576 955 555 940 542 c 257
 1012 488 l 257
 1034 506 1050 531 1050 554 c 256
 1050 603 959 688 904 688 c 256
 847 688 789 632 789 579 c 256
 789 570 791 561 795 552 c 257
 768 560 742 564 715 564 c 256
  PathStart: -2
826 253 m 256
 814 253 801 264 801 277 c 256
 801 306 846 345 874 345 c 256
 885 345 893 337 893 326 c 256
 893 310 885 294 870 277 c 256
 855 261 841 253 826 253 c 256
  PathStart: -2
EndSplineSet
EndChar

StartChar: DDhaOttu
Encoding: 114 -1 114
GlifName: D_D_haO_ttu
Width: 39
VWidth: 0
Flags: W
LayerCount: 2
Back
Fore
SplineSet
341 -472 m 256
 352 -472 361 -474 368 -478 c 257
 358 -458 l 258
 356 -453 355 -448 355 -444 c 258
 361 -389 l 257
 361 -359 330 -341 286 -341 c 257
 291 -351 l 257
 292 -357 293 -361 293 -363 c 256
 293 -377 279 -424 279 -437 c 256
 279 -457 292 -478 313 -478 c 256
 317 -478 337 -472 341 -472 c 256
  PathStart: -2
293 -308 m 257
 368 -345 428 -363 471 -363 c 256
 512 -363 560 -315 560 -274 c 256
 560 -235 498 -178 457 -178 c 256
 415 -178 361 -214 361 -246 c 257
 416 -287 l 257
 416 -263 444 -226 471 -226 c 256
 485 -226 499 -238 499 -253 c 256
 499 -278 458 -308 416 -308 c 256
 361 -308 312 -278 279 -233 c 257
 240 -251 212 -282 198 -322 c 257
 160 -320 136 -287 136 -253 c 256
 136 -187 203 -130 272 -130 c 257
 457 -157 l 257
 493 -157 524 -149 547 -130 c 257
 478 -82 l 257
 464 -96 430 -102 392 -102 c 257
 238 -82 l 257
 147 -82 47 -163 47 -239 c 256
 47 -296 148 -370 212 -370 c 256
 228 -370 244 -368 260 -363 c 257
 270 -334 283 -314 293 -308 c 257
  PathStart: -2
EndSplineSet
EndChar

StartChar: DDhaU
Encoding: 115 -1 115
GlifName: D_D_haU_
Width: 1002
VWidth: 0
Flags: W
LayerCount: 2
Back
Fore
SplineSet
310 -189 m 257
 389 -97 l 257
 349 -70 321 -42 321 -25 c 256
 321 -19 328 -12 328 -6 c 256
 328 0 321 5 316 5 c 257
 262 -41 231 -76 231 -97 c 256
 231 -108 238 -122 253 -137 c 257
 266 -153 285 -170 310 -189 c 257
  PathStart: -2
317 58 m 257
 361 20 416 0 475 0 c 258
 526 0 l 258
 570 0 617 22 647 58 c 257
 691 19 742 0 794 0 c 256
 876 0 985 115 985 203 c 256
 985 233 952 272 902 325 c 258
 864 365 l 257
 855 378 851 387 851 394 c 256
 851 399 852 404 854 409 c 257
 863 421 l 257
 769 465 l 257
 749 449 736 427 736 407 c 256
 736 393 754 370 787 343 c 256
 841 298 876 255 876 229 c 256
 876 146 809 76 730 76 c 256
 709 76 684 87 667 109 c 257
 671 118 673 127 673 134 c 256
 673 192 578 267 520 267 c 256
 478 267 433 238 406 191 c 257
 475 127 l 257
 497 161 527 185 558 185 c 256
 571 185 584 172 584 159 c 256
 584 112 517 69 457 69 c 256
 418 69 380 84 355 109 c 257
 372 128 383 138 393 140 c 257
 323 216 l 257
 293 214 264 190 246 153 c 256
 226 112 196 83 170 83 c 256
 145 83 126 116 126 153 c 256
 126 259 226 369 323 369 c 256
 356 369 451 337 482 337 c 256
 530 337 576 355 602 388 c 257
 540 459 l 257
 514 437 479 426 444 426 c 257
 323 445 l 257
 306 445 291 443 279 439 c 257
 306 462 353 479 418 490 c 256
 483 501 533 524 551 554 c 257
 437 637 l 257
 414 595 339 554 234 528 c 256
 140 505 66 459 37 407 c 257
 94 356 l 257
 53 321 30 264 30 203 c 256
 30 116 134 0 215 0 c 256
 247 0 285 20 317 58 c 257
  PathStart: -2
EndSplineSet
EndChar

StartChar: DDhaUU
Encoding: 116 -1 116
GlifName: D_D_haU_U_
Width: 1317
VWidth: 0
Flags: W
LayerCount: 2
Back
Fore
SplineSet
310 -189 m 257
 389 -97 l 257
 349 -70 321 -42 321 -25 c 256
 321 -19 328 -12 328 -6 c 256
 328 0 321 5 316 5 c 257
 262 -41 231 -76 231 -97 c 256
 231 -108 238 -122 253 -137 c 257
 266 -153 285 -170 310 -189 c 257
  PathStart: -2
1095 161 m 256
 1095 192 1140 237 1169 237 c 256
 1179 237 1189 225 1189 211 c 256
 1189 187 1146 144 1119 144 c 256
 1105 144 1095 153 1095 161 c 256
  PathStart: -2
311 56 m 257
 352 21 407 0 466 0 c 258
 516 0 l 258
 559 0 604 20 634 56 c 257
 675 20 727 0 777 0 c 256
 858 0 971 116 971 205 c 256
 971 268 875 299 840 361 c 257
 1063 379 l 258
 1068 379 1074 380 1079 380 c 256
 1157 380 1213 333 1213 274 c 257
 1190 299 1160 311 1126 311 c 256
 1086 311 1014 239 1014 194 c 256
 1014 142 1093 68 1156 68 c 256
 1218 68 1300 171 1300 249 c 256
 1300 316 1184 436 1113 436 c 258
 945 436 l 258
 859 436 791 450 740 479 c 257
 671 379 l 257
 692 367 717 361 746 361 c 257
 816 311 858 259 858 224 c 256
 858 161 777 74 714 74 c 256
 693 74 671 86 653 106 c 257
 657 115 659 124 659 131 c 256
 659 188 568 261 509 261 c 256
 467 261 423 231 398 187 c 257
 466 124 l 257
 486 158 519 181 546 181 c 256
 559 181 572 168 572 155 c 256
 572 110 508 68 448 68 c 256
 409 68 374 82 348 106 c 257
 363 126 376 135 385 137 c 257
 317 211 l 257
 285 208 258 185 241 150 c 256
 221 108 192 81 167 81 c 256
 140 81 124 114 124 150 c 256
 124 251 218 361 317 361 c 256
 349 361 442 329 472 329 c 256
 519 329 564 347 590 379 c 257
 529 449 l 257
 506 428 472 416 435 416 c 257
 317 436 l 257
 300 436 285 434 273 429 c 257
 300 452 345 468 409 479 c 256
 474 490 523 514 540 542 c 257
 429 623 l 257
 406 584 332 541 230 516 c 256
 136 493 66 449 36 399 c 257
 93 349 l 257
 52 314 30 257 30 199 c 256
 30 113 131 0 211 0 c 256
 244 0 281 20 311 56 c 257
  PathStart: -2
EndSplineSet
EndChar

StartChar: DEVANAGARI_DANDA
Encoding: 117 2404 117
GlifName: D_E_V_A_N_A_G_A_R_I__D_A_N_D_A_
Width: 245
VWidth: 0
Flags: W
LayerCount: 2
Back
Fore
SplineSet
186 456 m 257
 125 456 l 257
 125 -37 l 257
 186 -37 l 257
 186 456 l 257
EndSplineSet
EndChar

StartChar: DEVANAGARI_DOUBLE_DANDA
Encoding: 118 2405 118
GlifName: D_E_V_A_N_A_G_A_R_I__D_O_U_B_L_E__D_A_N_D_A_
Width: 439
VWidth: 0
Flags: W
LayerCount: 2
Back
Fore
SplineSet
380 456 m 257
 319 456 l 257
 319 -37 l 257
 380 -37 l 257
 380 456 l 257
186 456 m 257
 125 456 l 257
 125 -37 l 257
 186 -37 l 257
 186 456 l 257
EndSplineSet
EndChar

StartChar: DaAA
Encoding: 119 -1 119
GlifName: D_aA_A_
Width: 992
VWidth: 0
Flags: W
LayerCount: 2
Back
Fore
SplineSet
750 378 m 256
 836 378 890 335 890 275 c 257
 869 300 839 311 811 311 c 256
 769 311 695 241 695 196 c 256
 695 144 775 74 835 74 c 256
 896 74 975 175 975 250 c 256
 975 318 861 433 793 433 c 258
 276 433 l 258
 218 433 164 447 115 475 c 257
 55 378 l 257
 72 369 89 361 107 356 c 257
 56 312 30 258 30 194 c 256
 30 105 131 0 219 0 c 256
 252 0 286 21 316 55 c 257
 346 20 398 0 455 0 c 256
 545 0 619 84 619 183 c 256
 619 239 577 312 492 365 c 257
 605 374 691 378 750 378 c 256
  PathStart: -2
799 148 m 256
 785 148 775 157 775 165 c 256
 775 195 817 239 848 239 c 256
 857 239 865 226 865 214 c 256
 865 201 857 187 841 171 c 256
 826 156 812 148 799 148 c 256
  PathStart: -2
176 79 m 256
 140 79 115 116 115 158 c 256
 115 248 215 346 316 346 c 256
 422 346 529 270 529 194 c 256
 529 133 463 61 406 61 c 256
 374 61 353 79 353 98 c 256
 353 106 362 117 376 121 c 257
 285 170 l 257
 255 170 237 116 213 95 c 256
 200 84 188 79 176 79 c 256
  PathStart: -2
EndSplineSet
EndChar

StartChar: DaAU
Encoding: 120 -1 120
GlifName: D_aA_U_
Width: 946
VWidth: 0
Flags: W
LayerCount: 2
Back
Fore
SplineSet
521 438 m 256
 521 463 502 491 473 510 c 257
 520 519 596 523 699 523 c 256
 778 523 844 478 844 425 c 257
 824 449 795 461 771 461 c 256
 711 461 650 408 650 359 c 256
 650 305 730 231 790 231 c 256
 856 231 929 308 929 383 c 256
 929 478 812 583 699 583 c 258
 321 583 l 258
 260 583 205 597 156 625 c 257
 90 529 l 257
 108 515 143 510 236 510 c 258
 388 510 l 258
 409 510 430 496 430 474 c 256
 430 447 408 425 381 425 c 258
 365 425 l 257
 347 429 329 431 310 431 c 256
 287 431 266 429 245 425 c 257
 218 425 l 258
 207 425 196 420 185 409 c 258
 181 405 l 257
 86 363 30 281 30 194 c 256
 30 105 131 0 219 0 c 256
 252 0 286 21 316 55 c 257
 346 20 398 0 455 0 c 256
 545 0 619 84 619 183 c 256
 619 249 566 318 465 384 c 257
 502 396 521 416 521 438 c 256
  PathStart: -2
748 298 m 256
 737 298 729 305 729 316 c 256
 729 345 771 389 801 389 c 256
 812 389 820 381 820 370 c 256
 820 355 812 340 795 323 c 256
 778 306 763 298 748 298 c 256
  PathStart: -2
176 79 m 256
 140 79 115 116 115 158 c 256
 115 248 215 346 316 346 c 256
 422 346 529 270 529 194 c 256
 529 133 463 61 406 61 c 256
 374 61 353 79 353 98 c 256
 353 106 362 117 376 121 c 257
 285 170 l 257
 255 170 237 116 213 95 c 256
 200 84 188 79 176 79 c 256
  PathStart: -2
EndSplineSet
EndChar

StartChar: DaE
Encoding: 121 -1 121
GlifName: D_aE_
Width: 636
VWidth: 0
Flags: W
LayerCount: 2
Back
Fore
SplineSet
580 504 m 256
 580 548 498 614 453 614 c 256
 415 614 288 589 250 589 c 256
 216 589 182 605 154 631 c 257
 50 565 l 257
 88 532 127 516 159 516 c 256
 207 516 368 546 416 546 c 256
 438 546 453 524 453 498 c 256
 453 461 414 429 364 425 c 257
 346 429 328 431 310 431 c 256
 287 431 266 429 245 425 c 257
 198 425 l 258
 185 425 174 414 174 401 c 257
 85 360 30 278 30 194 c 256
 30 105 131 0 219 0 c 256
 252 0 286 21 316 55 c 257
 346 20 398 0 455 0 c 256
 545 0 619 84 619 183 c 256
 619 249 564 323 460 387 c 257
 534 407 580 455 580 504 c 256
  PathStart: -2
176 79 m 256
 140 79 115 116 115 158 c 256
 115 248 215 346 316 346 c 256
 422 346 529 270 529 194 c 256
 529 133 463 61 406 61 c 256
 374 61 353 79 353 98 c 256
 353 106 362 117 376 121 c 257
 285 170 l 257
 255 170 237 116 213 95 c 256
 200 84 188 79 176 79 c 256
  PathStart: -2
EndSplineSet
EndChar

StartChar: DaEE
Encoding: 122 -1 122
GlifName: D_aE_E_
Width: 636
VWidth: 0
Flags: W
LayerCount: 2
Back
Fore
SplineSet
250 589 m 256
 216 589 182 605 154 631 c 257
 50 565 l 257
 88 532 127 516 159 516 c 256
 207 516 368 546 416 546 c 256
 438 546 453 524 453 498 c 256
 453 461 414 429 364 425 c 257
 346 429 328 431 310 431 c 256
 287 431 266 429 245 425 c 257
 198 425 l 258
 185 425 174 414 174 401 c 257
 85 360 30 278 30 194 c 256
 30 105 131 0 219 0 c 256
 252 0 286 21 316 55 c 257
 346 20 398 0 455 0 c 256
 545 0 619 84 619 183 c 256
 619 249 564 323 460 387 c 257
 534 407 580 455 580 504 c 256
 580 524 558 565 515 590 c 257
 511 606 l 257
 511 634 564 688 593 688 c 256
 603 688 625 675 625 662 c 256
 625 647 614 631 593 618 c 257
 662 562 l 257
 684 576 700 597 700 624 c 256
 700 682 617 769 562 769 c 256
 511 769 436 702 436 656 c 256
 436 646 440 632 449 614 c 257
 410 612 287 589 250 589 c 256
  PathStart: -2
176 79 m 256
 140 79 115 116 115 158 c 256
 115 248 215 346 316 346 c 256
 422 346 529 270 529 194 c 256
 529 133 463 61 406 61 c 256
 374 61 353 79 353 98 c 256
 353 106 362 117 376 121 c 257
 285 170 l 257
 255 170 237 116 213 95 c 256
 200 84 188 79 176 79 c 256
  PathStart: -2
EndSplineSet
EndChar

StartChar: DaHalanth
Encoding: 123 -1 123
GlifName: D_aH_alanth
Width: 643
VWidth: 0
Flags: W
LayerCount: 2
Back
Fore
SplineSet
316 425 m 257
 296 429 280 436 274 444 c 257
 307 496 385 468 420 498 c 257
 354 571 l 257
 344 563 328 557 305 553 c 258
 263 546 l 257
 249 546 238 558 238 571 c 256
 238 594 311 625 348 625 c 256
 385 625 490 571 524 571 c 256
 558 571 592 588 626 614 c 257
 541 693 l 257
 524 672 494 661 463 661 c 256
 428 661 315 699 280 699 c 256
 211 699 123 638 123 589 c 256
 123 569 155 537 201 510 c 257
 172 492 152 475 146 461 c 257
 153 444 171 426 200 407 c 257
 94 370 30 283 30 194 c 256
 30 105 131 0 219 0 c 256
 252 0 286 21 316 55 c 257
 346 20 398 0 455 0 c 256
 545 0 619 84 619 183 c 256
 619 249 545 347 426 399 c 257
 426 425 l 257
 316 425 l 257
176 79 m 256
 140 79 115 116 115 158 c 256
 115 248 215 346 316 346 c 256
 422 346 529 270 529 194 c 256
 529 133 463 61 406 61 c 256
 374 61 353 79 353 98 c 256
 353 111 368 126 389 134 c 257
 321 206 l 257
 277 206 252 128 213 95 c 256
 200 84 188 79 176 79 c 256
  PathStart: -2
EndSplineSet
EndChar

StartChar: DaI
Encoding: 124 -1 124
GlifName: D_aI_
Width: 642
VWidth: 0
Flags: W
LayerCount: 2
Back
Fore
SplineSet
109 158 m 256
 109 204 143 255 194 291 c 257
 202 287 214 285 231 285 c 256
 287 285 341 328 359 395 c 257
 457 360 529 291 529 225 c 256
 529 140 476 66 406 66 c 256
 380 66 358 78 346 98 c 257
 351 113 l 258
 354 122 356 127 359 128 c 257
 279 164 l 257
 260 160 248 150 243 140 c 256
 219 99 194 79 176 79 c 256
 138 79 109 115 109 158 c 256
  PathStart: -2
176 364 m 256
 176 389 222 419 261 419 c 256
 267 419 274 411 274 401 c 256
 274 374 231 340 200 340 c 256
 188 340 176 352 176 364 c 256
  PathStart: -2
316 49 m 257
 357 19 405 0 449 0 c 256
 543 0 625 94 625 213 c 256
 625 265 578 324 485 389 c 256
 392 454 307 486 231 486 c 256
 169 486 104 433 104 383 c 256
 104 370 112 352 128 334 c 257
 66 307 30 250 30 189 c 256
 30 107 148 0 231 0 c 256
 267 0 300 20 316 49 c 257
  PathStart: -2
EndSplineSet
EndChar

StartChar: DaII
Encoding: 125 -1 125
GlifName: D_aI_I_
Width: 642
VWidth: 0
Flags: W
LayerCount: 2
Back
Fore
SplineSet
109 158 m 256
 109 204 143 255 194 291 c 257
 202 287 214 285 231 285 c 256
 288 285 337 327 353 389 c 257
 454 352 529 285 529 225 c 256
 529 140 476 66 406 66 c 256
 380 66 358 78 346 98 c 257
 350 107 357 119 370 121 c 257
 285 164 l 257
 265 160 249 152 243 140 c 256
 220 99 193 79 176 79 c 256
 138 79 109 115 109 158 c 256
  PathStart: -2
176 364 m 256
 176 389 222 419 261 419 c 256
 267 419 274 411 274 401 c 256
 274 374 231 340 200 340 c 256
 188 340 176 352 176 364 c 256
  PathStart: -2
316 49 m 257
 357 19 405 0 449 0 c 256
 546 0 625 99 625 219 c 256
 625 300 490 403 298 474 c 257
 293 481 291 491 291 504 c 256
 291 536 347 583 383 583 c 256
 393 583 406 567 406 553 c 256
 406 532 391 514 370 504 c 257
 444 449 l 257
 467 470 480 494 480 516 c 256
 480 569 400 644 346 644 c 256
 293 644 219 587 219 540 c 256
 219 518 227 498 243 486 c 257
 174 486 104 433 104 383 c 256
 104 370 112 352 128 334 c 257
 66 307 30 250 30 189 c 256
 30 107 148 0 231 0 c 256
 267 0 300 20 316 49 c 257
  PathStart: -2
EndSplineSet
EndChar

StartChar: DaO
Encoding: 126 -1 126
GlifName: D_aO_
Width: 996
VWidth: 0
Flags: W
LayerCount: 2
Back
Fore
SplineSet
254 430 m 257
 247 434 244 439 244 444 c 256
 244 469 318 498 384 498 c 258
 450 498 l 258
 487 498 522 481 548 455 c 257
 529 419 l 257
 543 393 579 370 626 353 c 257
 663 434 711 486 754 486 c 256
 813 486 894 425 894 383 c 257
 880 408 849 425 815 425 c 256
 754 425 694 365 694 304 c 256
 694 251 780 183 845 183 c 256
 904 183 979 283 979 359 c 256
 979 448 812 565 686 565 c 256
 649 565 603 535 571 491 c 257
 527 534 478 559 438 559 c 258
 341 559 l 258
 230 559 110 503 110 449 c 256
 110 427 124 403 154 391 c 257
 73 342 30 274 30 194 c 256
 30 105 131 0 219 0 c 256
 252 0 286 21 316 55 c 257
 346 20 398 0 455 0 c 256
 545 0 619 84 619 183 c 256
 619 290 443 431 310 431 c 256
 293 431 276 430 260 428 c 257
 254 430 l 257
798 255 m 256
 786 255 773 265 773 279 c 256
 773 307 817 346 845 346 c 256
 855 346 864 338 864 328 c 256
 864 312 856 296 841 279 c 256
 826 263 812 255 798 255 c 256
  PathStart: -2
176 79 m 256
 140 79 115 116 115 158 c 256
 115 248 215 346 316 346 c 256
 422 346 529 270 529 194 c 256
 529 133 463 61 406 61 c 256
 374 61 353 79 353 98 c 256
 353 106 362 117 376 121 c 257
 285 170 l 257
 255 170 237 116 213 95 c 256
 200 84 188 79 176 79 c 256
  PathStart: -2
EndSplineSet
EndChar

StartChar: DaOO
Encoding: 127 -1 127
GlifName: D_aO_O_
Width: 1038
VWidth: 0
Flags: W
LayerCount: 2
Back
Fore
SplineSet
686 565 m 256
 649 565 603 535 571 491 c 257
 527 534 478 559 438 559 c 258
 341 559 l 258
 230 559 110 503 110 449 c 256
 110 427 124 403 154 391 c 257
 73 342 30 274 30 194 c 256
 30 105 131 0 219 0 c 256
 252 0 286 21 316 55 c 257
 346 20 398 0 455 0 c 256
 545 0 619 84 619 183 c 256
 619 290 443 431 310 431 c 256
 293 431 276 430 260 428 c 257
 254 430 l 257
 247 434 244 439 244 444 c 256
 244 469 318 498 384 498 c 258
 450 498 l 258
 487 498 522 481 548 455 c 257
 529 419 l 257
 543 393 579 370 626 353 c 257
 663 434 711 486 754 486 c 256
 813 486 894 425 894 383 c 257
 880 408 849 425 815 425 c 256
 754 425 694 365 694 304 c 256
 694 251 780 183 845 183 c 256
 904 183 979 283 979 359 c 256
 979 404 946 449 881 496 c 256
 869 504 843 517 843 525 c 256
 843 563 891 616 921 616 c 256
 932 616 946 602 946 591 c 256
 946 570 937 549 921 536 c 257
 994 482 l 257
 1014 501 1031 525 1031 548 c 256
 1031 597 942 682 885 682 c 256
 831 682 770 628 770 573 c 256
 770 566 771 558 774 551 c 257
 745 560 715 565 686 565 c 256
  PathStart: -2
798 255 m 256
 786 255 773 265 773 279 c 256
 773 307 817 346 845 346 c 256
 855 346 864 338 864 328 c 256
 864 312 856 296 841 279 c 256
 826 263 812 255 798 255 c 256
  PathStart: -2
176 79 m 256
 140 79 115 116 115 158 c 256
 115 248 215 346 316 346 c 256
 422 346 529 270 529 194 c 256
 529 133 463 61 406 61 c 256
 374 61 353 79 353 98 c 256
 353 106 362 117 376 121 c 257
 285 170 l 257
 255 170 237 116 213 95 c 256
 200 84 188 79 176 79 c 256
  PathStart: -2
EndSplineSet
EndChar

StartChar: DaOttu
Encoding: 128 -1 128
GlifName: D_aO_ttu
Width: 40
VWidth: 0
Flags: W
LayerCount: 2
Back
Fore
SplineSet
139 -277 m 256
 139 -198 197 -133 268 -133 c 256
 351 -133 426 -182 426 -241 c 256
 426 -283 395 -324 351 -324 c 256
 308 -324 264 -291 234 -241 c 257
 199 -264 174 -291 160 -330 c 257
 145 -320 139 -298 139 -277 c 256
  PathStart: -2
249 -317 m 257
 287 -358 334 -378 378 -378 c 256
 448 -378 508 -334 508 -277 c 256
 508 -194 362 -85 256 -85 c 256
 155 -85 50 -169 50 -248 c 256
 50 -320 115 -378 194 -378 c 257
 200 -353 220 -330 249 -317 c 257
  PathStart: -2
EndSplineSet
EndChar

StartChar: DaU
Encoding: 129 -1 129
GlifName: D_aU_
Width: 975
VWidth: 0
Flags: W
LayerCount: 2
Back
Fore
SplineSet
619 183 m 256
 619 287 444 425 310 425 c 258
 297 425 l 257
 340 456 396 477 460 488 c 256
 539 502 595 527 618 560 c 257
 496 639 l 257
 466 585 412 548 345 536 c 256
 240 518 156 474 114 415 c 257
 165 392 l 257
 77 350 30 272 30 194 c 256
 30 105 131 0 219 0 c 256
 252 0 286 21 316 55 c 257
 346 20 398 0 455 0 c 256
 513 0 557 28 594 86 c 257
 637 32 707 0 781 0 c 256
 865 0 958 95 958 194 c 256
 958 214 950 236 934 259 c 256
 906 297 830 338 830 370 c 256
 830 378 838 392 849 401 c 257
 758 444 l 257
 733 430 715 406 715 383 c 256
 715 365 743 338 794 310 c 256
 840 284 866 246 866 219 c 256
 866 148 801 73 739 73 c 256
 696 73 651 101 616 150 c 257
 618 161 619 172 619 183 c 256
  PathStart: -2
176 79 m 256
 140 79 115 116 115 158 c 256
 115 248 215 346 316 346 c 256
 422 346 529 270 529 194 c 256
 529 133 463 61 406 61 c 256
 374 61 353 79 353 98 c 256
 353 111 368 126 389 134 c 257
 321 206 l 257
 277 206 252 128 213 95 c 256
 200 84 188 79 176 79 c 256
  PathStart: -2
EndSplineSet
EndChar

StartChar: DaUU
Encoding: 130 -1 130
GlifName: D_aU_U_
Width: 1302
VWidth: 0
Flags: W
LayerCount: 2
Back
Fore
SplineSet
619 183 m 256
 619 287 444 425 310 425 c 258
 297 425 l 257
 340 456 396 477 460 488 c 256
 539 502 595 527 618 560 c 257
 496 639 l 257
 466 585 412 548 345 536 c 256
 240 518 156 474 114 415 c 257
 165 392 l 257
 77 350 30 272 30 194 c 256
 30 105 131 0 219 0 c 256
 252 0 286 21 316 55 c 257
 346 20 398 0 455 0 c 256
 513 0 557 28 594 86 c 257
 634 33 703 0 775 0 c 256
 868 0 964 102 964 200 c 256
 964 263 871 298 836 353 c 257
 1055 370 l 258
 1059 370 1064 370 1068 370 c 256
 1147 370 1200 324 1200 268 c 257
 1178 291 1148 304 1115 304 c 256
 1075 304 1006 232 1006 189 c 256
 1006 139 1086 66 1146 66 c 256
 1208 66 1285 167 1285 243 c 256
 1285 310 1171 425 1104 425 c 258
 939 425 l 258
 855 425 788 439 739 468 c 257
 673 370 l 257
 693 359 717 353 745 353 c 257
 790 315 l 258
 840 273 866 246 866 231 c 256
 866 162 794 73 739 73 c 256
 692 73 645 97 615 140 c 257
 618 154 619 168 619 183 c 256
  PathStart: -2
176 79 m 256
 140 79 115 116 115 158 c 256
 115 248 215 346 316 346 c 256
 422 346 529 270 529 194 c 256
 529 133 463 61 406 61 c 256
 374 61 353 79 353 98 c 256
 353 111 368 126 389 134 c 257
 321 206 l 257
 277 206 252 128 213 95 c 256
 200 84 188 79 176 79 c 256
  PathStart: -2
1109 140 m 256
 1095 140 1085 149 1085 158 c 256
 1085 188 1128 231 1158 231 c 256
 1168 231 1176 220 1176 206 c 256
 1176 194 1168 180 1153 164 c 256
 1137 148 1122 140 1109 140 c 256
  PathStart: -2
EndSplineSet
EndChar

StartChar: DhaAA
Encoding: 133 -1 133
GlifName: D_haA_A_
Width: 992
VWidth: 0
Flags: W
LayerCount: 2
Back
Fore
SplineSet
750 378 m 256
 836 378 890 335 890 275 c 257
 869 300 839 311 811 311 c 256
 769 311 695 241 695 196 c 256
 695 144 775 74 835 74 c 256
 896 74 975 175 975 250 c 256
 975 318 861 433 793 433 c 258
 276 433 l 258
 218 433 164 447 115 475 c 257
 55 378 l 257
 72 369 89 361 107 356 c 257
 56 312 30 258 30 194 c 256
 30 105 131 0 219 0 c 256
 252 0 286 21 316 55 c 257
 346 20 398 0 455 0 c 256
 545 0 619 84 619 183 c 256
 619 239 577 312 492 365 c 257
 605 374 691 378 750 378 c 256
  PathStart: -2
316 -195 m 257
 395 -104 l 257
 354 -75 328 -51 328 -31 c 256
 328 -25 334 -18 334 -12 c 256
 334 -5 325 -1 321 -1 c 257
 266 -48 236 -82 236 -104 c 256
 236 -114 243 -127 258 -144 c 256
 272 -159 291 -176 316 -195 c 257
  PathStart: -2
799 148 m 256
 785 148 775 157 775 165 c 256
 775 195 817 239 848 239 c 256
 857 239 865 226 865 214 c 256
 865 201 857 187 841 171 c 256
 826 156 812 148 799 148 c 256
  PathStart: -2
176 79 m 256
 140 79 115 116 115 158 c 256
 115 248 215 346 316 346 c 256
 422 346 529 270 529 194 c 256
 529 133 463 61 406 61 c 256
 374 61 353 79 353 98 c 256
 353 106 362 117 376 121 c 257
 285 170 l 257
 255 170 237 116 213 95 c 256
 200 84 188 79 176 79 c 256
  PathStart: -2
EndSplineSet
EndChar

StartChar: DhaAU
Encoding: 134 -1 134
GlifName: D_haA_U_
Width: 946
VWidth: 0
Flags: W
LayerCount: 2
Back
Fore
SplineSet
521 438 m 256
 521 463 502 491 473 510 c 257
 520 519 596 523 699 523 c 256
 778 523 844 478 844 425 c 257
 824 449 795 461 771 461 c 256
 711 461 650 408 650 359 c 256
 650 305 730 231 790 231 c 256
 856 231 929 308 929 383 c 256
 929 478 812 583 699 583 c 258
 321 583 l 258
 260 583 205 597 156 625 c 257
 90 529 l 257
 108 515 143 510 236 510 c 258
 388 510 l 258
 409 510 430 496 430 474 c 256
 430 447 408 425 381 425 c 258
 365 425 l 257
 347 429 329 431 310 431 c 256
 287 431 266 429 245 425 c 257
 218 425 l 258
 207 425 196 420 185 409 c 258
 181 405 l 257
 86 363 30 281 30 194 c 256
 30 105 131 0 219 0 c 256
 252 0 286 21 316 55 c 257
 346 20 398 0 455 0 c 256
 545 0 619 84 619 183 c 256
 619 249 566 318 465 384 c 257
 502 396 521 416 521 438 c 256
  PathStart: -2
316 -195 m 257
 395 -104 l 257
 354 -75 328 -51 328 -31 c 256
 328 -25 334 -18 334 -12 c 256
 334 -5 325 -1 321 -1 c 257
 266 -48 236 -82 236 -104 c 256
 236 -114 243 -127 258 -144 c 256
 272 -159 291 -176 316 -195 c 257
  PathStart: -2
748 298 m 256
 737 298 729 305 729 316 c 256
 729 345 771 389 801 389 c 256
 812 389 820 381 820 370 c 256
 820 355 812 340 795 323 c 256
 778 306 763 298 748 298 c 256
  PathStart: -2
176 79 m 256
 140 79 115 116 115 158 c 256
 115 248 215 346 316 346 c 256
 422 346 529 270 529 194 c 256
 529 133 463 61 406 61 c 256
 374 61 353 79 353 98 c 256
 353 106 362 117 376 121 c 257
 285 170 l 257
 255 170 237 116 213 95 c 256
 200 84 188 79 176 79 c 256
  PathStart: -2
EndSplineSet
EndChar

StartChar: DhaE
Encoding: 135 -1 135
GlifName: D_haE_
Width: 636
VWidth: 0
Flags: W
LayerCount: 2
Back
Fore
SplineSet
580 504 m 256
 580 548 498 614 453 614 c 256
 415 614 288 589 250 589 c 256
 216 589 182 605 154 631 c 257
 50 565 l 257
 88 532 127 516 159 516 c 256
 207 516 368 546 416 546 c 256
 438 546 453 524 453 498 c 256
 453 461 414 429 364 425 c 257
 346 429 328 431 310 431 c 256
 287 431 266 429 245 425 c 257
 198 425 l 258
 185 425 174 414 174 401 c 257
 85 360 30 278 30 194 c 256
 30 105 131 0 219 0 c 256
 252 0 286 21 316 55 c 257
 346 20 398 0 455 0 c 256
 545 0 619 84 619 183 c 256
 619 249 564 323 460 387 c 257
 534 407 580 455 580 504 c 256
  PathStart: -2
316 -195 m 257
 395 -104 l 257
 354 -75 328 -51 328 -31 c 256
 328 -25 334 -18 334 -12 c 256
 334 -5 325 -1 321 -1 c 257
 266 -48 236 -82 236 -104 c 256
 236 -114 243 -127 258 -144 c 256
 272 -159 291 -176 316 -195 c 257
  PathStart: -2
176 79 m 256
 140 79 115 116 115 158 c 256
 115 248 215 346 316 346 c 256
 422 346 529 270 529 194 c 256
 529 133 463 61 406 61 c 256
 374 61 353 79 353 98 c 256
 353 106 362 117 376 121 c 257
 285 170 l 257
 255 170 237 116 213 95 c 256
 200 84 188 79 176 79 c 256
  PathStart: -2
EndSplineSet
EndChar

StartChar: DhaEE
Encoding: 136 -1 136
GlifName: D_haE_E_
Width: 636
VWidth: 0
Flags: W
LayerCount: 2
Back
Fore
SplineSet
250 589 m 256
 216 589 182 605 154 631 c 257
 50 565 l 257
 88 532 127 516 159 516 c 256
 207 516 368 546 416 546 c 256
 438 546 453 524 453 498 c 256
 453 461 414 429 364 425 c 257
 346 429 328 431 310 431 c 256
 287 431 266 429 245 425 c 257
 198 425 l 258
 185 425 174 414 174 401 c 257
 85 360 30 278 30 194 c 256
 30 105 131 0 219 0 c 256
 252 0 286 21 316 55 c 257
 346 20 398 0 455 0 c 256
 545 0 619 84 619 183 c 256
 619 249 564 323 460 387 c 257
 534 407 580 455 580 504 c 256
 580 524 558 565 515 590 c 257
 511 606 l 257
 511 634 564 688 593 688 c 256
 603 688 625 675 625 662 c 256
 625 647 614 631 593 618 c 257
 662 562 l 257
 684 576 700 597 700 624 c 256
 700 682 617 769 562 769 c 256
 511 769 436 702 436 656 c 256
 436 646 440 632 449 614 c 257
 410 612 287 589 250 589 c 256
  PathStart: -2
316 -195 m 257
 395 -104 l 257
 354 -75 328 -51 328 -31 c 256
 328 -25 334 -18 334 -12 c 256
 334 -5 325 -1 321 -1 c 257
 266 -48 236 -82 236 -104 c 256
 236 -114 243 -127 258 -144 c 256
 272 -159 291 -176 316 -195 c 257
  PathStart: -2
176 79 m 256
 140 79 115 116 115 158 c 256
 115 248 215 346 316 346 c 256
 422 346 529 270 529 194 c 256
 529 133 463 61 406 61 c 256
 374 61 353 79 353 98 c 256
 353 106 362 117 376 121 c 257
 285 170 l 257
 255 170 237 116 213 95 c 256
 200 84 188 79 176 79 c 256
  PathStart: -2
EndSplineSet
EndChar

StartChar: DhaHalanth
Encoding: 137 -1 137
GlifName: D_haH_alanth
Width: 643
VWidth: 0
Flags: W
LayerCount: 2
Back
Fore
SplineSet
316 425 m 257
 296 429 280 436 274 444 c 257
 307 496 385 468 420 498 c 257
 354 571 l 257
 344 563 328 557 305 553 c 258
 263 546 l 257
 249 546 238 558 238 571 c 256
 238 594 311 625 348 625 c 256
 385 625 490 571 524 571 c 256
 558 571 592 588 626 614 c 257
 541 693 l 257
 524 672 494 661 463 661 c 256
 428 661 315 699 280 699 c 256
 211 699 123 638 123 589 c 256
 123 569 155 537 201 510 c 257
 172 492 152 475 146 461 c 257
 153 444 171 426 200 407 c 257
 94 370 30 283 30 194 c 256
 30 105 131 0 219 0 c 256
 252 0 286 21 316 55 c 257
 346 20 398 0 455 0 c 256
 545 0 619 84 619 183 c 256
 619 249 545 347 426 399 c 257
 426 425 l 257
 316 425 l 257
176 79 m 256
 140 79 115 116 115 158 c 256
 115 248 215 346 316 346 c 256
 422 346 529 270 529 194 c 256
 529 133 463 61 406 61 c 256
 374 61 353 79 353 98 c 256
 353 111 368 126 389 134 c 257
 321 206 l 257
 277 206 252 128 213 95 c 256
 200 84 188 79 176 79 c 256
  PathStart: -2
316 -189 m 257
 395 -97 l 257
 354 -70 328 -44 328 -25 c 256
 328 -20 334 -12 334 -6 c 256
 334 1 325 5 321 5 c 257
 267 -41 236 -76 236 -97 c 256
 236 -107 243 -120 258 -137 c 256
 272 -153 291 -170 316 -189 c 257
  PathStart: -2
EndSplineSet
EndChar

StartChar: DhaI
Encoding: 138 -1 138
GlifName: D_haI_
Width: 642
VWidth: 0
Flags: W
LayerCount: 2
Back
Fore
SplineSet
395 -104 m 257
 354 -75 328 -51 328 -31 c 256
 328 -24 334 -17 334 -12 c 256
 334 -5 325 -1 321 -1 c 257
 266 -48 236 -82 236 -104 c 256
 236 -123 264 -156 316 -195 c 257
 395 -104 l 257
109 158 m 256
 109 204 143 255 194 291 c 257
 202 287 214 285 231 285 c 256
 287 285 341 328 359 395 c 257
 457 360 529 291 529 225 c 256
 529 140 476 66 406 66 c 256
 380 66 358 78 346 98 c 257
 351 113 l 258
 354 122 356 127 359 128 c 257
 279 164 l 257
 260 160 248 150 243 140 c 256
 219 99 194 79 176 79 c 256
 138 79 109 115 109 158 c 256
  PathStart: -2
176 364 m 256
 176 389 222 419 261 419 c 256
 267 419 274 411 274 401 c 256
 274 374 231 340 200 340 c 256
 188 340 176 352 176 364 c 256
  PathStart: -2
316 49 m 257
 357 19 405 0 449 0 c 256
 543 0 625 94 625 213 c 256
 625 265 578 324 485 389 c 256
 392 454 307 486 231 486 c 256
 169 486 104 433 104 383 c 256
 104 370 112 352 128 334 c 257
 66 307 30 250 30 189 c 256
 30 107 148 0 231 0 c 256
 267 0 300 20 316 49 c 257
  PathStart: -2
EndSplineSet
EndChar

StartChar: DhaII
Encoding: 139 -1 139
GlifName: D_haI_I_
Width: 642
VWidth: 0
Flags: W
LayerCount: 2
Back
Fore
SplineSet
389 -97 m 257
 349 -70 321 -42 321 -25 c 256
 321 -20 328 -13 328 -6 c 256
 328 0 321 5 316 5 c 257
 262 -41 231 -76 231 -97 c 256
 231 -118 260 -151 310 -189 c 257
 389 -97 l 257
109 158 m 256
 109 204 143 255 194 291 c 257
 202 287 214 285 231 285 c 256
 288 285 337 327 353 389 c 257
 454 352 529 285 529 225 c 256
 529 140 476 66 406 66 c 256
 380 66 358 78 346 98 c 257
 350 107 357 119 370 121 c 257
 285 164 l 257
 265 160 249 152 243 140 c 256
 220 99 193 79 176 79 c 256
 138 79 109 115 109 158 c 256
  PathStart: -2
176 364 m 256
 176 389 222 419 261 419 c 256
 267 419 274 411 274 401 c 256
 274 374 231 340 200 340 c 256
 188 340 176 352 176 364 c 256
  PathStart: -2
316 49 m 257
 357 19 405 0 449 0 c 256
 546 0 625 99 625 219 c 256
 625 300 490 403 298 474 c 257
 293 481 291 491 291 504 c 256
 291 536 347 583 383 583 c 256
 393 583 406 567 406 553 c 256
 406 532 391 514 370 504 c 257
 444 449 l 257
 467 470 480 494 480 516 c 256
 480 569 400 644 346 644 c 256
 293 644 219 587 219 540 c 256
 219 518 227 498 243 486 c 257
 174 486 104 433 104 383 c 256
 104 370 112 352 128 334 c 257
 66 307 30 250 30 189 c 256
 30 107 148 0 231 0 c 256
 267 0 300 20 316 49 c 257
  PathStart: -2
EndSplineSet
EndChar

StartChar: DhaO
Encoding: 140 -1 140
GlifName: D_haO_
Width: 996
VWidth: 0
Flags: W
LayerCount: 2
Back
Fore
SplineSet
254 430 m 257
 247 434 244 439 244 444 c 256
 244 469 318 498 384 498 c 258
 450 498 l 258
 487 498 522 481 548 455 c 257
 529 419 l 257
 543 393 579 370 626 353 c 257
 663 434 711 486 754 486 c 256
 813 486 894 425 894 383 c 257
 880 408 849 425 815 425 c 256
 754 425 694 365 694 304 c 256
 694 251 780 183 845 183 c 256
 904 183 979 283 979 359 c 256
 979 448 812 565 686 565 c 256
 649 565 603 535 571 491 c 257
 527 534 478 559 438 559 c 258
 341 559 l 258
 230 559 110 503 110 449 c 256
 110 427 124 403 154 391 c 257
 73 342 30 274 30 194 c 256
 30 105 131 0 219 0 c 256
 252 0 286 21 316 55 c 257
 346 20 398 0 455 0 c 256
 545 0 619 84 619 183 c 256
 619 290 443 431 310 431 c 256
 293 431 276 430 260 428 c 257
 254 430 l 257
316 -195 m 257
 395 -104 l 257
 354 -75 328 -51 328 -31 c 256
 328 -25 334 -18 334 -12 c 256
 334 -5 325 -1 321 -1 c 257
 266 -48 236 -82 236 -104 c 256
 236 -114 243 -127 258 -144 c 256
 272 -159 291 -176 316 -195 c 257
  PathStart: -2
798 255 m 256
 786 255 773 265 773 279 c 256
 773 307 817 346 845 346 c 256
 855 346 864 338 864 328 c 256
 864 312 856 296 841 279 c 256
 826 263 812 255 798 255 c 256
  PathStart: -2
176 79 m 256
 140 79 115 116 115 158 c 256
 115 248 215 346 316 346 c 256
 422 346 529 270 529 194 c 256
 529 133 463 61 406 61 c 256
 374 61 353 79 353 98 c 256
 353 106 362 117 376 121 c 257
 285 170 l 257
 255 170 237 116 213 95 c 256
 200 84 188 79 176 79 c 256
  PathStart: -2
EndSplineSet
EndChar

StartChar: DhaOO
Encoding: 141 -1 141
GlifName: D_haO_O_
Width: 1038
VWidth: 0
Flags: W
LayerCount: 2
Back
Fore
SplineSet
686 565 m 256
 649 565 603 535 571 491 c 257
 527 534 478 559 438 559 c 258
 341 559 l 258
 230 559 110 503 110 449 c 256
 110 427 124 403 154 391 c 257
 73 342 30 274 30 194 c 256
 30 105 131 0 219 0 c 256
 252 0 286 21 316 55 c 257
 346 20 398 0 455 0 c 256
 545 0 619 84 619 183 c 256
 619 290 443 431 310 431 c 256
 293 431 276 430 260 428 c 257
 254 430 l 257
 247 434 244 439 244 444 c 256
 244 469 318 498 384 498 c 258
 450 498 l 258
 487 498 522 481 548 455 c 257
 529 419 l 257
 543 393 579 370 626 353 c 257
 663 434 711 486 754 486 c 256
 813 486 894 425 894 383 c 257
 880 408 849 425 815 425 c 256
 754 425 694 365 694 304 c 256
 694 251 780 183 845 183 c 256
 904 183 979 283 979 359 c 256
 979 404 946 449 881 496 c 256
 869 504 843 517 843 525 c 256
 843 563 891 616 921 616 c 256
 932 616 946 602 946 591 c 256
 946 570 937 549 921 536 c 257
 994 482 l 257
 1014 501 1031 525 1031 548 c 256
 1031 597 942 682 885 682 c 256
 831 682 770 628 770 573 c 256
 770 566 771 558 774 551 c 257
 745 560 715 565 686 565 c 256
  PathStart: -2
316 -195 m 257
 395 -104 l 257
 354 -75 328 -51 328 -31 c 256
 328 -25 334 -18 334 -12 c 256
 334 -5 325 -1 321 -1 c 257
 266 -48 236 -82 236 -104 c 256
 236 -114 243 -127 258 -144 c 256
 272 -159 291 -176 316 -195 c 257
  PathStart: -2
798 255 m 256
 786 255 773 265 773 279 c 256
 773 307 817 346 845 346 c 256
 855 346 864 338 864 328 c 256
 864 312 856 296 841 279 c 256
 826 263 812 255 798 255 c 256
  PathStart: -2
176 79 m 256
 140 79 115 116 115 158 c 256
 115 248 215 346 316 346 c 256
 422 346 529 270 529 194 c 256
 529 133 463 61 406 61 c 256
 374 61 353 79 353 98 c 256
 353 106 362 117 376 121 c 257
 285 170 l 257
 255 170 237 116 213 95 c 256
 200 84 188 79 176 79 c 256
  PathStart: -2
EndSplineSet
EndChar

StartChar: DhaOttu
Encoding: 142 -1 142
GlifName: D_haO_ttu
Width: 40
VWidth: 0
Flags: W
LayerCount: 2
Back
Fore
SplineSet
303 -488 m 257
 294 -483 289 -465 289 -454 c 258
 289 -413 l 258
 289 -376 256 -351 220 -351 c 257
 220 -370 201 -422 201 -440 c 256
 201 -471 229 -495 263 -495 c 256
 280 -495 294 -493 303 -488 c 257
  PathStart: -2
139 -277 m 256
 139 -198 197 -133 268 -133 c 256
 351 -133 426 -182 426 -241 c 256
 426 -283 395 -324 351 -324 c 256
 308 -324 264 -291 234 -241 c 257
 199 -264 174 -291 160 -330 c 257
 145 -320 139 -298 139 -277 c 256
  PathStart: -2
249 -317 m 257
 287 -358 334 -378 378 -378 c 256
 448 -378 508 -334 508 -277 c 256
 508 -194 362 -85 256 -85 c 256
 155 -85 50 -169 50 -248 c 256
 50 -320 115 -378 194 -378 c 257
 200 -353 220 -330 249 -317 c 257
  PathStart: -2
EndSplineSet
EndChar

StartChar: DhaU
Encoding: 143 -1 143
GlifName: D_haU_
Width: 975
VWidth: 0
Flags: W
LayerCount: 2
Back
Fore
SplineSet
619 183 m 256
 619 287 444 425 310 425 c 258
 297 425 l 257
 340 456 396 477 460 488 c 256
 539 502 595 527 618 560 c 257
 496 639 l 257
 466 585 412 548 345 536 c 256
 240 518 156 474 114 415 c 257
 165 392 l 257
 77 350 30 272 30 194 c 256
 30 105 131 0 219 0 c 256
 252 0 286 21 316 55 c 257
 346 20 398 0 455 0 c 256
 513 0 557 28 594 86 c 257
 637 32 707 0 781 0 c 256
 865 0 958 95 958 194 c 256
 958 214 950 236 934 259 c 256
 906 297 830 338 830 370 c 256
 830 378 838 392 849 401 c 257
 758 444 l 257
 733 430 715 406 715 383 c 256
 715 365 743 338 794 310 c 256
 840 284 866 246 866 219 c 256
 866 148 801 73 739 73 c 256
 696 73 651 101 616 150 c 257
 618 161 619 172 619 183 c 256
  PathStart: -2
316 -195 m 257
 395 -104 l 257
 354 -75 328 -51 328 -31 c 256
 328 -25 334 -18 334 -12 c 256
 334 -5 325 -1 321 -1 c 257
 266 -48 236 -82 236 -104 c 256
 236 -114 243 -127 258 -144 c 256
 272 -159 291 -176 316 -195 c 257
  PathStart: -2
176 79 m 256
 140 79 115 116 115 158 c 256
 115 248 215 346 316 346 c 256
 422 346 529 270 529 194 c 256
 529 133 463 61 406 61 c 256
 374 61 353 79 353 98 c 256
 353 111 368 126 389 134 c 257
 321 206 l 257
 277 206 252 128 213 95 c 256
 200 84 188 79 176 79 c 256
  PathStart: -2
EndSplineSet
EndChar

StartChar: DhaUU
Encoding: 144 -1 144
GlifName: D_haU_U_
Width: 1302
VWidth: 0
Flags: W
LayerCount: 2
Back
Fore
SplineSet
619 183 m 256
 619 287 444 425 310 425 c 258
 297 425 l 257
 340 456 396 477 460 488 c 256
 539 502 595 527 618 560 c 257
 496 639 l 257
 466 585 412 548 345 536 c 256
 240 518 156 474 114 415 c 257
 165 392 l 257
 77 350 30 272 30 194 c 256
 30 105 131 0 219 0 c 256
 252 0 286 21 316 55 c 257
 346 20 398 0 455 0 c 256
 513 0 557 28 594 86 c 257
 634 33 703 0 775 0 c 256
 868 0 964 102 964 200 c 256
 964 263 871 298 836 353 c 257
 1055 370 l 258
 1059 370 1064 370 1068 370 c 256
 1147 370 1200 324 1200 268 c 257
 1178 291 1148 304 1115 304 c 256
 1075 304 1006 232 1006 189 c 256
 1006 139 1086 66 1146 66 c 256
 1208 66 1285 167 1285 243 c 256
 1285 310 1171 425 1104 425 c 258
 939 425 l 258
 855 425 788 439 739 468 c 257
 673 370 l 257
 693 359 717 353 745 353 c 257
 790 315 l 258
 840 273 866 246 866 231 c 256
 866 162 794 73 739 73 c 256
 692 73 645 97 615 140 c 257
 618 154 619 168 619 183 c 256
  PathStart: -2
316 -195 m 257
 395 -104 l 257
 354 -75 328 -51 328 -31 c 256
 328 -25 334 -18 334 -12 c 256
 334 -5 325 -1 321 -1 c 257
 266 -48 236 -82 236 -104 c 256
 236 -114 243 -127 258 -144 c 256
 272 -159 291 -176 316 -195 c 257
  PathStart: -2
176 79 m 256
 140 79 115 116 115 158 c 256
 115 248 215 346 316 346 c 256
 422 346 529 270 529 194 c 256
 529 133 463 61 406 61 c 256
 374 61 353 79 353 98 c 256
 353 111 368 126 389 134 c 257
 321 206 l 257
 277 206 252 128 213 95 c 256
 200 84 188 79 176 79 c 256
  PathStart: -2
1109 140 m 256
 1095 140 1085 149 1085 158 c 256
 1085 188 1128 231 1158 231 c 256
 1168 231 1176 220 1176 206 c 256
 1176 194 1168 180 1153 164 c 256
 1137 148 1122 140 1109 140 c 256
  PathStart: -2
EndSplineSet
EndChar

StartChar: DoubleDanda
Encoding: 146 -1 146
GlifName: D_oubleD_anda
Width: 877
VWidth: 0
Flags: W
LayerCount: 2
Back
Fore
SplineSet
527 -775 m 257
 596 -733 l 257
 566 -697 518 -678 466 -678 c 256
 422 -678 287 -721 243 -721 c 256
 174 -721 106 -688 106 -643 c 256
 106 -633 118 -624 140 -624 c 256
 170 -624 196 -638 196 -658 c 256
 196 -667 188 -675 182 -678 c 257
 202 -692 l 257
 239 -678 265 -659 265 -643 c 256
 265 -605 221 -575 175 -575 c 256
 112 -575 30 -633 30 -678 c 256
 30 -726 106 -782 182 -782 c 256
 224 -782 365 -741 410 -741 c 256
 459 -741 496 -751 527 -775 c 257
  PathStart: -2
142 -428 m 256
 142 -413 160 -395 175 -395 c 256
 178 -395 183 -402 183 -405 c 256
 183 -421 166 -438 150 -438 c 256
 146 -438 142 -434 142 -428 c 256
  PathStart: -2
231 -508 m 257
 254 -535 295 -551 335 -551 c 256
 380 -551 424 -508 424 -466 c 256
 424 -454 396 -420 396 -405 c 256
 396 -395 405 -384 419 -376 c 257
 407 -365 390 -357 368 -353 c 257
 352 -362 339 -380 339 -395 c 256
 339 -408 372 -428 372 -442 c 256
 372 -481 338 -518 306 -518 c 256
 278 -518 246 -493 226 -457 c 257
 200 -472 180 -492 165 -518 c 257
 142 -514 123 -495 123 -471 c 256
 123 -458 126 -450 132 -442 c 257
 140 -451 154 -457 165 -457 c 256
 193 -457 226 -432 226 -405 c 256
 226 -384 195 -358 165 -358 c 256
 121 -358 66 -423 66 -462 c 256
 66 -513 131 -551 203 -551 c 257
 208 -537 218 -523 231 -508 c 257
  PathStart: -2
147 -231 m 256
 147 -205 168 -183 195 -183 c 256
 210 -183 222 -193 222 -202 c 256
 222 -221 203 -245 174 -264 c 257
 156 -258 147 -242 147 -231 c 256
  PathStart: -2
215 -319 m 257
 238 -300 259 -274 276 -243 c 257
 316 -286 360 -305 406 -305 c 256
 420 -305 434 -303 447 -298 c 257
 428 -323 420 -343 420 -353 c 256
 420 -373 449 -397 495 -415 c 257
 523 -387 l 257
 509 -379 502 -364 502 -346 c 256
 502 -312 571 -224 571 -190 c 256
 571 -167 537 -107 537 -87 c 256
 537 -74 547 -58 564 -52 c 257
 489 -18 l 257
 465 -33 454 -53 454 -73 c 256
 454 -97 509 -146 509 -169 c 256
 509 -216 461 -257 399 -257 c 256
 357 -257 310 -231 276 -183 c 256
 248 -145 207 -121 167 -121 c 256
 119 -121 85 -163 85 -209 c 256
 85 -262 144 -319 202 -319 c 258
 215 -319 l 257
EndSplineSet
EndChar

StartChar: E
Encoding: 147 69 147
GlifName: E_
Width: 382
VWidth: 0
Flags: W
AnchorPoint: "mark0" 211 451 basechar 0
AnchorPoint: "mark1" 220 0 basechar 0
LayerCount: 2
Back
Fore
SplineSet
362 78 m 257
 243 74 l 257
 158 75 l 257
 156 143 l 257
 157 191 l 257
 234 192 l 257
 319 190 l 257
 326 260 l 257
 320 267 l 257
 241 265 l 257
 158 267 l 257
 160 375 l 257
 247 376 l 257
 363 372 l 257
 370 443 l 257
 364 451 l 257
 58 451 l 257
 64 134 l 257
 58 0 l 257
 361 0 l 257
 368 71 l 257
 362 78 l 257
EndSplineSet
EndChar

StartChar: Ecircumflex
Encoding: 151 202 151
GlifName: E_circumflex
Width: 382
VWidth: 0
Flags: W
AnchorPoint: "mark0" 211 451 basechar 0
AnchorPoint: "mark1" 220 0 basechar 0
LayerCount: 2
Back
Fore
SplineSet
120 510 m 257
 130 510 l 257
 153 522 l 257
 172 531 191 542 212 554 c 257
 233 542 253 531 271 522 c 257
 295 510 l 257
 304 510 l 257
 322 547 l 257
 286 570 253 594 222 619 c 257
 202 619 l 257
 169 592 136 568 101 547 c 257
 120 510 l 257
362 78 m 257
 243 74 l 257
 159 75 l 257
 157 143 l 257
 157 191 l 257
 234 192 l 257
 319 190 l 257
 326 260 l 257
 320 267 l 257
 241 265 l 257
 159 266 l 257
 160 375 l 257
 247 376 l 257
 363 372 l 257
 370 443 l 257
 364 451 l 257
 58 451 l 257
 64 134 l 257
 58 0 l 257
 361 0 l 257
 367 71 l 257
 362 78 l 257
EndSplineSet
EndChar

StartChar: Ecircumflexdotbelow
Encoding: 153 7878 153
GlifName: E_circumflexdotbelow
Width: 382
VWidth: 0
Flags: W
AnchorPoint: "mark0" 211 451 basechar 0
AnchorPoint: "mark1" 220 0 basechar 0
LayerCount: 2
Back
Fore
SplineSet
120 510 m 257
 130 510 l 257
 153 522 l 257
 172 531 191 542 212 554 c 257
 233 542 253 531 271 522 c 257
 295 510 l 257
 304 510 l 257
 322 547 l 257
 286 570 253 594 222 619 c 257
 202 619 l 257
 169 592 136 568 101 547 c 257
 120 510 l 257
362 78 m 257
 243 74 l 257
 159 75 l 257
 157 143 l 257
 157 191 l 257
 234 192 l 257
 319 190 l 257
 326 260 l 257
 320 267 l 257
 241 265 l 257
 159 266 l 257
 160 375 l 257
 247 376 l 257
 363 372 l 257
 370 443 l 257
 364 451 l 257
 58 451 l 257
 64 134 l 257
 58 0 l 257
 361 0 l 257
 367 71 l 257
 362 78 l 257
223 -36 m 256
 189 -36 168 -57 168 -88 c 256
 168 -118 186 -136 219 -136 c 256
 252 -136 272 -115 272 -84 c 256
 272 -54 253 -36 223 -36 c 256
  PathStart: -2
EndSplineSet
EndChar

StartChar: Ecircumflexhookabove
Encoding: 155 7874 155
GlifName: E_circumflexhookabove
Width: 382
VWidth: 0
Flags: W
AnchorPoint: "mark0" 211 451 basechar 0
AnchorPoint: "mark1" 220 0 basechar 0
LayerCount: 2
Back
Fore
SplineSet
229 669 m 257
 244 680 259 686 274 686 c 256
 288 686 295 681 295 671 c 256
 295 656 282 640 257 624 c 257
 287 580 l 257
 322 598 l 257
 305 624 l 257
 335 647 346 662 346 680 c 256
 346 707 321 727 288 727 c 256
 260 727 235 715 213 693 c 257
 229 669 l 257
119 496 m 257
 129 496 l 257
 152 508 l 257
 171 517 190 528 211 540 c 257
 232 528 252 517 271 508 c 257
 294 496 l 257
 304 496 l 257
 322 533 l 257
 286 556 252 580 221 605 c 257
 201 605 l 257
 169 578 135 554 100 533 c 257
 119 496 l 257
362 78 m 257
 243 74 l 257
 159 75 l 257
 157 143 l 257
 157 191 l 257
 234 192 l 257
 319 190 l 257
 326 260 l 257
 320 267 l 257
 241 265 l 257
 159 266 l 257
 160 375 l 257
 247 376 l 257
 363 372 l 257
 370 443 l 257
 364 451 l 257
 58 451 l 257
 64 134 l 257
 58 0 l 257
 361 0 l 257
 367 71 l 257
 362 78 l 257
EndSplineSet
EndChar

StartChar: Edieresis
Encoding: 157 203 157
GlifName: E_dieresis
Width: 382
VWidth: 0
Flags: W
AnchorPoint: "mark0" 211 451 basechar 0
AnchorPoint: "mark1" 220 0 basechar 0
LayerCount: 2
Back
Fore
SplineSet
145 512 m 256
 176 512 195 530 195 560 c 256
 195 587 178 603 149 603 c 256
 118 603 100 585 100 556 c 256
 100 528 116 512 145 512 c 256
  PathStart: -2
276 512 m 256
 307 512 325 530 325 560 c 256
 325 587 309 603 280 603 c 256
 249 603 230 585 230 556 c 256
 230 528 247 512 276 512 c 256
  PathStart: -2
362 78 m 257
 243 74 l 257
 159 75 l 257
 157 143 l 257
 157 191 l 257
 234 192 l 257
 319 190 l 257
 326 260 l 257
 320 267 l 257
 241 265 l 257
 159 266 l 257
 160 375 l 257
 247 376 l 257
 363 372 l 257
 370 443 l 257
 364 451 l 257
 58 451 l 257
 64 134 l 257
 58 0 l 257
 361 0 l 257
 367 71 l 257
 362 78 l 257
EndSplineSet
EndChar

StartChar: Edotaccent
Encoding: 158 278 158
GlifName: E_dotaccent
Width: 382
VWidth: 0
Flags: W
AnchorPoint: "mark0" 211 451 basechar 0
AnchorPoint: "mark1" 220 0 basechar 0
LayerCount: 2
Back
Fore
SplineSet
211 511 m 256
 244 511 264 531 264 563 c 256
 264 593 245 610 214 610 c 256
 181 610 160 590 160 559 c 256
 160 528 178 511 211 511 c 256
  PathStart: -2
362 78 m 257
 243 74 l 257
 159 75 l 257
 157 143 l 257
 157 191 l 257
 234 192 l 257
 319 190 l 257
 326 260 l 257
 320 267 l 257
 241 265 l 257
 159 266 l 257
 160 375 l 257
 247 376 l 257
 363 372 l 257
 370 443 l 257
 364 451 l 257
 58 451 l 257
 64 134 l 257
 58 0 l 257
 361 0 l 257
 367 71 l 257
 362 78 l 257
EndSplineSet
EndChar

StartChar: Edotbelow
Encoding: 159 7864 159
GlifName: E_dotbelow
Width: 382
VWidth: 0
Flags: W
AnchorPoint: "mark0" 211 451 basechar 0
AnchorPoint: "mark1" 220 0 basechar 0
LayerCount: 2
Back
Fore
SplineSet
362 78 m 257
 243 74 l 257
 159 75 l 257
 157 143 l 257
 157 191 l 257
 234 192 l 257
 319 190 l 257
 326 260 l 257
 320 267 l 257
 241 265 l 257
 159 266 l 257
 160 375 l 257
 247 376 l 257
 363 372 l 257
 370 443 l 257
 364 451 l 257
 58 451 l 257
 64 134 l 257
 58 0 l 257
 361 0 l 257
 367 71 l 257
 362 78 l 257
223 -36 m 256
 189 -36 168 -57 168 -88 c 256
 168 -118 186 -136 219 -136 c 256
 252 -136 272 -115 272 -84 c 256
 272 -54 253 -36 223 -36 c 256
  PathStart: -2
EndSplineSet
EndChar

StartChar: Egrave
Encoding: 160 200 160
GlifName: E_grave
Width: 382
VWidth: 0
Flags: W
AnchorPoint: "mark0" 211 451 basechar 0
AnchorPoint: "mark1" 220 0 basechar 0
LayerCount: 2
Back
Fore
SplineSet
121 557 m 257
 167 540 221 522 283 503 c 257
 292 505 l 257
 309 544 l 257
 248 573 196 598 153 623 c 257
 144 621 l 257
 118 566 l 257
 121 557 l 257
362 78 m 257
 243 74 l 257
 159 75 l 257
 157 143 l 257
 157 191 l 257
 234 192 l 257
 319 190 l 257
 326 260 l 257
 320 267 l 257
 241 265 l 257
 159 266 l 257
 160 375 l 257
 247 376 l 257
 363 372 l 257
 370 443 l 257
 364 451 l 257
 58 451 l 257
 64 134 l 257
 58 0 l 257
 361 0 l 257
 367 71 l 257
 362 78 l 257
EndSplineSet
EndChar

StartChar: Eng
Encoding: 163 330 163
GlifName: E_ng
Width: 521
VWidth: 0
Flags: W
LayerCount: 2
Back
Fore
SplineSet
457 139 m 257
 463 452 l 257
 369 447 l 257
 372 152 l 257
 365 152 l 257
 169 451 l 257
 59 451 l 257
 64 133 l 257
 58 0 l 257
 151 0 l 257
 148 155 l 257
 148 305 l 257
 155 305 l 257
 358 1 l 257
 346 -21 322 -41 282 -60 c 257
 282 -69 l 257
 313 -120 l 257
 424 -81 460 -39 460 39 c 257
 457 139 l 257
EndSplineSet
EndChar

StartChar: Eogonek
Encoding: 164 280 164
GlifName: E_ogonek
Width: 382
VWidth: 0
Flags: W
AnchorPoint: "mark0" 211 451 basechar 0
AnchorPoint: "mark1" 220 0 basechar 0
LayerCount: 2
Back
Fore
SplineSet
373 -104 m 257
 365 -65 l 257
 360 -65 l 257
 343 -78 326 -85 311 -85 c 256
 292 -85 283 -77 283 -59 c 256
 283 -50 286 -39 295 -27 c 258
 313 0 l 257
 361 0 l 257
 367 71 l 257
 362 78 l 257
 243 74 l 257
 159 75 l 257
 157 143 l 257
 157 191 l 257
 234 192 l 257
 319 190 l 257
 326 260 l 257
 320 267 l 257
 241 265 l 257
 159 266 l 257
 160 375 l 257
 247 376 l 257
 363 372 l 257
 370 443 l 257
 364 451 l 257
 58 451 l 257
 64 134 l 257
 58 0 l 257
 264 0 l 257
 250 -19 l 258
 235 -37 228 -56 228 -76 c 256
 228 -112 255 -138 296 -138 c 256
 320 -138 346 -127 373 -104 c 257
  PathStart: -2
EndSplineSet
EndChar

StartChar: Eth
Encoding: 165 208 165
GlifName: E_th
Width: 510
VWidth: 0
Flags: W
AnchorPoint: "mark0" 259 451 basechar 0
AnchorPoint: "mark1" 0 0 basechar 0
LayerCount: 2
Back
Fore
SplineSet
272 454 m 257
 78 451 l 257
 77 451 l 257
 81 255 l 257
 15 255 l 257
 11 199 l 257
 16 192 l 257
 82 192 l 257
 83 134 l 257
 77 0 l 257
 78 0 l 257
 135 -4 191 -5 246 -5 c 256
 402 -5 489 83 489 242 c 256
 489 379 412 454 272 454 c 257
  PathStart: -2
265 69 m 256
 241 69 213 70 178 73 c 257
 175 143 l 257
 176 192 l 257
 267 192 l 257
 270 249 l 257
 265 255 l 257
 178 255 l 257
 179 374 l 257
 210 377 238 378 264 378 c 256
 346 378 383 330 383 220 c 256
 383 119 343 69 265 69 c 256
  PathStart: -2
EndSplineSet
EndChar

StartChar: Euro
Encoding: 167 8364 167
GlifName: E_uro
Width: 350
VWidth: 0
Flags: W
LayerCount: 2
Back
Fore
SplineSet
7 189 m 257
 266 189 l 257
 270 232 l 257
 265 236 l 257
 159 236 l 257
 170 270 196 287 238 287 c 256
 266 287 292 280 316 267 c 257
 323 270 l 257
 339 339 l 257
 307 352 274 358 241 358 c 256
 146 358 82 314 61 236 c 257
 7 236 l 257
 4 195 l 257
 7 189 l 257
322 84 m 257
 296 72 269 66 240 66 c 256
 201 66 175 81 161 113 c 257
 266 113 l 257
 270 155 l 257
 265 160 l 257
 7 160 l 257
 4 118 l 257
 7 113 l 257
 59 113 l 257
 76 34 135 -5 235 -5 c 256
 267 -5 297 1 323 11 c 257
 331 80 l 257
 322 84 l 257
EndSplineSet
EndChar

StartChar: F
Encoding: 168 70 168
GlifName: F_
Width: 342
VWidth: 0
Flags: W
LayerCount: 2
Back
Fore
SplineSet
160 375 m 257
 229 376 l 257
 344 372 l 257
 352 443 l 257
 346 451 l 257
 58 451 l 257
 64 134 l 257
 58 0 l 257
 160 0 l 257
 156 143 l 257
 157 178 l 257
 217 179 l 257
 307 177 l 257
 314 248 l 257
 307 255 l 257
 226 253 l 257
 158 253 l 257
 160 375 l 257
EndSplineSet
EndChar

StartChar: G
Encoding: 169 71 169
GlifName: G_
Width: 448
VWidth: 0
Flags: W
AnchorPoint: "mark0" 245 451 basechar 0
AnchorPoint: "mark1" 227 0 basechar 0
LayerCount: 2
Back
Fore
SplineSet
415 429 m 257
 373 447 325 456 273 456 c 256
 112 456 21 372 21 216 c 256
 21 73 97 -6 247 -6 c 256
 297 -6 352 3 412 22 c 257
 410 132 l 257
 412 193 l 257
 319 186 l 257
 320 117 l 257
 319 78 l 257
 295 72 274 69 255 69 c 256
 164 69 127 109 127 220 c 256
 127 333 166 379 256 379 c 256
 300 379 334 368 383 342 c 257
 393 344 l 257
 415 429 l 257
EndSplineSet
EndChar

StartChar: GNaOttu
Encoding: 170 -1 170
GlifName: G_N_aO_ttu
Width: 25
VWidth: 0
Flags: W
LayerCount: 2
Back
Fore
SplineSet
267 -692 m 257
 269 -686 270 -682 270 -681 c 256
 270 -654 208 -604 208 -578 c 256
 208 -533 255 -488 325 -462 c 257
 414 -488 475 -531 475 -564 c 256
 475 -605 440 -647 386 -659 c 257
 461 -702 l 257
 523 -680 564 -634 564 -592 c 256
 564 -504 431 -425 270 -415 c 257
 186 -444 126 -504 126 -564 c 256
 126 -589 181 -647 181 -674 c 257
 181 -674 176 -683 174 -688 c 257
 263 -702 l 257
 267 -692 l 257
255 -371 m 258
 276 -336 l 257
 348 -397 420 -432 468 -432 c 256
 527 -432 578 -395 578 -350 c 256
 578 -328 530 -284 530 -261 c 256
 530 -254 537 -246 543 -240 c 257
 475 -213 l 257
 465 -217 461 -228 461 -240 c 256
 461 -257 502 -293 502 -309 c 256
 502 -340 464 -364 413 -364 c 256
 371 -364 330 -343 296 -309 c 257
 317 -295 l 257
 262 -254 l 257
 217 -254 219 -350 188 -350 c 256
 164 -350 147 -333 147 -309 c 256
 147 -286 201 -185 317 -185 c 257
 399 -199 l 257
 437 -199 474 -178 495 -145 c 257
 440 -118 l 257
 419 -147 388 -166 365 -166 c 256
 358 -166 349 -164 338 -159 c 257
 350 -151 358 -135 358 -118 c 256
 358 -102 317 -82 317 -63 c 258
 317 -49 l 257
 283 -49 l 257
 278 -60 l 257
 277 -65 276 -70 276 -77 c 256
 276 -87 296 -107 296 -118 c 256
 296 -159 269 -151 248 -159 c 257
 215 -104 160 -70 105 -70 c 256
 73 -70 30 -106 30 -137 c 256
 30 -157 64 -188 112 -199 c 257
 140 -185 l 257
 123 -179 112 -169 112 -159 c 256
 112 -138 132 -125 152 -125 c 256
 172 -125 188 -140 188 -159 c 256
 188 -199 71 -246 71 -302 c 256
 71 -347 147 -398 221 -398 c 256
 234 -398 246 -386 255 -371 c 258
  PathStart: -2
EndSplineSet
EndChar

StartChar: GaAA
Encoding: 171 -1 171
GlifName: G_aA_A_
Width: 913
VWidth: 0
Flags: W
LayerCount: 2
Back
Fore
SplineSet
229 343 m 257
 252 344 277 345 304 348 c 257
 412 302 480 247 480 206 c 256
 480 149 432 95 359 61 c 257
 450 -19 l 257
 537 32 589 115 589 194 c 256
 589 244 542 308 451 359 c 257
 547 366 620 370 671 370 c 256
 757 370 811 330 811 268 c 257
 790 291 761 304 733 304 c 256
 690 304 618 232 618 189 c 256
 618 135 698 66 756 66 c 256
 818 66 896 167 896 243 c 256
 896 311 782 425 714 425 c 258
 270 425 l 258
 200 425 140 439 91 468 c 257
 30 370 l 257
 53 357 77 348 103 344 c 257
 53 314 30 253 30 219 c 256
 30 210 34 199 43 184 c 256
 62 150 115 95 115 61 c 256
 115 44 111 31 104 24 c 257
 206 0 l 257
 211 7 213 15 213 24 c 256
 213 45 200 74 173 109 c 256
 147 143 134 172 134 194 c 256
 134 245 161 299 206 328 c 258
 229 343 l 257
720 140 m 256
 706 140 696 149 696 158 c 256
 696 188 739 231 769 231 c 256
 778 231 788 222 788 206 c 256
 788 194 780 180 764 164 c 256
 748 148 733 140 720 140 c 256
  PathStart: -2
EndSplineSet
EndChar

StartChar: GaAU
Encoding: 172 -1 172
GlifName: G_aA_U_
Width: 932
VWidth: 0
Flags: W
LayerCount: 2
Back
Fore
SplineSet
508 438 m 256
 508 462 488 490 459 510 c 257
 506 519 582 523 685 523 c 256
 761 523 830 480 830 425 c 257
 811 448 783 461 758 461 c 256
 701 461 636 411 636 359 c 256
 636 305 716 231 776 231 c 256
 843 231 915 308 915 383 c 256
 915 483 795 583 685 583 c 258
 308 583 l 258
 247 583 192 597 143 625 c 257
 76 529 l 257
 94 515 130 510 223 510 c 258
 374 510 l 258
 395 510 416 496 416 474 c 256
 416 447 395 425 368 425 c 258
 204 425 l 258
 193 425 182 420 171 409 c 256
 90 328 30 287 30 219 c 256
 30 210 34 199 43 184 c 256
 62 150 115 95 115 61 c 256
 115 44 111 31 104 24 c 257
 206 0 l 257
 211 7 213 15 213 24 c 256
 213 45 200 74 173 109 c 256
 147 143 134 172 134 194 c 256
 134 245 161 299 206 328 c 258
 261 364 l 257
 391 316 480 253 480 206 c 256
 480 149 432 95 359 61 c 257
 450 -19 l 257
 537 32 589 115 589 194 c 256
 589 253 529 317 419 377 c 257
 470 382 508 411 508 438 c 256
  PathStart: -2
734 298 m 256
 723 298 715 305 715 316 c 256
 715 346 758 389 788 389 c 256
 798 389 806 380 806 370 c 256
 806 355 798 340 781 323 c 256
 764 306 749 298 734 298 c 256
  PathStart: -2
EndSplineSet
EndChar

StartChar: GaE
Encoding: 173 -1 173
GlifName: G_aE_
Width: 608
VWidth: 0
Flags: W
LayerCount: 2
Back
Fore
SplineSet
548 504 m 256
 548 548 466 614 421 614 c 256
 383 614 256 589 218 589 c 256
 184 589 150 605 122 631 c 257
 18 565 l 257
 56 532 95 516 127 516 c 256
 175 516 336 546 384 546 c 256
 406 546 421 524 421 498 c 256
 421 458 377 425 322 425 c 258
 166 425 l 258
 153 425 142 414 142 401 c 256
 142 393 147 382 154 379 c 257
 74 330 32 272 32 219 c 256
 32 210 35 199 44 184 c 256
 64 150 117 96 117 61 c 256
 117 46 112 30 106 24 c 257
 208 0 l 257
 212 7 214 15 214 24 c 256
 214 45 200 74 174 109 c 256
 148 144 136 172 136 194 c 256
 136 246 161 297 208 328 c 258
 263 364 l 257
 393 316 482 253 482 206 c 256
 482 152 435 95 361 61 c 257
 452 -19 l 257
 539 32 591 115 591 194 c 256
 591 253 524 325 410 382 c 257
 494 402 548 450 548 504 c 256
  PathStart: -2
EndSplineSet
EndChar

StartChar: GaEE
Encoding: 174 -1 174
GlifName: G_aE_E_
Width: 608
VWidth: 0
Flags: W
LayerCount: 2
Back
Fore
SplineSet
541 504 m 256
 541 527 519 556 480 583 c 257
 474 608 l 257
 474 635 524 686 553 686 c 256
 566 686 584 674 584 661 c 256
 584 648 573 631 553 619 c 257
 620 565 l 257
 640 578 656 599 656 625 c 256
 656 684 573 765 523 765 c 256
 474 765 401 702 401 656 c 256
 401 646 405 632 414 614 c 257
 380 614 265 589 230 589 c 256
 196 589 162 605 134 631 c 257
 30 565 l 257
 68 532 107 516 139 516 c 256
 183 516 334 546 378 546 c 256
 401 546 414 523 414 498 c 256
 414 458 355 425 286 425 c 258
 155 425 l 258
 139 425 130 412 130 398 c 256
 130 389 138 378 148 376 c 257
 71 329 31 271 31 219 c 256
 31 182 116 108 116 61 c 256
 116 44 112 31 105 24 c 257
 208 0 l 257
 212 7 214 15 214 24 c 256
 214 45 201 74 174 109 c 256
 148 143 135 172 135 194 c 256
 135 245 161 297 208 328 c 258
 263 364 l 257
 391 316 481 253 481 206 c 256
 481 149 433 95 360 61 c 257
 451 -19 l 257
 538 32 590 114 590 194 c 256
 590 257 517 330 397 389 c 257
 490 411 541 457 541 504 c 256
  PathStart: -2
EndSplineSet
EndChar

StartChar: GaHalanth
Encoding: 175 -1 175
GlifName: G_aH_alanth
Width: 610
VWidth: 0
Flags: W
LayerCount: 2
Back
Fore
SplineSet
283 425 m 257
 264 429 246 435 240 444 c 257
 273 496 354 471 386 498 c 257
 320 571 l 257
 310 563 294 557 271 553 c 258
 229 546 l 257
 215 546 204 558 204 571 c 256
 204 593 277 625 314 625 c 256
 351 625 456 571 490 571 c 256
 524 571 561 590 593 614 c 257
 508 693 l 257
 489 672 460 661 429 661 c 256
 394 661 281 699 246 699 c 256
 177 699 89 638 89 589 c 256
 89 569 120 537 168 510 c 257
 139 492 117 475 113 461 c 257
 120 443 138 423 170 405 c 258
 184 397 l 257
 86 347 30 280 30 219 c 256
 30 210 34 199 43 184 c 256
 62 150 115 95 115 61 c 256
 115 44 111 31 104 24 c 257
 206 0 l 257
 211 7 213 15 213 24 c 256
 213 45 200 74 173 109 c 256
 147 143 134 172 134 194 c 256
 134 245 161 299 206 328 c 258
 261 364 l 257
 391 316 480 253 480 206 c 256
 480 149 432 95 359 61 c 257
 450 -19 l 257
 537 32 589 115 589 194 c 256
 589 256 516 332 393 390 c 257
 393 425 l 257
 283 425 l 257
EndSplineSet
EndChar

StartChar: GaI
Encoding: 176 -1 176
GlifName: G_aI_
Width: 612
VWidth: 0
Flags: W
LayerCount: 2
Back
Fore
SplineSet
146 364 m 256
 146 384 192 413 225 413 c 256
 230 413 236 403 236 389 c 256
 236 364 193 340 164 340 c 256
 155 340 146 350 146 364 c 256
  PathStart: -2
206 0 m 257
 211 7 213 17 213 30 c 256
 213 52 200 80 173 115 c 256
 147 149 134 179 134 200 c 256
 134 229 142 258 158 285 c 257
 169 281 180 279 189 279 c 256
 248 279 304 320 328 383 c 257
 421 347 486 294 486 243 c 256
 486 174 435 103 353 55 c 257
 444 -12 l 257
 536 54 595 138 595 206 c 256
 595 256 547 316 449 384 c 256
 350 453 265 486 194 486 c 256
 137 486 66 426 66 383 c 256
 66 372 74 355 91 334 c 257
 53 296 30 254 30 219 c 256
 30 198 43 174 70 143 c 256
 96 112 109 86 109 66 c 256
 109 46 102 30 91 24 c 257
 206 0 l 257
EndSplineSet
EndChar

StartChar: GaII
Encoding: 177 -1 177
GlifName: G_aI_I_
Width: 612
VWidth: 0
Flags: W
LayerCount: 2
Back
Fore
SplineSet
146 364 m 256
 146 384 192 413 225 413 c 256
 230 413 238 403 238 389 c 256
 238 366 194 340 164 340 c 256
 155 340 146 350 146 364 c 256
  PathStart: -2
206 0 m 257
 211 7 213 17 213 30 c 256
 213 52 200 80 174 115 c 256
 147 150 134 179 134 200 c 256
 134 229 142 258 158 285 c 257
 169 281 180 279 189 279 c 256
 248 279 304 320 328 383 c 257
 421 347 486 294 486 243 c 256
 486 174 435 103 353 55 c 257
 444 -12 l 257
 536 54 595 138 595 206 c 256
 595 298 421 433 261 474 c 257
 257 481 255 489 255 498 c 256
 255 527 309 565 340 565 c 256
 350 565 365 550 365 540 c 256
 365 528 357 511 340 498 c 257
 408 444 l 257
 430 464 444 483 444 498 c 256
 444 552 360 638 304 638 c 256
 252 638 183 577 183 529 c 256
 183 524 190 512 203 493 c 257
 206 486 l 257
 153 486 73 422 73 376 c 256
 73 361 81 348 91 334 c 257
 53 296 30 254 30 219 c 256
 30 199 43 174 70 143 c 256
 97 112 110 86 110 66 c 256
 110 46 103 30 91 24 c 257
 206 0 l 257
EndSplineSet
EndChar

StartChar: GaO
Encoding: 178 -1 178
GlifName: G_aO_
Width: 962
VWidth: 0
Flags: W
LayerCount: 2
Back
Fore
SplineSet
246 425 m 257
 225 425 210 433 210 444 c 256
 210 469 284 498 350 498 c 258
 416 498 l 258
 453 498 488 481 514 455 c 257
 495 419 l 257
 509 393 544 370 593 353 c 257
 628 434 678 486 720 486 c 256
 779 486 860 427 860 383 c 257
 845 411 813 425 781 425 c 256
 720 425 660 363 660 304 c 256
 660 251 746 183 811 183 c 256
 870 183 945 283 945 359 c 256
 945 452 775 565 653 565 c 256
 614 565 571 535 538 491 c 257
 492 534 444 559 404 559 c 258
 308 559 l 258
 195 559 76 502 76 449 c 256
 76 417 108 390 152 379 c 257
 72 330 30 272 30 219 c 256
 30 210 34 199 43 184 c 256
 62 150 115 95 115 61 c 256
 115 44 111 31 104 24 c 257
 206 0 l 257
 211 7 213 15 213 24 c 256
 213 45 200 74 173 109 c 256
 147 143 134 172 134 194 c 256
 134 245 161 299 206 328 c 258
 261 364 l 257
 391 316 480 253 480 206 c 256
 480 149 432 95 359 61 c 257
 450 -19 l 257
 537 32 589 115 589 194 c 256
 589 275 473 364 310 425 c 257
 246 425 l 257
764 255 m 256
 752 255 739 265 739 279 c 256
 739 307 783 346 811 346 c 256
 821 346 830 338 830 328 c 256
 830 312 823 296 808 279 c 256
 793 263 778 255 764 255 c 256
  PathStart: -2
EndSplineSet
EndChar

StartChar: GaOO
Encoding: 179 -1 179
GlifName: G_aO_O_
Width: 959
VWidth: 0
Flags: W
LayerCount: 2
Back
Fore
SplineSet
253 425 m 257
 230 425 210 437 210 449 c 256
 210 473 272 498 331 498 c 258
 410 498 l 258
 447 498 482 481 508 455 c 257
 489 419 l 257
 503 393 539 370 586 353 c 257
 623 434 671 486 714 486 c 256
 773 486 854 425 854 383 c 257
 840 408 809 425 775 425 c 256
 714 425 654 365 654 304 c 256
 654 249 742 183 806 183 c 256
 865 183 939 284 939 359 c 256
 939 386 911 422 811 504 c 257
 803 515 l 258
 800 518 799 521 799 523 c 256
 799 561 846 614 878 614 c 256
 887 614 903 599 903 589 c 256
 903 569 893 547 878 534 c 257
 950 480 l 257
 972 498 988 523 988 546 c 256
 988 595 898 680 841 680 c 256
 785 680 726 624 726 571 c 256
 726 560 730 547 738 534 c 257
 700 551 668 559 641 559 c 256
 602 559 560 531 531 491 c 257
 487 534 438 559 398 559 c 258
 308 559 l 258
 195 559 76 502 76 449 c 256
 76 428 107 393 154 380 c 257
 74 333 30 272 30 219 c 256
 30 210 34 199 43 184 c 256
 62 150 115 95 115 61 c 256
 115 44 111 31 104 24 c 257
 206 0 l 257
 211 7 213 15 213 24 c 256
 213 45 200 74 173 109 c 256
 147 143 134 172 134 194 c 256
 134 245 161 299 206 328 c 258
 261 364 l 257
 391 316 480 253 480 206 c 256
 480 149 432 95 359 61 c 257
 450 -19 l 257
 537 32 589 115 589 194 c 256
 589 275 473 364 310 425 c 257
 253 425 l 257
758 255 m 256
 746 255 733 265 733 279 c 256
 733 307 777 346 806 346 c 256
 817 346 824 337 824 328 c 256
 824 312 816 296 801 279 c 256
 786 263 772 255 758 255 c 256
  PathStart: -2
EndSplineSet
EndChar

StartChar: GaOttu
Encoding: 180 -1 180
GlifName: G_aO_ttu
Width: 39
VWidth: 0
Flags: W
LayerCount: 2
Back
Fore
SplineSet
267 -372 m 258
 269 -366 270 -362 270 -361 c 256
 270 -334 208 -284 208 -258 c 256
 208 -213 255 -168 325 -142 c 257
 414 -168 475 -211 475 -244 c 256
 475 -285 440 -327 386 -339 c 257
 461 -382 l 257
 523 -360 564 -314 564 -272 c 256
 564 -184 431 -105 270 -95 c 257
 186 -124 126 -184 126 -244 c 256
 126 -269 181 -327 181 -354 c 257
 181 -354 176 -363 174 -368 c 257
 263 -382 l 257
 267 -372 l 258
EndSplineSet
EndChar

StartChar: GaU
Encoding: 181 -1 181
GlifName: G_aU_
Width: 906
VWidth: 0
Flags: W
LayerCount: 2
Back
Fore
SplineSet
205 327 m 257
 261 364 l 257
 391 316 480 253 480 206 c 256
 480 149 432 95 359 61 c 257
 450 -19 l 257
 489 4 521 32 544 65 c 257
 590 23 647 0 713 0 c 256
 798 0 889 97 889 194 c 256
 889 214 881 236 865 259 c 256
 836 299 761 338 761 370 c 256
 761 378 769 392 780 401 c 257
 689 444 l 257
 663 430 646 404 646 383 c 256
 646 367 673 339 725 310 c 256
 770 284 798 247 798 219 c 256
 798 149 734 73 670 73 c 256
 637 73 607 79 581 93 c 258
 566 101 l 257
 581 132 589 163 589 194 c 256
 589 271 481 359 325 420 c 257
 355 433 389 442 426 449 c 256
 506 463 561 490 584 521 c 257
 463 600 l 257
 431 545 375 508 311 498 c 256
 208 481 124 435 80 376 c 257
 120 358 l 257
 60 314 30 264 30 219 c 256
 30 210 34 199 43 184 c 256
 62 150 115 95 115 61 c 256
 115 44 111 31 104 24 c 257
 206 0 l 257
 211 7 213 15 213 24 c 256
 213 45 200 74 173 109 c 256
 147 143 134 172 134 194 c 256
 134 244 159 291 199 322 c 257
 201 321 l 257
 205 327 l 257
EndSplineSet
EndChar

StartChar: GaUU
Encoding: 182 -1 182
GlifName: G_aU_U_
Width: 1233
VWidth: 0
Flags: W
LayerCount: 2
Back
Fore
SplineSet
205 327 m 257
 261 364 l 257
 391 316 480 253 480 206 c 256
 480 149 432 95 359 61 c 257
 450 -19 l 257
 489 4 521 32 544 65 c 257
 585 24 645 0 706 0 c 256
 799 0 895 102 895 200 c 256
 895 264 799 299 768 353 c 257
 986 370 l 258
 991 370 995 370 999 370 c 256
 1081 370 1131 323 1131 268 c 257
 1110 291 1080 304 1046 304 c 256
 1006 304 938 233 938 189 c 256
 938 136 1019 66 1078 66 c 256
 1139 66 1216 167 1216 243 c 256
 1216 310 1103 425 1035 425 c 258
 870 425 l 258
 786 425 719 439 670 468 c 257
 604 370 l 257
 624 359 648 353 676 353 c 257
 721 315 l 258
 771 273 798 246 798 231 c 256
 798 165 727 73 670 73 c 256
 635 73 597 84 568 105 c 257
 582 134 589 164 589 194 c 256
 589 271 481 359 325 420 c 257
 355 433 389 442 426 449 c 256
 506 463 561 490 584 521 c 257
 463 600 l 257
 431 545 375 508 311 498 c 256
 208 481 124 435 80 376 c 257
 120 358 l 257
 60 314 30 264 30 219 c 256
 30 210 34 199 43 184 c 256
 62 150 115 95 115 61 c 256
 115 44 111 31 104 24 c 257
 206 0 l 257
 211 7 213 15 213 24 c 256
 213 45 200 74 173 109 c 256
 147 143 134 172 134 194 c 256
 134 244 159 291 199 322 c 257
 201 321 l 257
 205 327 l 257
1040 140 m 256
 1026 140 1016 149 1016 158 c 256
 1016 188 1059 231 1089 231 c 256
 1098 231 1108 222 1108 206 c 256
 1108 194 1100 180 1084 164 c 256
 1068 148 1053 140 1040 140 c 256
  PathStart: -2
EndSplineSet
EndChar

StartChar: Gcircumflex
Encoding: 184 284 184
GlifName: G_circumflex
Width: 448
VWidth: 0
Flags: W
AnchorPoint: "mark0" 245 451 basechar 0
AnchorPoint: "mark1" 227 0 basechar 0
LayerCount: 2
Back
Fore
SplineSet
235 619 m 257
 202 592 169 568 134 547 c 257
 153 510 l 257
 163 510 l 257
 186 522 l 257
 205 531 224 542 245 554 c 257
 266 542 286 531 304 522 c 257
 328 510 l 257
 337 510 l 257
 355 547 l 257
 319 570 286 594 255 619 c 257
 235 619 l 257
414 429 m 257
 373 447 326 456 273 456 c 256
 112 456 21 372 21 216 c 256
 21 73 97 -6 247 -6 c 256
 297 -6 352 3 412 22 c 257
 410 132 l 257
 412 193 l 257
 318 186 l 257
 320 117 l 257
 319 78 l 257
 295 72 274 69 254 69 c 256
 163 69 127 109 127 220 c 256
 127 335 166 379 255 379 c 256
 299 379 334 368 383 342 c 257
 392 344 l 257
 414 429 l 257
EndSplineSet
EndChar

StartChar: Gcommaaccent
Encoding: 185 290 185
GlifName: G_commaaccent
Width: 448
VWidth: 0
Flags: W
AnchorPoint: "mark0" 245 451 basechar 0
AnchorPoint: "mark1" 227 0 basechar 0
LayerCount: 2
Back
Fore
SplineSet
414 429 m 257
 373 447 326 456 273 456 c 256
 112 456 21 372 21 216 c 256
 21 73 97 -6 247 -6 c 256
 297 -6 352 3 412 22 c 257
 410 132 l 257
 412 193 l 257
 318 186 l 257
 320 117 l 257
 319 78 l 257
 295 72 274 69 254 69 c 256
 163 69 127 109 127 220 c 256
 127 335 166 379 255 379 c 256
 299 379 334 368 383 342 c 257
 392 344 l 257
 414 429 l 257
253 -28 m 257
 232 -33 210 -42 188 -54 c 257
 188 -61 l 257
 202 -72 209 -85 209 -99 c 256
 209 -120 196 -141 172 -160 c 257
 172 -167 l 257
 202 -190 l 257
 256 -155 283 -118 283 -81 c 256
 283 -60 273 -43 253 -28 c 257
  PathStart: -2
EndSplineSet
EndChar

